<?xml version="1.0" encoding="UTF-8" standalone="no"?>
<svg
   xmlns:dc="http://purl.org/dc/elements/1.1/"
   xmlns:cc="http://creativecommons.org/ns#"
   xmlns:rdf="http://www.w3.org/1999/02/22-rdf-syntax-ns#"
   xmlns:svg="http://www.w3.org/2000/svg"
   xmlns="http://www.w3.org/2000/svg"
   xmlns:xlink="http://www.w3.org/1999/xlink"
   xmlns:sodipodi="http://sodipodi.sourceforge.net/DTD/sodipodi-0.dtd"
   xmlns:inkscape="http://www.inkscape.org/namespaces/inkscape"
   inkscape:version="1.0 (4035a4fb49, 2020-05-01)"
   sodipodi:docname="bmi.svg"
   viewBox="0 0 480 480"
   height="480"
   width="480"
   id="svg62"
   version="1.1">
  <metadata
     id="metadata68">
    <rdf:RDF>
      <cc:Work
         rdf:about="">
        <dc:format>image/svg+xml</dc:format>
        <dc:type
           rdf:resource="http://purl.org/dc/dcmitype/StillImage" />
        <dc:title></dc:title>
      </cc:Work>
    </rdf:RDF>
  </metadata>
  <defs
     id="defs66" />
  <sodipodi:namedview
     inkscape:current-layer="g70"
     inkscape:window-maximized="1"
     inkscape:window-y="245"
     inkscape:window-x="1072"
     inkscape:cy="240"
     inkscape:cx="240"
     inkscape:zoom="2.4656615"
     showgrid="false"
     id="namedview64"
     inkscape:window-height="1377"
     inkscape:window-width="2560"
     inkscape:pageshadow="2"
     inkscape:pageopacity="0"
     guidetolerance="10"
     gridtolerance="10"
     objecttolerance="10"
     borderopacity="1"
     bordercolor="#666666"
     pagecolor="#ffffff" />
  <g
     id="g70"
     inkscape:label="Image"
     inkscape:groupmode="layer">
    <image
       sodipodi:absref="C:\Users\chris\Pictures\Saved Pictures\Asset collection III - Epicons\bmi.png"
       xlink:href="bmi.png"
       width="480"
       height="480"
       preserveAspectRatio="none"
       id="image72" />
    <path
       id="path76"
       d="m 122.74863,381.5937 c -10.27976,-3.29879 -19.37841,-12.47465 -22.934608,-23.12923 -1.922928,-5.7612 -1.953686,-7.68512 -1.909728,-119.43223 l 0.04464,-113.5767 2.530406,-5.63852 c 3.32481,-7.40865 11.63278,-15.20186 19.24742,-18.05486 3.59125,-1.34554 9.45365,-2.383766 16.5932,-2.938656 6.072,-0.471917 57.1105,-0.868262 113.41888,-0.880771 99.52314,-0.02208 102.54906,0.03053 108.48,1.885872 9.97844,3.121535 18.17809,10.995465 22.04317,21.167515 1.7465,4.59642 1.81795,9.22043 1.81795,117.64091 v 112.85645 l -3.0553,7.37326 c -3.94443,9.51897 -12.08088,18.08188 -19.9847,21.03218 -5.18166,1.93418 -7.38985,1.98162 -118.56,2.54706 -98.73891,0.50222 -113.85139,0.3928 -117.73136,-0.85228 z M 306.72,352.41614 c 7.85354,-3.6439 14.19701,-13.62766 15.45397,-24.32244 0.59759,-5.08452 -1.22088,-18.52948 -4.47399,-33.07881 -2.14108,-9.57582 0.1826,-23.91361 5.5172,-34.04284 2.45977,-4.67054 2.69719,-5.99535 2.64025,-14.73205 -0.0713,-10.94288 -1.92931,-16.95888 -7.63014,-24.70567 -4.2648,-5.79538 -9.31429,-9.12241 -15.8972,-10.47438 -12.22373,-2.51048 -23.46915,5.4644 -29.30204,20.78005 -1.41335,3.71111 -1.82791,7.30444 -1.82744,15.84 6.2e-4,10.99728 0.0166,11.07416 4.12619,19.86833 2.4742,5.29456 4.75608,12.09898 5.70076,16.99926 1.4782,7.66783 1.47089,8.72017 -0.11863,17.09166 -0.93159,4.90641 -2.26202,11.9385 -2.95649,15.62685 -4.28656,22.76575 12.15671,42.85717 28.76756,35.15004 z m -115.51463,-7.08807 c 5.63761,-4.277 10.02783,-11.10134 11.41093,-17.73763 1.248,-5.98802 0.72975,-18.55071 -1.12133,-27.18203 -1.72015,-8.02077 -0.49732,-18.55369 3.3575,-28.92017 5.25343,-14.1276 6.4704,-19.36676 6.58718,-28.35824 0.0938,-7.22418 -0.28013,-9.35363 -2.6523,-15.10236 -4.39418,-10.64889 -12.1565,-17.33152 -21.39896,-18.4225 -12.72671,-1.50225 -24.29057,7.99146 -29.12634,23.91217 -2.53204,8.33618 -2.11157,19.3858 1.06862,28.08269 4.10921,11.23748 5.03018,16.72776 4.509,26.88 -0.32993,6.42663 -1.21322,11.66268 -2.67212,15.84 -3.32568,9.52245 -3.13798,21.5598 0.45864,29.4116 4.6,10.04231 10.95646,14.73268 19.97918,14.74249 4.67611,0.005 6.03228,-0.43936 9.6,-3.14602 z M 268.95637,179.52 H 324.48 v -26.06681 -26.06681 l -84.17966,0.64648 c -46.29882,0.35555 -84.26793,0.74562 -84.37582,0.8668 -0.22411,0.25176 -0.74766,49.68004 -0.54035,51.01515 0.0807,0.52029 11.8701,0.61755 29.0922,0.24 15.92602,-0.34915 53.94202,-0.63481 84.48,-0.63481 z M 164.88,173.6831 c -2.23452,-1.30149 -2.13716,-4.41088 0.17689,-5.64933 1.02129,-0.54657 6.88168,-0.99377 13.02311,-0.99377 11.7647,0 14.88,0.80395 14.88,3.84 0,1.01885 -0.8356,2.29965 -1.85689,2.84623 -2.38988,1.27902 -24.01417,1.24347 -26.22311,-0.0431 z m 61.54635,-0.8831 -2.26635,-1.92 2.26635,-1.92 c 1.99079,-1.68655 3.6618,-1.92 13.74312,-1.92 12.12175,0 15.19053,0.78738 15.19053,3.89753 0,2.8937 -3.71162,3.78247 -15.79615,3.78247 -9.4757,0 -11.16206,-0.24646 -13.1375,-1.92 z m 68.32742,-2.81689 C 294.19433,168.93779 293.76,161.77744 293.76,153.6 c 0,-15.07854 0.66557,-18.24 3.84,-18.24 2.62145,0 3.84,2.87402 3.84,9.05689 V 149.76 h 4.10639 c 4.28341,0 8.37361,2.07933 8.37361,4.25689 0,2.14392 -2.457,3.46347 -7.57836,4.07003 l -4.90164,0.58052 v 4.72939 c 0,5.60268 -1.29187,8.44317 -3.84,8.44317 -1.01885,0 -2.29965,-0.8356 -2.84623,-1.85689 z M 180.81824,157.44642 c -3.00822,-1.21374 -3.66241,-2.85354 -1.85852,-4.65854 1.41898,-1.41985 6.04531,-1.61821 43.71982,-1.87445 23.17309,-0.1576 43.5701,0.0858 45.32668,0.54103 4.09134,1.06017 4.60847,5.02546 0.79378,6.08657 -3.50599,0.97523 -85.54886,0.88701 -87.98176,-0.0947 z M 163.92,142.9631 c -0.924,-0.53817 -1.68,-1.80438 -1.68,-2.8138 0,-3.30309 5.96393,-3.96862 32.68689,-3.64771 21.04515,0.25274 25.07868,0.52943 26.35579,1.80797 1.87476,1.87686 1.02394,4.35902 -1.74908,5.10273 -3.72401,0.99876 -53.82236,0.59412 -55.6136,-0.44919 z"
       style="fill:#000000;stroke-width:0.96" />
  </g>
</svg>
