<?xml version="1.0" encoding="UTF-8" standalone="no"?>
<svg
   xmlns:dc="http://purl.org/dc/elements/1.1/"
   xmlns:cc="http://creativecommons.org/ns#"
   xmlns:rdf="http://www.w3.org/1999/02/22-rdf-syntax-ns#"
   xmlns:svg="http://www.w3.org/2000/svg"
   xmlns="http://www.w3.org/2000/svg"
   xmlns:xlink="http://www.w3.org/1999/xlink"
   xmlns:sodipodi="http://sodipodi.sourceforge.net/DTD/sodipodi-0.dtd"
   xmlns:inkscape="http://www.inkscape.org/namespaces/inkscape"
   inkscape:version="1.0 (4035a4fb49, 2020-05-01)"
   sodipodi:docname="drinking.svg"
   viewBox="0 0 480 480"
   height="480"
   width="480"
   id="svg50"
   version="1.1">
  <metadata
     id="metadata56">
    <rdf:RDF>
      <cc:Work
         rdf:about="">
        <dc:format>image/svg+xml</dc:format>
        <dc:type
           rdf:resource="http://purl.org/dc/dcmitype/StillImage" />
        <dc:title></dc:title>
      </cc:Work>
    </rdf:RDF>
  </metadata>
  <defs
     id="defs54" />
  <sodipodi:namedview
     inkscape:current-layer="g58"
     inkscape:window-maximized="0"
     inkscape:window-y="431"
     inkscape:window-x="1236"
     inkscape:cy="240"
     inkscape:cx="240"
     inkscape:zoom="0.63326848"
     showgrid="false"
     id="namedview52"
     inkscape:window-height="480"
     inkscape:window-width="725"
     inkscape:pageshadow="2"
     inkscape:pageopacity="0"
     guidetolerance="10"
     gridtolerance="10"
     objecttolerance="10"
     borderopacity="1"
     bordercolor="#666666"
     pagecolor="#ffffff" />
  <g
     id="g58"
     inkscape:label="Image"
     inkscape:groupmode="layer">
    <image
       sodipodi:absref="C:\Users\chris\Pictures\Saved Pictures\Asset collection III - Epicons\drinking.png"
       xlink:href="drinking.png"
       width="480"
       height="480"
       preserveAspectRatio="none"
       id="image60" />
    <path
       id="path74"
       d="m 140.39639,393.16874 c -8.07075,-3.8678 -13.66958,-9.12077 -18.98132,-17.80874 L 117.6,369.12 117.01819,284.64 c -0.31999,-46.464 -0.75199,-108.59853 -0.96,-138.07674 L 115.68,92.966524 l 3.13515,-2.803263 c 5.65034,-5.052201 15.54873,-2.743895 16.88502,3.937593 0.34091,1.70453 0.61983,26.347646 0.61983,54.762486 0,28.41484 0.34839,51.87866 0.7742,52.14182 0.42581,0.26318 5.93381,-0.83117 12.24,-2.43188 10.63696,-2.69999 12.43734,-2.88391 24.9058,-2.54439 l 13.44,0.36599 18.72,6.382 c 10.296,3.51011 21.312,7.0359 24.48,7.83511 9.14386,2.30675 29.06083,4.42801 41.57551,4.42801 12.84158,0 21.44687,-1.98502 26.58449,-6.13237 l 2.88,-2.32489 0.26218,-57.88029 c 0.29066,-64.166315 -0.0836,-60.658613 6.60561,-61.913516 3.77203,-0.707637 8.62317,1.005104 9.96891,3.519619 0.53492,0.999531 0.9233,14.423577 0.9233,31.913637 v 30.18842 l 15.12,0.38799 c 14.5749,0.37402 15.3533,0.49732 21.59112,3.42011 8.56789,4.01456 14.82642,10.39959 19.54053,19.93545 l 3.74836,7.58231 0.28571,52.62765 c 0.18508,34.09366 -0.0715,54.56604 -0.72858,58.13176 -2.24918,12.2052 -11.32614,24.07548 -22.59714,29.55116 -5.45412,2.64972 -6.53742,2.81656 -20.4,3.1418 l -14.64,0.34348 -0.0235,15.51384 c -0.026,17.18498 -0.69568,21.3632 -4.80376,29.97089 -3.9697,8.31776 -11.12276,15.20884 -20.4883,19.73792 L 288.58156,396.48 H 217.9437 147.30584 Z m 204.09074,-84.75812 c 6.08826,-1.91915 13.01112,-8.04096 16.02488,-14.17062 1.78296,-3.62636 1.90462,-6.37696 2.18679,-49.44 0.34775,-53.06796 -0.1241,-59.0492 -5.18067,-65.67157 -2.1039,-2.7554 -5.19464,-5.20837 -8.78226,-6.97007 -4.94623,-2.42881 -6.73735,-2.75249 -16.81587,-3.03876 l -11.28,-0.3204 v 70.6404 70.6404 h 9.27563 c 6.14113,0 11.06524,-0.56412 14.5715,-1.66938 z"
       style="fill:#000000;stroke-width:0.96" />
  </g>
</svg>
