<?xml version="1.0" encoding="UTF-8" standalone="no"?>
<svg
   xmlns:dc="http://purl.org/dc/elements/1.1/"
   xmlns:cc="http://creativecommons.org/ns#"
   xmlns:rdf="http://www.w3.org/1999/02/22-rdf-syntax-ns#"
   xmlns:svg="http://www.w3.org/2000/svg"
   xmlns="http://www.w3.org/2000/svg"
   xmlns:xlink="http://www.w3.org/1999/xlink"
   xmlns:sodipodi="http://sodipodi.sourceforge.net/DTD/sodipodi-0.dtd"
   xmlns:inkscape="http://www.inkscape.org/namespaces/inkscape"
   inkscape:version="1.0 (4035a4fb49, 2020-05-01)"
   sodipodi:docname="drugs.svg"
   viewBox="0 0 480 480"
   height="480"
   width="480"
   id="svg10"
   version="1.1">
  <metadata
     id="metadata16">
    <rdf:RDF>
      <cc:Work
         rdf:about="">
        <dc:format>image/svg+xml</dc:format>
        <dc:type
           rdf:resource="http://purl.org/dc/dcmitype/StillImage" />
        <dc:title></dc:title>
      </cc:Work>
    </rdf:RDF>
  </metadata>
  <defs
     id="defs14" />
  <sodipodi:namedview
     inkscape:current-layer="g18"
     inkscape:window-maximized="0"
     inkscape:window-y="0"
     inkscape:window-x="0"
     inkscape:cy="240"
     inkscape:cx="240"
     inkscape:zoom="1.125"
     showgrid="false"
     id="namedview12"
     inkscape:window-height="480"
     inkscape:window-width="776"
     inkscape:pageshadow="2"
     inkscape:pageopacity="0"
     guidetolerance="10"
     gridtolerance="10"
     objecttolerance="10"
     borderopacity="1"
     bordercolor="#666666"
     pagecolor="#ffffff" />
  <g
     id="g18"
     inkscape:label="Image"
     inkscape:groupmode="layer">
    <image
       sodipodi:absref="C:\Users\chris\Pictures\Saved Pictures\Asset collection III - Epicons\drugs.png"
       xlink:href="drugs.png"
       width="480"
       height="480"
       preserveAspectRatio="none"
       id="image20" />
    <path
       id="path22"
       d="M 156.48,407.98096 C 117.6898,404.86723 83.385021,375.73544 72.772174,336.89584 70.856533,329.88522 70.570828,326.67671 70.64078,312.96 c 0.07123,-13.96657 0.383723,-16.97541 2.642183,-25.44 1.408771,-5.28 4.603256,-13.704 7.098855,-18.72 l 4.537452,-9.12 60.17602,-60.96 C 237.66895,104.9403 260.79625,82.198964 266.47405,79.366953 c 18.97874,-9.466343 46.95942,-12.992098 67.29128,-8.479156 18.31577,4.065445 34.55195,13.264152 47.90276,27.139627 9.24544,9.608746 12.82993,14.706636 17.69522,25.166206 11.19971,24.07751 12.19312,48.23048 3.1064,75.52637 -5.5661,16.7202 -3.00451,13.86186 -97.38884,108.67096 -85.66531,86.05084 -86.76523,87.10951 -93.88087,90.36094 -18.81761,8.59854 -35.70515,11.75541 -54.72,10.22906 z M 347.1093,255.35954 c 38.54328,-38.61172 39.38476,-39.53633 44.23536,-48.60579 2.71957,-5.08494 6.14722,-13.40073 7.61702,-18.47955 2.32204,-8.02369 2.67688,-10.93312 2.70688,-22.1942 0.0402,-15.08449 -1.68757,-24.25812 -6.75867,-35.88579 -12.38146,-28.38983 -36.63307,-47.667659 -67.24924,-53.457042 -3.53823,-0.669064 -11.10622,-0.953052 -18.72,-0.702467 -11.63494,0.382932 -13.7273,0.742019 -23.34065,4.005683 -19.99863,6.789391 -17.8532,5.024378 -68.65048,56.477496 l -32.8932,33.31787 46.41616,47.32213 c 55.86187,56.95219 76.06425,77.32968 76.79682,77.46252 0.30212,0.0548 18.23012,-17.61261 39.84,-39.26086 z"
       style="fill:#000000;stroke-width:0.96" />
  </g>
</svg>
