<?xml version="1.0" encoding="UTF-8" standalone="no"?>
<svg
   xmlns:dc="http://purl.org/dc/elements/1.1/"
   xmlns:cc="http://creativecommons.org/ns#"
   xmlns:rdf="http://www.w3.org/1999/02/22-rdf-syntax-ns#"
   xmlns:svg="http://www.w3.org/2000/svg"
   xmlns="http://www.w3.org/2000/svg"
   xmlns:xlink="http://www.w3.org/1999/xlink"
   xmlns:sodipodi="http://sodipodi.sourceforge.net/DTD/sodipodi-0.dtd"
   xmlns:inkscape="http://www.inkscape.org/namespaces/inkscape"
   inkscape:version="1.0 (4035a4fb49, 2020-05-01)"
   sodipodi:docname="education_schoolYears.svg"
   viewBox="0 0 480 480"
   height="480"
   width="480"
   id="svg92"
   version="1.1">
  <metadata
     id="metadata98">
    <rdf:RDF>
      <cc:Work
         rdf:about="">
        <dc:format>image/svg+xml</dc:format>
        <dc:type
           rdf:resource="http://purl.org/dc/dcmitype/StillImage" />
        <dc:title></dc:title>
      </cc:Work>
    </rdf:RDF>
  </metadata>
  <defs
     id="defs96" />
  <sodipodi:namedview
     inkscape:current-layer="g100"
     inkscape:window-maximized="0"
     inkscape:window-y="764"
     inkscape:window-x="1631"
     inkscape:cy="240"
     inkscape:cx="240"
     inkscape:zoom="0.5229572"
     showgrid="false"
     id="namedview94"
     inkscape:window-height="426"
     inkscape:window-width="727"
     inkscape:pageshadow="2"
     inkscape:pageopacity="0"
     guidetolerance="10"
     gridtolerance="10"
     objecttolerance="10"
     borderopacity="1"
     bordercolor="#666666"
     pagecolor="#ffffff" />
  <g
     id="g100"
     inkscape:label="Image"
     inkscape:groupmode="layer">
    <image
       sodipodi:absref="C:\Users\chris\Pictures\Saved Pictures\Asset collection III - Epicons\education_schoolYears.png"
       xlink:href="education_schoolYears.png"
       width="480"
       height="480"
       preserveAspectRatio="none"
       id="image102" />
    <path
       id="path416"
       d="M 113.38389,314.64789 C 81.91075,283.36823 55.794604,257.19661 55.348008,256.48875 51.135555,249.8119 72.744143,221.11915 94.08,205.05886 c 22.58181,-16.99817 46.05317,-25.16425 75.36,-26.219 l 15.36,-0.55281 4.8,-6.78975 c 17.51006,-24.76855 52.38311,-47.08697 81.92605,-52.4319 19.51607,-3.53086 41.91593,-2.96449 47.81289,1.20892 5.38575,3.81162 102.12599,100.51078 102.26779,102.22436 0.40059,4.84098 -1.30103,5.99246 -15.24408,10.31552 -4.33254,1.34331 -13.25601,4.98074 -19.82993,8.08317 -27.62157,13.03544 -53.00778,29.57086 -73.57272,47.92191 -12.82458,11.44398 -14.28632,12.47068 -18.57501,13.04677 -26.65146,3.58 -82.4106,34.62365 -111.63767,62.15376 -4.9068,4.62191 -8.764,7.50019 -10.05102,7.50019 -1.47723,0 -18.83739,-16.64591 -59.31241,-56.87211 z m 58.1414,41.27211 c 3.20315,-6.57426 13.51189,-19.83296 21.45922,-27.6 22.62837,-22.11505 53.16814,-35.81473 84.7843,-38.03294 l 9.44881,-0.66293 -52.64881,-52.74375 -52.64881,-52.74373 -11.74836,0.55113 c -33.66559,1.57928 -61.66758,13.45604 -85.075364,36.08384 -8.802022,8.50872 -19.360896,22.45927 -22.844687,30.18274 l -1.260439,2.79436 53.74442,53.0976 c 29.55944,29.20368 53.98235,53.11022 54.27313,53.12564 0.29079,0.0154 1.42326,-1.80796 2.51659,-4.05196 z m 35.88564,-61.61864 c -2.13757,-2.5756 0.70898,-5.36911 9.87798,-9.69396 11.95968,-5.64117 25.43109,-9.46571 28.81283,-8.17997 5.56877,2.11724 2.30838,5.50229 -8.16861,8.48094 -4.04077,1.1488 -11.92081,4.04239 -17.51119,6.43018 -5.59038,2.3878 -10.54738,4.34145 -11.01558,4.34145 -0.4682,0 -1.36614,-0.62038 -1.99543,-1.37864 z M 123.84633,285.36 c 0.0104,-2.75876 3.22431,-6.81453 10.4134,-13.14102 7.17771,-6.31648 13.4508,-9.80247 15.92864,-8.85163 2.91167,1.11732 1.39949,3.56333 -5.87333,9.50038 -4.05073,3.30675 -9.5329,7.84827 -12.18262,10.09227 -5.08475,4.30619 -8.29678,5.23653 -8.28609,2.4 z m 89.28382,-11.26778 c -1.8551,-2.23525 -0.442,-4.21531 4.52946,-6.34673 5.97339,-2.56099 16.00236,-4.86704 17.93739,-4.1245 1.81939,0.69816 2.00505,3.58385 0.32055,4.98186 -0.89947,0.7465 -19.95864,6.91715 -21.36485,6.91715 -0.13068,0 -0.77083,-0.6425 -1.42255,-1.42778 z m -107.08387,-5.34679 c -1.33655,-2.16257 0.75001,-5.74402 7.05832,-12.11521 14.67826,-14.82456 38.04865,-29.06097 41.70464,-25.40498 1.87809,1.87809 -0.10987,3.80374 -9.50736,9.20933 -10.81351,6.2201 -18.66909,12.17364 -28.83156,21.8507 -7.86383,7.48822 -9.2556,8.35075 -10.42404,6.46016 z m 81.29927,-1.76238 c -4.08191,-2.56406 4.00994,-8.23822 19.39684,-13.60146 9.29497,-3.23983 14.96637,-4.20499 16.93761,-2.88241 2.94503,1.97595 -0.59725,4.35584 -13.05387,8.7703 -6.81237,2.4142 -13.68213,5.05947 -15.26613,5.87837 -4.29266,2.21923 -6.57213,2.74121 -8.01445,1.8352 z M 91.2,254.54404 c 0,-6.78649 24.26938,-27.57073 43.50515,-37.25771 14.90176,-7.5044 41.22439,-14.28166 45.85148,-11.80532 1.42113,0.76057 1.64991,1.40669 0.95672,2.70193 -0.65164,1.21762 -3.8669,2.31907 -11.2922,3.8684 -26.76201,5.58402 -46.9747,16.42585 -67.48557,36.19839 C 94.453123,256.23404 91.2,258.00908 91.2,254.54404 Z m 106.56,86.9632 c 19.46444,-14.52854 53.64527,-33.14588 75.53192,-41.14011 l 10.38808,-3.79431 -7.92995,0.53688 c -29.758,2.01471 -60.24985,16.64632 -81.28169,39.0033 -6.63107,7.04888 -14.94836,17.95952 -14.94836,19.60931 0,0.34521 2.484,-1.50276 5.52,-4.1066 3.036,-2.60386 8.76,-7.15267 12.72,-10.10847 z M 298.45222,281.2359 c 8.64653,-14.01217 22.30545,-28.8118 35.14778,-38.08311 20.36831,-14.70455 39.66016,-22.35599 64.03764,-25.3983 5.17129,-0.64538 9.40236,-1.48084 9.40236,-1.85659 0,-0.37574 -20.79094,-21.22424 -46.20208,-46.33002 -53.16371,-52.52482 -45.48152,-47.31268 -68.40497,-46.41073 -36.58087,1.43933 -69.39086,17.77256 -91.94184,45.76981 -3.62958,4.50617 -7.45591,9.92056 -8.50295,12.03196 l -1.9037,3.83894 51.59444,51.60106 C 270.05583,264.77952 293.49945,288 293.77581,288 c 0.27636,0 2.38074,-3.04384 4.67641,-6.7641 z m -18.77383,-38.91086 c -1.29484,-3.37434 9.53409,-13.21244 13.97386,-12.69525 5.27303,0.61425 3.14271,5.4237 -5.07629,11.46032 -4.13287,3.03547 -8.00063,3.57229 -8.89757,1.23493 z M 268.48,234.56 c -2.84488,-2.84488 4.03338,-10.95716 15.66418,-18.47451 6.98099,-4.51204 9.44093,-5.44438 10.79417,-4.09114 2.11689,2.11689 -0.40037,5.60976 -8.42167,11.68565 -4.53087,3.432 -9.78689,7.428 -11.68004,8.88 -3.456,2.65066 -5.16749,3.18915 -6.35664,2 z m -24,-24 c -1.51784,-1.51784 -0.27962,-3.74149 5.34526,-9.59922 10.18731,-10.60902 25.36747,-20.58856 29.1247,-19.14677 3.68598,1.41444 0.4998,5.97952 -8.30245,11.89553 -2.41587,1.6237 -8.42129,6.2233 -13.34538,10.22133 -8.31353,6.75002 -11.20588,8.24538 -12.82213,6.62913 z m 72.59264,-7.44999 c -8.23504,-8.39679 -8.74082,-10.48923 -3.56636,-14.75446 5.32095,-4.38598 22.80891,-10.71683 29.67896,-10.74415 2.3252,-0.01 4.0838,1.29471 9.33039,6.91828 7.26527,7.78731 9.32144,11.49679 7.55347,13.62706 -0.61851,0.74526 -5.94025,2.93954 -11.8261,4.87618 -5.88584,1.93665 -12.32715,4.3505 -14.31403,5.36413 -6.70812,3.42223 -9.02865,2.69439 -16.85633,-5.28704 z m -89.2063,-4.87216 c -1.1703,-3.04974 0.87071,-6.27154 8.59246,-13.56349 13.98037,-13.20221 27.86156,-21.47853 47.21935,-28.15338 12.40009,-4.27573 14.98332,-4.63217 16.89317,-2.33094 1.10258,1.32853 0.96921,1.80687 -0.93334,3.34746 -1.22085,0.98859 -4.01484,2.25584 -6.20885,2.81612 -16.30506,4.16376 -37.27042,16.07274 -51.21836,29.09362 -10.84432,10.12356 -13.26393,11.60636 -14.34443,8.79061 z m -15.26006,-13.97242 c -1.42428,-2.30452 0.90105,-5.84558 7.94437,-12.09781 10.95293,-9.72272 15.80621,-13.44609 23.02534,-17.6647 6.84469,-3.99981 10.5171,-4.73976 11.45057,-2.30716 0.829,2.16034 -1.47011,4.24147 -11.62762,10.52521 -5.00367,3.09542 -13.21948,9.43751 -18.25736,14.09354 -8.8651,8.19314 -11.21379,9.58918 -12.5353,7.45092 z m 109.99037,86.22083 c 24.36988,-18.26979 49.88539,-32.46994 74.71813,-41.58285 12.8163,-4.70322 13.66723,-5.15675 9.72522,-5.18315 -6.64244,-0.0445 -21.62435,2.49289 -31.10106,5.26739 -20.99423,6.14648 -36.87635,15.62406 -53.0025,31.62896 -8.80422,8.73805 -19.57644,22.56926 -19.57644,25.13559 0,0.31478 1.85249,-1.13524 4.11665,-3.22227 2.26416,-2.08703 9.06816,-7.50668 15.12,-12.04367 z"
       style="fill:#000000;stroke-width:0.959999" />
  </g>
</svg>
