<?xml version="1.0" encoding="UTF-8" standalone="no"?>
<svg
   xmlns:dc="http://purl.org/dc/elements/1.1/"
   xmlns:cc="http://creativecommons.org/ns#"
   xmlns:rdf="http://www.w3.org/1999/02/22-rdf-syntax-ns#"
   xmlns:svg="http://www.w3.org/2000/svg"
   xmlns="http://www.w3.org/2000/svg"
   xmlns:xlink="http://www.w3.org/1999/xlink"
   xmlns:sodipodi="http://sodipodi.sourceforge.net/DTD/sodipodi-0.dtd"
   xmlns:inkscape="http://www.inkscape.org/namespaces/inkscape"
   inkscape:version="1.0 (4035a4fb49, 2020-05-01)"
   sodipodi:docname="education_schoolYears_alt.svg"
   viewBox="0 0 480 480"
   height="480"
   width="480"
   id="svg104"
   version="1.1">
  <metadata
     id="metadata110">
    <rdf:RDF>
      <cc:Work
         rdf:about="">
        <dc:format>image/svg+xml</dc:format>
        <dc:type
           rdf:resource="http://purl.org/dc/dcmitype/StillImage" />
        <dc:title></dc:title>
      </cc:Work>
    </rdf:RDF>
  </metadata>
  <defs
     id="defs108" />
  <sodipodi:namedview
     inkscape:current-layer="g112"
     inkscape:window-maximized="0"
     inkscape:window-y="838"
     inkscape:window-x="1724"
     inkscape:cy="240"
     inkscape:cx="240"
     inkscape:zoom="0.63326848"
     showgrid="false"
     id="namedview106"
     inkscape:window-height="480"
     inkscape:window-width="727"
     inkscape:pageshadow="2"
     inkscape:pageopacity="0"
     guidetolerance="10"
     gridtolerance="10"
     objecttolerance="10"
     borderopacity="1"
     bordercolor="#666666"
     pagecolor="#ffffff" />
  <g
     id="g112"
     inkscape:label="Image"
     inkscape:groupmode="layer">
    <image
       sodipodi:absref="C:\Users\chris\Pictures\Saved Pictures\Asset collection III - Epicons\education_schoolYears_alt.png"
       xlink:href="education_schoolYears_alt.png"
       width="480"
       height="480"
       preserveAspectRatio="none"
       id="image114" />
    <path
       id="path418"
       d="M 113.38389,314.64789 C 81.91075,283.36823 55.794604,257.19661 55.348008,256.48875 51.135555,249.8119 72.744143,221.11915 94.08,205.05886 c 22.58181,-16.99817 46.05317,-25.16425 75.36,-26.219 l 15.36,-0.55281 4.8,-6.78975 c 17.51006,-24.76855 52.38311,-47.08697 81.92605,-52.4319 19.51607,-3.53086 41.91593,-2.96449 47.81289,1.20892 5.38575,3.81162 102.12599,100.51078 102.26779,102.22436 0.40059,4.84098 -1.30103,5.99246 -15.24408,10.31552 -4.33254,1.34331 -13.25601,4.98074 -19.82993,8.08317 -27.62157,13.03544 -53.00778,29.57086 -73.57272,47.92191 -12.82458,11.44398 -14.28632,12.47068 -18.57501,13.04677 -26.65146,3.58 -82.4106,34.62365 -111.63767,62.15376 -4.9068,4.62191 -8.764,7.50019 -10.05102,7.50019 -1.47723,0 -18.83739,-16.64591 -59.31241,-56.87211 z M 197.76,341.50724 c 19.46444,-14.52854 53.64527,-33.14588 75.53192,-41.14011 l 10.38808,-3.79431 -7.92995,0.53688 c -29.758,2.01471 -60.24985,16.64632 -81.28169,39.0033 -6.63107,7.04888 -14.94836,17.95952 -14.94836,19.60931 0,0.34521 2.484,-1.50276 5.52,-4.1066 3.036,-2.60386 8.76,-7.15267 12.72,-10.10847 z m 16.95051,-48.80186 c 3.61322,-1.63604 12.83349,-5.07906 20.48949,-7.65116 9.25661,-3.10983 14.02679,-5.18319 14.23877,-6.18889 1.01068,-4.795 -32.29161,5.58019 -42.46544,13.22992 -1.70436,1.28153 -1.47703,3.58475 0.35384,3.58475 0.44762,0 3.77012,-1.33858 7.38334,-2.97462 z M 135.26348,279.604 c 4.37189,-4.8818 9.20611,-9.77121 10.74271,-10.86537 3.25177,-2.31547 3.78122,-5.69863 0.8918,-5.69863 -3.84392,0 -23.05799,20.12652 -23.05799,24.15298 0,3.63183 3.39383,1.3772 11.42348,-7.58898 z m 152.54966,6.25735 c 0.35616,-1.84939 -95.70515,-99.15299 -98.88275,-100.16153 -2.45585,-0.77946 -3.02184,-0.0965 -2.16287,2.6099 1.00498,3.16639 97.45578,99.81887 99.26323,99.47079 0.80696,-0.15541 1.60903,-1.01903 1.78239,-1.91916 z m 34.78351,-15.37509 c 24.36988,-18.26979 49.88539,-32.46994 74.71813,-41.58285 12.8163,-4.70322 13.66723,-5.15675 9.72522,-5.18315 -6.64244,-0.0445 -21.62435,2.49289 -31.10106,5.26739 -20.99423,6.14648 -36.87635,15.62406 -53.0025,31.62896 -8.80422,8.73805 -19.57644,22.56926 -19.57644,25.13559 0,0.31478 1.85249,-1.13524 4.11665,-3.22227 2.26416,-2.08703 9.06816,-7.50668 15.12,-12.04367 z m -100.94015,2.2382 c 3.48892,-1.00954 8.8275,-2.53361 11.8635,-3.38682 5.39274,-1.51552 7.29046,-3.75851 4.18739,-4.94927 -3.15796,-1.21182 -26.50739,5.86826 -26.50739,8.03765 0,2.63079 2.18094,2.69304 10.4565,0.29844 z M 116.66003,261.3551 c 8.81794,-8.51457 19.07486,-16.40468 28.77997,-22.13893 3.696,-2.18378 7.368,-4.37058 8.16,-4.85956 1.27452,-0.78687 1.26815,-1.06773 -0.0555,-2.44399 -1.37383,-1.42849 -2.03746,-1.26909 -8.16,1.95989 -10.40761,5.48891 -20.21451,12.61278 -29.46573,21.40433 -8.7729,8.337 -10.82595,10.96595 -9.82656,12.583 1.17968,1.90875 3.04103,0.76303 10.56777,-6.50474 z m 80.32614,1.40114 c 7.67822,-3.04646 17.89368,-6.28564 26.45383,-8.38814 5.35673,-1.31569 5.59438,-3.8081 0.36309,-3.8081 -5.01463,0 -20.3907,3.99723 -27.48309,7.14462 -7.97856,3.54064 -10.12011,5.07384 -9.46643,6.77729 0.74475,1.94078 1.0024,1.8969 10.1326,-1.72567 z M 101.28,250.49098 c 20.7595,-20.91836 42.88971,-33.31644 69.54214,-38.95985 11.3165,-2.39617 13.25006,-3.20211 12.10956,-5.04749 -2.1591,-3.49348 -30.29767,3.76801 -47.0917,12.15259 -15.79431,7.88545 -30.90602,19.45708 -40.124738,30.7251 -5.299614,6.47771 -6.760967,9.84023 -4.275262,9.83722 0.66,-8.1e-4 5.087999,-3.91921 9.84,-8.70757 z M 290.35758,238.515 c 6.76221,-7.60043 7.97421,-10.035 4.99571,-10.035 -1.28411,0 -10.9269,9.61346 -13.45452,13.41361 -0.86832,1.30547 -1.57877,2.92547 -1.57877,3.6 0,2.92067 3.22487,0.67858 10.03758,-6.97861 z m -10.00756,-13.49462 c 6.84749,-6.1268 12.44998,-11.5268 12.44998,-12 0,-1.63951 -4.44041,-0.85033 -7.31246,1.29962 -11.00436,8.2376 -20.15313,17.96928 -19.20812,20.43195 0.29718,0.77443 0.78339,1.40805 1.08047,1.40805 0.29709,0 6.14264,-5.01283 12.99013,-11.13962 z m 55.9243,-16.66466 c 5.12271,-2.09235 12.88065,-4.75813 17.23985,-5.92397 8.73862,-2.33706 10.32583,-3.18596 10.32583,-5.52263 0,-2.35778 -11.19682,-14.30522 -15.43073,-16.46521 -2.03103,-1.03614 -4.95766,-1.88391 -6.50364,-1.88391 -6.5201,0 -29.8385,8.33991 -32.42814,11.59806 -3.26422,4.10684 -2.73208,5.45081 5.49589,13.88045 5.00591,5.1286 8.67522,8.12149 9.95705,8.12149 1.11641,0 6.22117,-1.71193 11.34389,-3.80428 z m -80.94852,-4.8639 c 4.30208,-3.7115 10.83898,-8.75436 14.52644,-11.20635 6.54956,-4.35516 8.15593,-7.07244 4.58729,-7.75969 -3.86848,-0.745 -30.59953,20.46497 -30.59953,24.27945 0,3.01572 3.94867,1.18903 11.4858,-5.31341 z m -17.12389,-13.47318 c 16.53714,-14.61499 30.28476,-22.70681 50.51809,-29.73486 6.94515,-2.41239 8.88,-3.47659 8.88,-4.88413 0,-1.1889 -0.68499,-1.79965 -2.0184,-1.79965 -2.98689,0 -17.99308,5.20804 -26.12465,9.06681 -18.76949,8.90689 -44.41248,29.75907 -42.55355,34.60339 0.30599,0.79739 0.75803,1.4498 1.00454,1.4498 0.2465,0 4.87879,-3.91562 10.29397,-8.70136 z M 224.16,174.65759 c 8.36961,-7.48542 19.16518,-15.23513 28.56,-20.50209 4.46581,-2.50364 6.07421,-5.3555 3.02038,-5.3555 -2.42801,0 -14.48824,6.6678 -22.7773,12.59301 -13.39194,9.57286 -23.56392,21.0305 -18.64308,20.99941 0.66,-0.004 5.088,-3.48484 9.84,-7.73483 z"
       style="fill:#000000;stroke-width:0.959999" />
  </g>
</svg>
