<?xml version="1.0" encoding="UTF-8" standalone="no"?>
<svg
   xmlns:dc="http://purl.org/dc/elements/1.1/"
   xmlns:cc="http://creativecommons.org/ns#"
   xmlns:rdf="http://www.w3.org/1999/02/22-rdf-syntax-ns#"
   xmlns:svg="http://www.w3.org/2000/svg"
   xmlns="http://www.w3.org/2000/svg"
   xmlns:xlink="http://www.w3.org/1999/xlink"
   xmlns:sodipodi="http://sodipodi.sourceforge.net/DTD/sodipodi-0.dtd"
   xmlns:inkscape="http://www.inkscape.org/namespaces/inkscape"
   inkscape:version="1.0 (4035a4fb49, 2020-05-01)"
   sodipodi:docname="exercise_bike.svg"
   viewBox="0 0 480 480"
   height="480"
   width="480"
   id="svg116"
   version="1.1">
  <metadata
     id="metadata122">
    <rdf:RDF>
      <cc:Work
         rdf:about="">
        <dc:format>image/svg+xml</dc:format>
        <dc:type
           rdf:resource="http://purl.org/dc/dcmitype/StillImage" />
        <dc:title></dc:title>
      </cc:Work>
    </rdf:RDF>
  </metadata>
  <defs
     id="defs120" />
  <sodipodi:namedview
     inkscape:current-layer="g124"
     inkscape:window-maximized="0"
     inkscape:window-y="834"
     inkscape:window-x="1785"
     inkscape:cy="240"
     inkscape:cx="240"
     inkscape:zoom="0.63326848"
     showgrid="false"
     id="namedview118"
     inkscape:window-height="480"
     inkscape:window-width="728"
     inkscape:pageshadow="2"
     inkscape:pageopacity="0"
     guidetolerance="10"
     gridtolerance="10"
     objecttolerance="10"
     borderopacity="1"
     bordercolor="#666666"
     pagecolor="#ffffff" />
  <g
     id="g124"
     inkscape:label="Image"
     inkscape:groupmode="layer">
    <image
       sodipodi:absref="C:\Users\chris\Pictures\Saved Pictures\Asset collection III - Epicons\exercise_bike.png"
       xlink:href="exercise_bike.png"
       width="480"
       height="480"
       preserveAspectRatio="none"
       id="image126"
       x="0"
       y="0" />
    <path
       id="path420"
       d="M 105.6,348.91102 C 97.800874,347.24077 83.823419,340.34842 76.567865,334.59513 69.665364,329.12178 63.467571,321.30167 58.660195,312 c -6.224417,-12.04347 -7.279666,-16.808 -7.229119,-32.64 0.03973,-12.44535 0.315396,-14.7336 2.602119,-21.6 3.740741,-11.23241 8.73243,-19.11423 17.951817,-28.3457 13.935101,-13.95336 29.701268,-20.48344 49.454988,-20.48344 15.37698,0 27.8193,3.8778 40.8,12.71582 l 4.32,2.94132 19.91523,-19.89401 L 206.39047,184.8 205.19523,175.22333 204,165.64667 l -4.18237,-0.71075 c -2.30031,-0.39091 -4.81279,-1.23396 -5.58331,-1.87342 -3.84766,-3.19328 -5.54059,-11.9169 -2.76039,-14.22426 1.86173,-1.5451 5.02573,-0.42906 6.90205,2.43457 1.51662,2.31465 1.61443,2.32719 18.15193,2.32719 9.14491,0 17.68049,0.40049 18.96795,0.88999 3.42484,1.30212 4.31562,5.76363 1.59122,7.96971 -1.73322,1.40347 -3.99863,1.7003 -12.97678,1.7003 -5.98234,0 -11.07003,0.324 -11.30597,0.72 -0.23593,0.396 0.0644,3.69518 0.66739,7.33152 0.94206,5.68115 1.43351,6.73808 3.49231,7.51089 1.4417,0.54117 21.8555,0.69463 51.25487,0.38533 48.76489,-0.51304 48.86325,-0.51812 51.12,-2.63823 2.52997,-2.37678 2.77993,-5.7052 1.63735,-21.80203 L 320.35249,146.88 h -9.03935 c -8.57392,0 -12.3495,-0.88405 -13.93844,-3.26371 -1.32714,-1.98758 -0.7359,-5.30809 1.12219,-6.30252 2.76105,-1.47766 27.42609,-1.29991 28.61634,0.20623 0.52157,0.66 1.23478,11.60326 1.58491,24.31835 l 0.63659,23.11835 4.18959,11.7386 c 2.30427,6.45623 4.42864,11.97766 4.72081,12.26984 0.29218,0.29218 2.82256,-0.0428 5.62305,-0.74432 7.37438,-1.84735 24.83244,-1.59028 32.39628,0.47704 25.33608,6.92474 43.25168,24.30556 51.06647,49.54214 2.90071,9.36736 3.16696,27.80743 0.54013,37.40962 -6.54353,23.91948 -23.94977,42.01802 -48.19106,50.10779 -5.83669,1.94781 -8.54971,2.23784 -20.64,2.20647 -12.50466,-0.0325 -14.70087,-0.29839 -21.6,-2.61544 -11.26081,-3.78192 -19.12783,-8.77095 -28.42547,-18.0266 -6.87489,-6.84386 -9.01471,-9.75354 -12.71898,-17.295 -6.22792,-12.67931 -7.78138,-19.22945 -7.72846,-32.58684 0.0494,-12.44142 1.59409,-19.54838 6.57306,-30.24 6.15076,-13.20785 17.59368,-25.31023 30.36947,-32.11965 3.1297,-1.66812 5.69038,-3.3853 5.69038,-3.81594 0,-3.11085 -8.64467,-23.10441 -9.9897,-23.10441 -0.6438,0 -22.08955,21.00892 -47.65724,46.68649 -25.56768,25.67757 -47.55331,47.38557 -48.85694,48.24 -1.86484,1.22226 -5.60339,1.62613 -17.53318,1.8941 C 192.20962,285.31646 192,285.35084 192,287.46703 c 0,1.18021 -0.83804,5.42255 -1.86231,9.42741 -3.69396,14.44325 -12.86303,28.96159 -23.85161,37.76672 -7.23737,5.79929 -21.1137,12.52367 -29.48608,14.28877 -8.31947,1.75394 -22.91335,1.73574 -31.2,-0.0389 z m 31.68,-10.49205 c 19.90403,-5.26113 37.6145,-22.81248 42.69275,-42.30918 0.80698,-3.09824 1.46725,-6.83841 1.46725,-8.31149 V 285.12 l -28.56,-0.0106 c -31.34492,-0.0116 -35.36556,-0.33865 -36.78577,-2.99231 -1.62273,-3.0321 1.06956,-6.50709 21.90716,-28.27611 10.95523,-11.44492 19.91861,-21.26445 19.91861,-21.82118 0,-0.55675 -3.07892,-2.66834 -6.84205,-4.69244 -30.59143,-16.45441 -68.662236,-4.44484 -83.735268,26.41458 -4.566219,9.34854 -6.227616,16.65785 -6.150259,27.05803 0.117452,15.79086 6.527412,30.72887 18.190609,42.39206 9.655853,9.65586 19.268027,14.23287 35.816968,17.0549 4.01268,0.68427 16.48068,-0.34795 22.08,-1.82799 z m 237.6,-2.08969 c 15.23269,-3.83708 30.65506,-16.72537 38.47134,-32.15005 10.8085,-21.32956 7.0468,-48.90523 -9.04275,-66.28911 -10.79688,-11.66544 -25.58222,-18.77117 -40.94859,-19.6796 -7.56088,-0.44698 -19.10244,0.73192 -20.46043,2.08991 -0.2573,0.2573 2.00344,7.27897 5.02387,15.6037 14.07575,38.79469 16.39897,46.26489 14.86529,47.79856 -3.2348,3.23481 -4.47691,0.63266 -20.25729,-42.43794 -7.70647,-21.03387 -6.40048,-20.00037 -16.66457,-13.18746 -20.74995,13.77304 -30.76168,40.43386 -24.45045,65.11054 2.57722,10.07679 6.86355,17.7228 14.50785,25.87925 15.68602,16.73696 36.66058,22.87829 58.95573,17.2622 z M 181.44,273.3217 c 0,-4.73414 -2.62109,-13.89128 -5.79744,-20.25418 -3.21351,-6.43732 -8.611,-13.95371 -10.0518,-13.99784 -0.53307,-0.0163 -9.38492,8.39432 -19.67076,18.69032 l -18.70154,18.72 H 154.32924 181.44 Z m 35.79875,2.4383 c 0.39331,-0.72231 0.0191,-4.13099 -4.45231,-40.56 -1.32858,-10.824 -2.92564,-24.108 -3.54902,-29.52 -0.62337,-5.412 -1.46838,-9.84 -1.87778,-9.84 -0.40941,0 -8.32799,7.78592 -17.59685,17.30202 l -16.85249,17.30203 4.89906,6.45797 c 2.69447,3.5519 6.11576,9.04998 7.60287,12.21798 2.90767,6.19427 6.58777,19.32955 6.58777,23.51357 0,1.41153 0.288,2.85443 0.64,3.20643 0.88554,0.88554 24.11413,0.80999 24.59875,-0.08 z m 88.95941,-87.02253 c 0.0244,-0.50313 -9.05863,-0.60635 -21.79816,-0.24772 -12.012,0.33815 -32.316,0.61829 -45.12,0.62253 L 216,189.12 v 2.88745 c 0,1.58809 0.86148,9.04009 1.91439,16.56 1.05292,7.5199 2.99905,23.39255 4.32475,35.27255 1.32569,11.88 2.68,22.88573 3.00958,24.45718 0.58217,2.7758 1.74286,1.69581 40.75342,-37.92 22.08481,-22.42745 40.17301,-41.16532 40.19602,-41.63971 z"
       style="fill:#000000;stroke-width:0.96" />
  </g>
</svg>
