<?xml version="1.0" encoding="UTF-8" standalone="no"?>
<svg
   xmlns:dc="http://purl.org/dc/elements/1.1/"
   xmlns:cc="http://creativecommons.org/ns#"
   xmlns:rdf="http://www.w3.org/1999/02/22-rdf-syntax-ns#"
   xmlns:svg="http://www.w3.org/2000/svg"
   xmlns="http://www.w3.org/2000/svg"
   xmlns:xlink="http://www.w3.org/1999/xlink"
   xmlns:sodipodi="http://sodipodi.sourceforge.net/DTD/sodipodi-0.dtd"
   xmlns:inkscape="http://www.inkscape.org/namespaces/inkscape"
   inkscape:version="1.0 (4035a4fb49, 2020-05-01)"
   sodipodi:docname="gaming.svg"
   viewBox="0 0 480 480"
   height="480"
   width="480"
   id="svg10"
   version="1.1">
  <metadata
     id="metadata16">
    <rdf:RDF>
      <cc:Work
         rdf:about="">
        <dc:format>image/svg+xml</dc:format>
        <dc:type
           rdf:resource="http://purl.org/dc/dcmitype/StillImage" />
        <dc:title></dc:title>
      </cc:Work>
    </rdf:RDF>
  </metadata>
  <defs
     id="defs14" />
  <sodipodi:namedview
     inkscape:current-layer="g18"
     inkscape:window-maximized="0"
     inkscape:window-y="666"
     inkscape:window-x="1967"
     inkscape:cy="240"
     inkscape:cx="240"
     inkscape:zoom="1.8354167"
     showgrid="false"
     id="namedview12"
     inkscape:window-height="480"
     inkscape:window-width="732"
     inkscape:pageshadow="2"
     inkscape:pageopacity="0"
     guidetolerance="10"
     gridtolerance="10"
     objecttolerance="10"
     borderopacity="1"
     bordercolor="#666666"
     pagecolor="#ffffff" />
  <g
     id="g18"
     inkscape:label="Image"
     inkscape:groupmode="layer">
    <image
       sodipodi:absref="C:\Users\chris\Pictures\Saved Pictures\Asset collection III - Epicons\gaming.png"
       xlink:href="gaming.png"
       width="480"
       height="480"
       preserveAspectRatio="none"
       id="image20"
       x="0"
       y="0" />
    <path
       id="path22"
       d="m 365.0746,364.41122 c -9.65264,-3.12153 -19.70394,-11.88353 -23.54254,-20.52268 -2.51272,-5.6551 -4.45052,-23.5333 -4.52098,-41.71025 l -0.0511,-13.18171 -2.64,-0.53283 c -13.66144,-2.7573 -23.25481,-7.90695 -32.88502,-17.65246 -8.1359,-8.23332 -13.39489,-17.50426 -15.9803,-28.17129 l -1.57056,-6.48 h -44.82467 -44.82467 l -1.65951,6 c -5.22446,18.88918 -22.86764,36.12743 -42.58745,41.61002 l -5.9878,1.66476 -0.14416,11.12261 c -0.0793,6.11744 -0.21867,16.95461 -0.30975,24.08261 -0.18659,14.60454 -1.32984,19.11055 -7.0327,27.71865 -8.16368,12.32258 -24.48303,18.70959 -39.721524,15.54609 C 84.651773,361.38447 72.751311,350.66385 69.013061,338.88 67.150271,333.00804 66.978692,329.12941 66.104038,273.12 64.211966,151.95922 64.192709,159.69576 66.40513,152.16 74.077439,126.02722 94.921709,108.02109 121.44,104.61865 c 4.224,-0.54197 8.53389,-1.12258 9.57755,-1.29024 1.07414,-0.17257 2.13424,-1.308 2.44301,-2.61663 L 134.00604,98.4 166.84302,98.147395 199.68,97.89479 v 2.36397 2.36396 l 31.48507,0.28865 c 40.33272,0.36974 42.23499,0.26097 42.61938,-2.43699 L 274.08,98.4 308.48668,98.147779 c 33.77858,-0.247613 34.4159,-0.21695 34.91196,1.68 0.38915,1.488081 1.30705,1.933061 3.99332,1.935881 6.29856,0.007 19.68359,2.63388 26.42295,5.18644 6.32491,2.39558 15.78245,8.1089 20.61177,12.45162 7.97022,7.16715 16.39836,22.26454 18.76878,33.62066 2.0337,9.74293 3.66944,156.6099 1.92275,172.63577 -1.33659,12.26325 -3.75163,19.57448 -8.38288,25.37811 -7.87246,9.86534 -16.39729,14.11752 -28.97533,14.45285 -5.29965,0.14129 -10.20401,-0.27544 -12.6854,-1.07789 z M 149.68776,254.91736 c 7.60664,-3.93355 12.88845,-12.86777 12.80673,-21.66266 -0.0875,-9.41013 -4.66842,-17.06009 -12.97033,-21.65972 -4.32958,-2.39878 -6.06413,-2.79155 -12.24416,-2.77258 -5.48483,0.0168 -8.12686,0.51301 -11.09079,2.08283 -5.10741,2.70511 -9.83442,7.53003 -12.04527,12.29477 -2.16162,4.65862 -2.40732,14.50544 -0.47722,19.12481 1.70226,4.07409 7.73278,10.79672 11.37448,12.67992 6.1595,3.1852 18.40202,3.1418 24.64656,-0.0874 z m 202.87567,-2.1874 c 5.62164,-3.1381 10.60619,-9.5552 12.29566,-15.82941 3.2136,-11.93438 -5.47841,-25.99467 -18.26595,-29.54719 -8.49525,-2.36008 -17.51705,0.11912 -23.99055,6.59262 -10.21194,10.21194 -10.20681,24.62123 0.0124,34.84042 8.06367,8.06366 19.79928,9.60899 29.94846,3.94356 z m -41.00792,-67.47191 c 2.78384,-1.7205 3.18662,-2.51418 3.53217,-6.96 0.58491,-7.52546 0.57647,-7.53331 -7.76508,-7.21632 L 300,171.36 l -0.30316,4.243 c -0.42196,5.90562 0.28744,7.97914 3.38408,9.89145 3.47324,2.14488 4.67587,2.11134 8.47459,-0.2364 z m -131.02234,-0.9665 c 2.35329,-1.25945 4.74683,-5.85696 4.74683,-9.11772 0,-3.85691 -4.79547,-8.13383 -9.12,-8.13383 -7.12554,0 -11.62846,8.47146 -7.57728,14.25533 2.54132,3.62824 8.14453,5.03308 11.95045,2.99622 z M 325.44,167.04123 c 2.76754,-0.0206 3.74087,-0.613 5.52,-3.35965 1.188,-1.83406 2.16,-3.74195 2.16,-4.23976 0,-0.49782 -1.455,-2.44787 -3.23336,-4.33347 -2.89136,-3.06574 -3.75443,-3.42835 -8.16,-3.42835 H 316.8 v 7.52 c 0,4.136 0.31302,7.83301 0.69559,8.21559 0.38258,0.38257 1.57058,0.46047 2.64,0.17311 1.06943,-0.28737 3.45641,-0.53373 5.30441,-0.54747 z M 295.48038,159.6 295.2,152.16 l -5.89507,-0.28308 c -5.78978,-0.27803 -5.93125,-0.22457 -7.92,2.9933 -2.6221,4.24264 -2.55251,5.63547 0.4604,9.21612 2.26275,2.68912 2.99719,2.95366 8.20039,2.95366 h 5.71504 z m -133.48188,2.16583 c 3.15428,-3.66708 2.89419,-8.54083 -0.64466,-12.07967 -3.67807,-3.67809 -8.34765,-3.79813 -12.48018,-0.32083 -2.45929,2.06936 -2.95366,3.17984 -2.95366,6.63467 0,3.48977 0.48848,4.56036 3.07309,6.73517 2.57396,2.16583 3.70418,2.50119 6.95851,2.06469 2.56611,-0.34418 4.61933,-1.37439 6.0469,-3.03403 z m 36.74072,1.90423 c 5.59826,-2.89497 6.52198,-9.43656 1.97462,-13.9839 -3.67807,-3.67809 -8.34765,-3.79813 -12.48018,-0.32083 -4.10836,3.45695 -4.17065,8.92537 -0.1475,12.94851 3.15547,3.15548 6.37987,3.56597 10.65306,1.35622 z m -17.20438,-18.81159 c 3.80366,-4.07183 3.79597,-8.63535 -0.021,-12.45231 -3.67807,-3.67809 -8.34765,-3.79813 -12.48018,-0.32083 -4.10836,3.45695 -4.17065,8.92537 -0.1475,12.94851 3.96282,3.96284 8.84627,3.89513 12.64868,-0.17537 z M 314.4,140.31202 v -6.088 l -3.88022,-2.29151 -3.88022,-2.29151 -3.55978,2.53283 c -3.46997,2.46892 -3.55978,2.68739 -3.55978,8.65988 v 6.12705 l 7.44,-0.28038 7.44,-0.28038 z"
       style="fill:#000000;stroke-width:0.96" />
  </g>
</svg>
