<?xml version="1.0" encoding="UTF-8" standalone="no"?>
<svg
   xmlns:dc="http://purl.org/dc/elements/1.1/"
   xmlns:cc="http://creativecommons.org/ns#"
   xmlns:rdf="http://www.w3.org/1999/02/22-rdf-syntax-ns#"
   xmlns:svg="http://www.w3.org/2000/svg"
   xmlns="http://www.w3.org/2000/svg"
   xmlns:xlink="http://www.w3.org/1999/xlink"
   xmlns:sodipodi="http://sodipodi.sourceforge.net/DTD/sodipodi-0.dtd"
   xmlns:inkscape="http://www.inkscape.org/namespaces/inkscape"
   inkscape:version="1.0 (4035a4fb49, 2020-05-01)"
   sodipodi:docname="intelligence2.svg"
   viewBox="0 0 480 480"
   height="480"
   width="480"
   id="svg52"
   version="1.1">
  <metadata
     id="metadata58">
    <rdf:RDF>
      <cc:Work
         rdf:about="">
        <dc:format>image/svg+xml</dc:format>
        <dc:type
           rdf:resource="http://purl.org/dc/dcmitype/StillImage" />
        <dc:title></dc:title>
      </cc:Work>
    </rdf:RDF>
  </metadata>
  <defs
     id="defs56" />
  <sodipodi:namedview
     inkscape:current-layer="g60"
     inkscape:window-maximized="0"
     inkscape:window-y="40"
     inkscape:window-x="0"
     inkscape:cy="240"
     inkscape:cx="240"
     inkscape:zoom="2.1"
     showgrid="false"
     id="namedview54"
     inkscape:window-height="480"
     inkscape:window-width="725"
     inkscape:pageshadow="2"
     inkscape:pageopacity="0"
     guidetolerance="10"
     gridtolerance="10"
     objecttolerance="10"
     borderopacity="1"
     bordercolor="#666666"
     pagecolor="#ffffff" />
  <g
     id="g60"
     inkscape:label="Image"
     inkscape:groupmode="layer">
    <image
       sodipodi:absref="C:\Users\chris\Pictures\Saved Pictures\Asset collection III - Epicons\intelligence2.png"
       xlink:href="intelligence2.png"
       width="480"
       height="480"
       preserveAspectRatio="none"
       id="image62" />
    <path
       id="path64"
       d="m 223.84675,435.80272 c -23.77017,-2.99279 -49.00133,-13.1704 -67.88625,-27.38361 -9.59281,-7.21976 -25.02693,-23.53719 -31.34841,-33.14253 -10.5781,-16.07315 -17.82683,-33.67084 -21.57784,-52.38441 -2.64901,-13.21571 -2.3949,-39.90259 0.50483,-53.01745 6.26271,-28.32485 18.78112,-51.43419 38.577,-71.21423 14.67278,-14.66104 33.62781,-26.82414 51.65435,-33.14568 5.04805,-1.77024 5.15231,-1.76921 6.49294,0.0642 0.74938,1.02483 1.21937,2.29277 1.04442,2.81763 -0.17495,0.52485 -3.74478,2.29514 -7.93295,3.93397 -36.72537,14.3706 -64.83247,43.26487 -78.4328,80.62938 -2.55784,7.02724 -5.98736,20.4758 -5.37659,21.0839 0.19501,0.19415 9.21055,0.47131 20.03455,0.6159 l 19.68,0.2629 0.129,-13.19036 c 0.071,-7.2547 0.29394,-13.35528 0.49551,-13.55686 0.69885,-0.69884 80.54434,-0.7666 81.23819,-0.0689 0.38351,0.38562 0.6973,6.38739 0.6973,13.33729 v 12.63616 l 8.88,0.27603 8.88,0.27602 v -13.95602 -13.95603 h 40.32 40.32 v 13.44 13.44 h 21.25048 21.2505 l -0.57564,-4.19972 c -1.03684,-7.56454 -6.51036,-22.95845 -11.97964,-33.69188 -15.94298,-31.28806 -43.97255,-55.1883 -77.25703,-65.87552 -9.23494,-2.96522 -9.45859,-3.10561 -8.85354,-5.55747 0.9316,-3.77513 1.80963,-4.19898 5.38435,-2.59918 1.79328,0.80256 7.81752,3.20047 13.3872,5.32869 17.87071,6.82858 37.71672,20.15246 50.36282,33.81176 18.35126,19.82154 29.68373,42.064 35.61556,69.90332 2.66022,12.48497 2.42263,39.32517 -0.46739,52.8 -12.21379,56.94727 -54.35403,98.94147 -110.85582,110.47164 -11.19625,2.28479 -32.78058,3.18024 -43.6551,1.81108 z m 38.48454,-7.20018 c 20.04361,-3.50608 40.73559,-12.0873 56.6343,-23.48693 10.3916,-7.45095 26.37892,-23.87723 33.17864,-34.08965 14.89752,-22.37437 22.38874,-46.75864 22.61624,-73.61701 0.0711,-8.40313 -0.26879,-14.42344 -0.84047,-14.88335 -0.528,-0.42477 -10.572,-0.63259 -22.32,-0.46183 l -21.36,0.31048 -7.6e-4,9.77287 c -6.8e-4,8.75425 -0.28577,10.37324 -2.73528,15.53288 -3.01688,6.35474 -9.75487,13.2203 -15.21271,15.50074 -2.61468,1.09248 -8.14908,1.47515 -23.22203,1.60566 l -19.78922,0.17135 -4.8,-2.76611 c -6.83273,-3.93753 -9.99637,-7.10107 -12.59204,-12.59164 -1.98344,-4.19552 -2.27038,-6.22507 -2.27858,-16.11603 l -0.009,-11.31602 -8.88,0.27602 -8.88,0.27603 -0.51558,12.96 c -0.58745,14.76674 -1.2296,16.58208 -8.10869,22.923 -7.13601,6.57775 -8.33486,6.83822 -31.42489,6.82762 -19.48318,-0.009 -20.65803,-0.11516 -25.32892,-2.29008 -6.39134,-2.97602 -11.56085,-8.24352 -14.59558,-14.87226 -2.18486,-4.77235 -2.42333,-6.41453 -2.25129,-15.50283 l 0.19243,-10.16507 -20.70382,0.0598 -20.70382,0.0598 -0.57247,2.27346 c -0.99696,3.95925 0.49134,31.99832 2.08309,39.24485 11.95476,54.4247 54.36301,95.05915 108.96954,104.41169 10.27848,1.76041 33.25953,1.73531 43.45129,-0.0474 z M 228.96,392.3034 c -4.90783,-2.28814 -7.89757,-4.89937 -6.52662,-5.70037 1.62083,-0.94698 38.68662,-1.81361 38.68662,-0.90453 0,1.21181 -6.26627,5.50432 -10.76916,7.37708 -5.51149,2.29223 -15.599,1.92808 -21.39084,-0.77218 z m -13.80818,-76.22248 c 1.9095,-1.18749 4.7175,-3.99549 6.24,-6.24 L 224.16,305.76 l 0.28628,-24.86572 c 0.15746,-13.67614 -0.0825,-25.23446 -0.53315,-25.68515 -0.45069,-0.45069 -15.59153,-0.53124 -33.64629,-0.17898 L 157.44,255.67063 v 23.06159 c 0,21.42319 0.1424,23.35575 2.00439,27.20212 2.29758,4.74616 8.56092,10.50346 12.83744,11.80026 1.605,0.48669 11.12617,0.79951 21.15817,0.69514 17.06653,-0.17753 18.46335,-0.32864 21.71182,-2.34882 z m -34.47506,-3.92094 c -6.77669,-2.41861 -11.36533,-6.29895 -14.9755,-12.66386 C 163.0527,294.82656 162.72,293.38295 162.72,286.56 c 0,-6.71135 0.35767,-8.3257 2.83579,-12.79941 10.96607,-19.79687 38.58537,-19.04069 48.53374,1.32878 3.13865,6.42643 3.1809,16.2326 0.0976,22.64821 -6.1664,12.83079 -20.58392,19.0359 -33.51037,14.4224 z m 19.31899,-8.17298 c 7.78768,-4.56387 11.64681,-13.93314 9.31137,-22.60629 l -1.12623,-4.18251 -3.05045,2.89343 c -4.94212,4.68772 -9.1254,6.39922 -15.53044,6.35393 -6.42905,-0.0455 -10.7491,-1.8183 -15.56505,-6.38748 l -3.08503,-2.92696 -0.99497,2.61694 c -1.61815,4.25609 -1.16515,11.13417 1.0323,15.6735 5.25273,10.85069 18.45641,14.74938 29.0085,8.56544 z M 310.08,315.73562 c 5.36919,-3.22345 7.77988,-5.80858 10.19768,-10.93562 2.17881,-4.62029 2.26392,-5.65362 2.27294,-27.6 l 0.009,-22.8 H 290.0595 257.559 l -0.51724,23.76 c -0.56971,26.16994 -0.44691,26.96608 5.1403,33.32957 5.07202,5.77672 6.85349,6.19113 26.77794,6.22927 16.37332,0.0313 18.02235,-0.12352 21.12,-1.98322 z m -29.56324,-5.49564 c -6.77669,-2.41861 -11.36533,-6.29895 -14.9755,-12.66386 C 262.8927,292.90656 262.56,291.46295 262.56,284.64 c 0,-6.71135 0.35767,-8.3257 2.83579,-12.79941 10.96607,-19.79687 38.58537,-19.04069 48.53374,1.32878 3.13865,6.42643 3.1809,16.2326 0.0976,22.64821 -6.1664,12.83079 -20.58392,19.0359 -33.51037,14.4224 z m 19.31899,-8.17298 c 7.78768,-4.56387 11.64681,-13.93314 9.31137,-22.60629 l -1.12623,-4.18251 -3.05045,2.89343 c -4.94212,4.68772 -9.1254,6.39922 -15.53044,6.35393 -6.42905,-0.0455 -10.7491,-1.8183 -15.56505,-6.38748 l -3.08503,-2.92696 -0.99497,2.61694 c -1.61815,4.25609 -1.16515,11.13417 1.0323,15.6735 5.25273,10.85069 18.45641,14.74938 29.0085,8.56544 z m -69.63604,-90.79839 c -1.43016,-0.46273 -3.80616,-1.68139 -5.28,-2.70813 -1.47384,-1.02675 -4.10281,-2.34907 -5.84217,-2.93851 -6.87581,-2.33008 -13.16254,-8.22473 -14.17254,-13.28864 -0.70341,-3.52677 1.65022,-9.26077 4.66925,-11.37537 1.95347,-1.36827 1.95094,-1.38584 -0.47521,-3.29424 -5.68052,-4.46831 -5.84287,-12.05881 -0.37231,-17.4077 l 3.24214,-3.17003 -2.32361,-1.82776 c -4.96397,-3.90466 -6.39411,-9.93725 -3.62519,-15.29174 1.44615,-2.79656 1.43152,-3.03546 -0.24,-3.91777 -4.47559,-2.36243 -14.53841,-13.97561 -17.84699,-20.59664 -4.56148,-9.12828 -5.87779,-15.875427 -5.29239,-27.127804 1.28098,-24.622747 18.20682,-44.285205 42.56337,-49.445119 12.0027,-2.542762 23.00252,-1.142672 34.71183,4.41823 8.16106,3.87579 19.58789,15.064474 24.0124,23.511958 11.41744,21.798653 5.54485,51.979165 -12.78685,65.714535 l -4.09297,3.06673 1.83217,3.0047 c 2.97153,4.87317 2.42816,9.54744 -1.63235,14.04193 l -3.4717,3.84276 3.4717,3.84276 c 4.89937,5.42303 4.73289,11.11091 -0.49364,16.86484 -1.77522,1.95436 -1.76501,2.02556 0.61075,4.25748 1.32889,1.24843 2.85572,3.90221 3.39293,5.89729 1.80761,6.71293 -2.29396,12.3161 -12.5194,17.10278 -2.37541,1.11198 -6.20765,3.14817 -8.5161,4.52488 -4.56593,2.72302 -14.57067,3.90094 -19.52312,2.29858 z M 216.21804,106.07636 216.48,87.884776 l 3.68176,5.017612 c 2.02497,2.759686 4.17244,5.017612 4.77216,5.017612 0.59972,0 3.49334,-2.377856 6.43025,-5.284123 l 5.33984,-5.284124 3.58661,4.804124 c 1.97264,2.642267 4.10571,4.804123 4.74015,4.804123 0.63446,0 3.65008,-2.470476 6.70139,-5.489949 l 5.54784,-5.489948 0.0397,3.809948 c 0.11572,11.120929 1.07258,33.750569 1.47699,34.930479 0.33259,0.9704 0.76227,1.06456 1.49842,0.32841 0.7171,-0.7171 0.8167,-7.50527 0.32632,-22.24053 C 260.03479,85.182179 259.67896,81.6 258.51469,81.6 c -0.77048,0 -4.12279,2.613718 -7.44958,5.808261 l -6.0487,5.808261 -3.7082,-4.807369 c -2.03952,-2.644053 -4.20487,-4.825771 -4.81188,-4.848261 -0.60702,-0.02249 -3.36618,2.434649 -6.13147,5.460312 l -5.02778,5.501204 -2.50854,-3.33214 C 221.44884,89.357592 218.7108,86.12605 216.744,84.009064 L 213.16801,80.16 l -0.024,22.16 c -0.0132,12.188 0.2712,22.4552 0.632,22.816 1.69845,1.69844 2.1994,-2.21148 2.44203,-19.05964 z m -54.75984,37.7849 c 0.54288,-1.74122 27.61144,-10.85562 28.77731,-9.68975 1.46222,1.46222 -0.98149,2.7171 -12.15551,6.24202 -14.28515,4.50633 -17.13623,5.09771 -16.6218,3.44773 z m 137.25207,-4.65883 c -11.82933,-3.63162 -14.6598,-4.98811 -12.80291,-6.13574 0.86685,-0.53574 24.73871,6.14323 27.0396,7.56526 1.56428,0.96676 1.12016,2.4168 -0.70696,2.30821 -0.924,-0.0549 -7.01238,-1.73689 -13.52973,-3.73773 z M 157.68,105.36 c 0.28384,-0.85153 3.14133,-1.2 9.84,-1.2 6.69867,0 9.55616,0.34847 9.84,1.2 0.30333,0.91 -2.07467,1.2 -9.84,1.2 -7.76533,0 -10.14333,-0.29 -9.84,-1.2 z m 137.71054,0.59054 c -1.8757,-1.87569 0.2582,-2.31008 10.12946,-2.06198 6.37904,0.16033 10.8,0.66442 10.8,1.23144 0,1.09458 -19.87665,1.88335 -20.92946,0.83054 z M 175.2,74.117981 c -4.60824,-1.572543 -5.90451,-3.813957 -1.92,-3.319922 3.2325,0.400794 10.08,3.227657 10.08,4.161341 0,1.292291 -2.73319,1.010458 -8.16,-0.841419 z m 114.93895,-0.374836 c 0.35553,-1.066588 8.42565,-4.385339 11.06105,-4.548741 0.66,-0.04093 1.2,0.532987 1.2,1.275354 0,0.749258 -1.99803,2.030555 -4.49101,2.88 -5.32601,1.814753 -8.29391,1.965014 -7.77004,0.393387 z"
       style="fill:#000000;stroke-width:0.96" />
  </g>
</svg>
