<?xml version="1.0" encoding="UTF-8" standalone="no"?>
<svg
   xmlns:dc="http://purl.org/dc/elements/1.1/"
   xmlns:cc="http://creativecommons.org/ns#"
   xmlns:rdf="http://www.w3.org/1999/02/22-rdf-syntax-ns#"
   xmlns:svg="http://www.w3.org/2000/svg"
   xmlns="http://www.w3.org/2000/svg"
   xmlns:xlink="http://www.w3.org/1999/xlink"
   xmlns:sodipodi="http://sodipodi.sourceforge.net/DTD/sodipodi-0.dtd"
   xmlns:inkscape="http://www.inkscape.org/namespaces/inkscape"
   inkscape:version="1.0 (4035a4fb49, 2020-05-01)"
   sodipodi:docname="intelligence_alt.svg"
   viewBox="0 0 480 480"
   height="480"
   width="480"
   id="svg38"
   version="1.1">
  <metadata
     id="metadata44">
    <rdf:RDF>
      <cc:Work
         rdf:about="">
        <dc:format>image/svg+xml</dc:format>
        <dc:type
           rdf:resource="http://purl.org/dc/dcmitype/StillImage" />
        <dc:title></dc:title>
      </cc:Work>
    </rdf:RDF>
  </metadata>
  <defs
     id="defs42" />
  <sodipodi:namedview
     inkscape:current-layer="g46"
     inkscape:window-maximized="0"
     inkscape:window-y="40"
     inkscape:window-x="0"
     inkscape:cy="240"
     inkscape:cx="240"
     inkscape:zoom="2.1"
     showgrid="false"
     id="namedview40"
     inkscape:window-height="480"
     inkscape:window-width="725"
     inkscape:pageshadow="2"
     inkscape:pageopacity="0"
     guidetolerance="10"
     gridtolerance="10"
     objecttolerance="10"
     borderopacity="1"
     bordercolor="#666666"
     pagecolor="#ffffff" />
  <g
     id="g46"
     inkscape:label="Image"
     inkscape:groupmode="layer">
    <image
       sodipodi:absref="C:\Users\chris\Pictures\Saved Pictures\Asset collection III - Epicons\intelligence_alt.png"
       xlink:href="intelligence_alt.png"
       width="480"
       height="480"
       preserveAspectRatio="none"
       id="image48" />
    <path
       id="path50"
       d="m 235.68,442.89254 c -8.58899,-1.26502 -18.83563,-5.41289 -26.88,-10.88109 -2.112,-1.43564 -6,-3.32695 -8.64,-4.20292 -2.64,-0.87596 -7.85316,-3.28635 -11.58482,-5.35644 -19.67392,-10.91384 -27.02406,-26.22457 -19.65321,-40.93876 2.71731,-5.42449 8.91296,-12.87333 10.70752,-12.87333 1.89712,0 0.60151,-2.07596 -3.95634,-6.33931 -6.09791,-5.70388 -8.40029,-9.45078 -9.55782,-15.55442 -1.83789,-9.69113 3.19578,-20.83312 12.56783,-27.81879 l 4.78617,-3.56748 -2.21466,-1.38253 c -1.21807,-0.7604 -4.63793,-3.81406 -7.59969,-6.7859 -9.37071,-9.40262 -10.97217,-19.94582 -4.8367,-31.84225 1.68334,-3.26393 2.72786,-6.21698 2.32117,-6.56232 -0.40669,-0.34534 -5.38847,-4.1879 -11.07061,-8.53902 -40.44029,-30.96728 -56.59246,-85.84852 -39.97381,-135.82152 14.05165,-42.253893 49.8341,-73.473929 94.94497,-82.839065 11.10969,-2.3064 34.70067,-2.300848 46.34388,0.01091 38.2193,7.588417 71.23401,32.709396 88.494,67.335315 16.89933,33.90237 17.41475,74.09533 1.38424,107.94398 -8.84504,18.6764 -19.09526,31.95509 -33.12192,42.9079 -4.43311,3.46163 -8.0602,6.43059 -8.0602,6.59771 0,0.16712 1.50372,2.53838 3.34162,5.26948 4.1553,6.17475 5.65732,11.54689 5.00609,17.90481 -0.70951,6.92678 -3.74726,12.24451 -10.86616,19.02176 l -6.15765,5.86212 3.71894,2.85931 c 8.27084,6.35905 12.86889,14.30949 13.43718,23.23404 0.32648,5.12737 -0.0187,6.8511 -2.31012,11.5345 -1.48168,3.02844 -4.8171,7.6294 -7.41203,10.22433 -4.27992,4.27991 -4.55277,4.80752 -2.93797,5.68124 3.01453,1.63108 8.88067,8.22679 10.9845,12.35064 1.09979,2.15576 2.23454,6.19577 2.52166,8.9778 1.53093,14.83316 -10.47265,28.0702 -33.21813,36.63158 -3.44329,1.29605 -7.95418,3.88656 -10.02419,5.7567 -8.13411,7.34867 -28.4588,12.9721 -40.48374,11.20102 z M 189.95246,241.59368 c 0.73985,-0.89147 1.1443,-14.48045 1.31755,-44.26772 l 0.24999,-42.98137 6.64081,8.50771 c 8.61705,11.0395 13.0631,15.7077 14.96023,15.7077 0.84226,0 3.02259,-1.51283 4.84517,-3.36184 1.82258,-1.84902 7.47017,-7.23619 12.55019,-11.97148 l 9.23641,-8.60964 8.46623,10.97886 c 4.65643,6.03837 9.03264,11.1962 9.72492,11.46185 1.51844,0.58269 7.25602,-4.44809 19.6597,-17.23781 5.10602,-5.26494 9.48021,-9.35827 9.72043,-9.09627 0.24022,0.26198 0.71803,20.23487 1.06181,44.3842 0.34378,24.14932 0.8758,44.56132 1.18228,45.36 0.80059,2.08631 3.94402,1.78891 5.16283,-0.48844 1.27284,-2.37832 0.1964,-95.55539 -1.13377,-98.13943 -2.09221,-4.06446 -5.30738,-2.07313 -20.13632,12.47149 -13.7563,13.49255 -14.49292,14.0625 -15.81962,12.24 C 251.21158,157.719 240.49526,144.96 239.50654,144.96 c -0.6721,0 -6.66738,5.65222 -13.32284,12.56048 -6.65545,6.90826 -12.50419,12.41626 -12.9972,12.24 -0.49301,-0.17626 -6.13553,-6.93513 -12.53895,-15.01971 -9.42505,-11.89951 -12.04304,-14.64224 -13.74506,-14.4 L 184.8,140.64 l 0.21727,49.22063 c 0.20876,47.29554 0.539,53.01937 3.05896,53.01937 0.44477,0 1.28908,-0.57885 1.87623,-1.28632 z M 64.471042,285.50444 c 0.193913,-1.0182 2.46453,-2.95179 5.138208,-4.37552 6.936495,-3.6937 55.34052,-19.04892 60.04761,-19.04892 3.51263,0 3.88503,0.22283 3.60991,2.16 -0.20918,1.4728 -1.68117,2.81746 -4.62677,4.22652 -6.82264,3.26369 -53.688403,17.72548 -59.378208,18.32288 -4.676148,0.49097 -5.106963,0.37542 -4.79075,-1.28496 z M 409.88339,281.7676 c -2.35586,-0.63044 -10.54739,-2.96748 -18.20339,-5.19341 -35.12066,-10.2111 -39.36,-11.83799 -39.36,-15.10469 0,-2.61836 4.69997,-2.33723 16.40213,0.98111 25.94362,7.35672 46.51,14.11486 48.25021,15.85507 3.4409,3.44089 -0.31446,5.27484 -7.08895,3.46192 z M 58.56,198.85929 C 57.156155,198.451 56.038766,197.32761 55.867917,196.15271 55.378071,192.78418 59.98052,192 80.240759,192 c 18.487907,0 23.439241,0.67992 23.439241,3.21869 0,3.49036 -2.68372,3.97691 -22.94514,4.15995 C 69.858686,199.47694 59.88,199.24318 58.56,198.85929 Z m 318.24,-0.95688 c -2.25356,-0.50179 -2.88,-1.15919 -2.88,-3.02241 0,-3.30412 2.01175,-3.59186 26.05365,-3.72642 18.74343,-0.1049 20.46677,0.0283 22.56,1.74449 2.17666,1.78453 2.19858,1.927 0.55406,3.6 -1.53981,1.56646 -3.81236,1.75722 -22.56,1.89376 C 389.06147,198.47533 378.384,198.2551 376.8,197.90241 Z M 108,127.0287 c -1.056,-0.23571 -6.10413,-1.70152 -11.21807,-3.25734 -7.234711,-2.20103 -9.44113,-3.2795 -9.942732,-4.85991 -0.696785,-2.19538 0.764271,-3.67169 3.65855,-3.69675 2.972358,-0.0257 22.539992,6.68137 24.776802,8.49263 1.21652,0.98506 1.85144,2.22631 1.46154,2.8572 -0.67469,1.09166 -4.9155,1.31699 -8.73609,0.46417 z M 362.56,125.12 c -2.7052,-2.7052 3.39712,-6.17504 18.40941,-10.4678 8.19851,-2.34436 9.10061,-2.43361 10.49584,-1.03839 1.39522,1.39523 1.38222,1.68576 -0.1513,3.38028 -0.92274,1.01961 -6.35942,3.40906 -12.08152,5.30988 -9.94163,3.3025 -15.28367,4.20479 -16.67243,2.81603 z"
       style="fill:#000000;stroke-width:0.960001" />
  </g>
</svg>
