<?xml version="1.0" encoding="UTF-8" standalone="no"?>
<svg
   xmlns:dc="http://purl.org/dc/elements/1.1/"
   xmlns:cc="http://creativecommons.org/ns#"
   xmlns:rdf="http://www.w3.org/1999/02/22-rdf-syntax-ns#"
   xmlns:svg="http://www.w3.org/2000/svg"
   xmlns="http://www.w3.org/2000/svg"
   xmlns:xlink="http://www.w3.org/1999/xlink"
   xmlns:sodipodi="http://sodipodi.sourceforge.net/DTD/sodipodi-0.dtd"
   xmlns:inkscape="http://www.inkscape.org/namespaces/inkscape"
   inkscape:version="1.0 (4035a4fb49, 2020-05-01)"
   sodipodi:docname="intelligence.svg"
   viewBox="0 0 480 480"
   height="480"
   width="480"
   id="svg24"
   version="1.1">
  <metadata
     id="metadata30">
    <rdf:RDF>
      <cc:Work
         rdf:about="">
        <dc:format>image/svg+xml</dc:format>
        <dc:type
           rdf:resource="http://purl.org/dc/dcmitype/StillImage" />
        <dc:title></dc:title>
      </cc:Work>
    </rdf:RDF>
  </metadata>
  <defs
     id="defs28" />
  <sodipodi:namedview
     inkscape:current-layer="g32"
     inkscape:window-maximized="0"
     inkscape:window-y="40"
     inkscape:window-x="0"
     inkscape:cy="240"
     inkscape:cx="240"
     inkscape:zoom="2.1"
     showgrid="false"
     id="namedview26"
     inkscape:window-height="480"
     inkscape:window-width="725"
     inkscape:pageshadow="2"
     inkscape:pageopacity="0"
     guidetolerance="10"
     gridtolerance="10"
     objecttolerance="10"
     borderopacity="1"
     bordercolor="#666666"
     pagecolor="#ffffff" />
  <g
     id="g32"
     inkscape:label="Image"
     inkscape:groupmode="layer">
    <image
       sodipodi:absref="C:\Users\chris\Pictures\Saved Pictures\Asset collection III - Epicons\intelligence.png"
       xlink:href="intelligence.png"
       width="480"
       height="480"
       preserveAspectRatio="none"
       id="image34" />
    <path
       id="path36"
       d="m 227.04,440.74563 c -6.89628,-2.00852 -13.09764,-5.09622 -18.02806,-8.97627 -1.99544,-1.57033 -5.80036,-3.68055 -8.45538,-4.68938 -9.86259,-3.74749 -19.74475,-9.42114 -24.68706,-14.17359 -12.96011,-12.46227 -13.01291,-27.30861 -0.1446,-40.65926 2.61531,-2.71333 4.7551,-5.04963 4.7551,-5.19176 0,-0.14214 -2.20311,-2.31919 -4.89581,-4.83789 -8.47492,-7.92729 -11.41461,-16.40517 -8.95837,-25.83531 1.77861,-6.82853 6.00017,-12.93984 12.05734,-17.45469 l 4.78617,-3.56748 -2.21466,-1.38253 c -1.21807,-0.7604 -4.62782,-3.80366 -7.57724,-6.76281 -5.87388,-5.89329 -8.55743,-11.81067 -8.55743,-18.86966 0,-4.59523 3.15875,-13.94451 5.31625,-15.73509 0.77206,-0.64075 1.40375,-1.68234 1.40375,-2.31464 0,-0.63231 -4.82597,-4.77798 -10.72437,-9.2126 -41.22731,-30.99614 -57.79895,-86.20298 -41.0206,-136.65621 14.05165,-42.253893 49.8341,-73.473929 94.94497,-82.839065 11.10969,-2.3064 34.70067,-2.300848 46.34388,0.01091 38.2193,7.588417 71.23401,32.709396 88.494,67.335315 16.89933,33.90237 17.41475,74.09533 1.38424,107.94398 -8.84504,18.6764 -19.09526,31.95509 -33.12192,42.9079 -4.43311,3.46163 -8.0602,6.43059 -8.0602,6.59771 0,0.16712 1.49789,2.5297 3.32865,5.2502 8.57629,12.74432 6.82788,24.6316 -5.35944,36.4384 l -6.60602,6.39976 3.69929,2.84422 c 8.25046,6.34338 12.84977,14.30246 13.41754,23.21894 0.32648,5.12737 -0.0187,6.8511 -2.31012,11.5345 -1.48168,3.02844 -4.8171,7.6294 -7.41203,10.22433 -4.27992,4.27991 -4.55277,4.80752 -2.93797,5.68124 3.26207,1.76502 9.22641,8.65795 11.04086,12.75983 7.67017,17.3397 -3.77724,34.78346 -29.2809,44.6187 -4.47267,1.72485 -9.4096,4.45315 -11.53862,6.37658 -10.37875,9.37658 -33.35262,13.59665 -49.08124,9.01572 z m 28.41675,-6.00814 c 1.79479,-0.60639 5.49401,-2.98397 8.2205,-5.28353 3.69903,-3.11982 7.4758,-5.0503 14.88,-7.60581 19.1343,-6.60407 30.32056,-15.32481 33.5125,-26.12615 1.77305,-5.99984 -0.51093,-12.55953 -6.84897,-19.67067 -5.3897,-6.04709 -6.78275,-6.44763 -12.42078,-3.57133 -2.06993,1.056 -4.61922,1.92 -5.66509,1.92 -4.35905,0 -3.53676,-4.91522 1.13701,-6.79655 5.78403,-2.32824 15.0527,-8.70864 18.74596,-12.9044 3.64671,-4.14288 5.95088,-9.58427 5.93274,-14.01043 -0.0183,-4.46767 -4.36769,-11.78723 -9.67897,-16.2887 -7.74465,-6.56383 -8.05947,-6.66759 -13.94945,-4.59742 -7.21936,2.53739 -9.9622,2.40085 -9.9622,-0.49595 0,-1.95893 1.68358,-3.16638 11.54244,-8.27819 15.40306,-7.98646 21.13324,-14.50997 21.07112,-23.98836 -0.0267,-4.07295 -3.28239,-9.86985 -9.43741,-16.80366 -3.24288,-3.6532 -5.89615,-7.36297 -5.89615,-8.24392 0,-0.88096 2.484,-3.46501 5.52,-5.74233 17.6251,-13.22068 29.62459,-27.68954 37.14032,-44.78337 C 360.70653,162.78019 347.50648,108.60768 306.18007,75.542461 287.46086,60.565246 264.2086,52.8 238.08,52.8 c -18.70105,0 -31.81852,2.984385 -48.56221,11.048493 -27.8674,13.421517 -50.29972,41.012977 -58.70406,72.205247 -2.32007,8.61081 -2.53416,10.97247 -2.59137,28.58626 -0.059,18.16192 0.0818,19.71604 2.60398,28.74454 3.11606,11.15434 9.33814,24.7559 15.70747,34.33674 5.70259,8.57791 17.83731,20.95987 27.44376,28.00289 10.31289,7.56095 10.429,7.90864 5.26353,15.7602 -6.16598,9.37235 -7.4011,12.12589 -7.4011,16.49987 0,9.00406 7.52887,17.86856 20.16,23.73645 8.24824,3.83177 10.56,5.60677 10.56,8.1081 0,2.13728 -3.54213,2.35703 -10.02857,0.62218 -4.2706,-1.14222 -4.32315,-1.12614 -8.84482,2.70635 -2.50178,2.12047 -5.97472,5.9247 -7.71765,8.45386 -2.67851,3.88677 -3.1657,5.43656 -3.14788,10.01364 0.0389,9.97815 4.29278,15.94988 16.77892,23.55454 6.75248,4.11259 8.6982,6.78599 5.75957,7.91364 -0.87028,0.33396 -3.23734,0.061 -5.26014,-0.60659 -3.5839,-1.18279 -3.78848,-1.12129 -8.0117,2.40889 -13.35009,11.15929 -12.16603,25.81134 2.98492,36.93679 3.53987,2.59934 8.38264,5.44587 10.76173,6.3256 12.60392,4.66065 17.32704,6.8369 22.50928,10.37148 8.24934,5.62652 13.71723,7.24237 24.63309,7.27949 5.0692,0.0173 10.6852,-0.46479 12.48,-1.07117 z M 185.68211,241.2 c -0.41983,-0.924 -0.93809,-23.61949 -1.15169,-50.43443 C 184.1421,142.01708 184.29309,139.2 187.29426,139.2 c 1.17237,0 5.12065,4.56498 15.77587,18.24 5.14255,6.6 9.54129,12.21375 9.77498,12.475 0.23369,0.26125 6.0151,-5.24675 12.84759,-12.24 6.83247,-6.99325 13.03512,-12.715 13.78364,-12.715 1.11579,0 13.25452,14.23359 18.39019,21.56389 1.24401,1.77562 2.10661,1.10696 15.00667,-11.63257 15.68693,-15.49174 16.9682,-16.3985 19.77848,-13.99739 1.89603,1.61997 1.96749,3.0074 2.58285,50.14607 0.55889,42.8126 0.46016,48.70445 -0.8446,50.4 -1.18322,1.5376 -1.82328,1.70915 -3.2137,0.86134 -2.50652,-1.52835 -2.91901,-8.46682 -3.05699,-51.42282 -0.0656,-20.41682 -0.35792,-37.74351 -0.64966,-38.50374 -0.36277,-0.94537 -4.68654,2.82371 -13.68,11.92503 -7.23226,7.31901 -13.88112,13.30569 -14.77522,13.30374 -0.8976,-0.002 -4.55209,-3.73091 -8.16,-8.32627 -3.5939,-4.57749 -7.69306,-9.65349 -9.10926,-11.28 L 239.1702,155.04 227.25949,166.8 c -6.55088,6.468 -12.59285,11.76 -13.42658,11.76 -3.1856,0 -4.80356,-1.47227 -12.48168,-11.35777 -4.35118,-5.60209 -8.4787,-10.84636 -9.17227,-11.65392 -1.04342,-1.21492 -1.18228,5.80736 -0.8047,40.69196 0.25414,23.47866 0.079,43.15271 -0.39519,44.4 -1.00525,2.644 -4.19675,2.98124 -5.29696,0.55973 z M 64.471042,285.50444 c 0.193913,-1.0182 2.46453,-2.95179 5.138208,-4.37552 6.936495,-3.6937 55.34052,-19.04892 60.04761,-19.04892 3.51263,0 3.88503,0.22283 3.60991,2.16 -0.20918,1.4728 -1.68117,2.81746 -4.62677,4.22652 -6.82264,3.26369 -53.688403,17.72548 -59.378208,18.32288 -4.676148,0.49097 -5.106963,0.37542 -4.79075,-1.28496 z M 409.88339,281.7676 c -2.35586,-0.63044 -10.54739,-2.96748 -18.20339,-5.19341 -35.12066,-10.2111 -39.36,-11.83799 -39.36,-15.10469 0,-2.61836 4.69997,-2.33723 16.40213,0.98111 25.94362,7.35672 46.51,14.11486 48.25021,15.85507 3.4409,3.44089 -0.31446,5.27484 -7.08895,3.46192 z M 58.56,198.85929 C 57.156155,198.451 56.038766,197.32761 55.867917,196.15271 55.378071,192.78418 59.98052,192 80.240759,192 c 18.487907,0 23.439241,0.67992 23.439241,3.21869 0,3.49036 -2.68372,3.97691 -22.94514,4.15995 C 69.858686,199.47694 59.88,199.24318 58.56,198.85929 Z m 318.24,-0.95688 c -2.25356,-0.50179 -2.88,-1.15919 -2.88,-3.02241 0,-3.30412 2.01175,-3.59186 26.05365,-3.72642 18.74343,-0.1049 20.46677,0.0283 22.56,1.74449 2.17666,1.78453 2.19858,1.927 0.55406,3.6 -1.53981,1.56646 -3.81236,1.75722 -22.56,1.89376 C 389.06147,198.47533 378.384,198.2551 376.8,197.90241 Z M 108,127.0287 c -1.056,-0.23571 -6.10413,-1.70152 -11.21807,-3.25734 -7.234711,-2.20103 -9.44113,-3.2795 -9.942732,-4.85991 -0.696785,-2.19538 0.764271,-3.67169 3.65855,-3.69675 2.972358,-0.0257 22.539992,6.68137 24.776802,8.49263 1.21652,0.98506 1.85144,2.22631 1.46154,2.8572 -0.67469,1.09166 -4.9155,1.31699 -8.73609,0.46417 z M 362.56,125.12 c -2.7052,-2.7052 3.39712,-6.17504 18.40941,-10.4678 8.19851,-2.34436 9.10061,-2.43361 10.49584,-1.03839 1.39522,1.39523 1.38222,1.68576 -0.1513,3.38028 -0.92274,1.01961 -6.35942,3.40906 -12.08152,5.30988 -9.94163,3.3025 -15.28367,4.20479 -16.67243,2.81603 z"
       style="fill:#000000;stroke-width:0.960001" />
  </g>
</svg>
