<?xml version="1.0" encoding="UTF-8" standalone="no"?>
<svg
   xmlns:dc="http://purl.org/dc/elements/1.1/"
   xmlns:cc="http://creativecommons.org/ns#"
   xmlns:rdf="http://www.w3.org/1999/02/22-rdf-syntax-ns#"
   xmlns:svg="http://www.w3.org/2000/svg"
   xmlns="http://www.w3.org/2000/svg"
   xmlns:xlink="http://www.w3.org/1999/xlink"
   xmlns:sodipodi="http://sodipodi.sourceforge.net/DTD/sodipodi-0.dtd"
   xmlns:inkscape="http://www.inkscape.org/namespaces/inkscape"
   inkscape:version="1.0 (4035a4fb49, 2020-05-01)"
   sodipodi:docname="mh_anxiety2.svg"
   viewBox="0 0 480 480"
   height="480"
   width="480"
   id="svg80"
   version="1.1">
  <metadata
     id="metadata86">
    <rdf:RDF>
      <cc:Work
         rdf:about="">
        <dc:format>image/svg+xml</dc:format>
        <dc:type
           rdf:resource="http://purl.org/dc/dcmitype/StillImage" />
        <dc:title></dc:title>
      </cc:Work>
    </rdf:RDF>
  </metadata>
  <defs
     id="defs84" />
  <sodipodi:namedview
     inkscape:current-layer="g88"
     inkscape:window-maximized="0"
     inkscape:window-y="40"
     inkscape:window-x="0"
     inkscape:cy="240"
     inkscape:cx="240"
     inkscape:zoom="2.1"
     showgrid="false"
     id="namedview82"
     inkscape:window-height="480"
     inkscape:window-width="725"
     inkscape:pageshadow="2"
     inkscape:pageopacity="0"
     guidetolerance="10"
     gridtolerance="10"
     objecttolerance="10"
     borderopacity="1"
     bordercolor="#666666"
     pagecolor="#ffffff" />
  <g
     id="g88"
     inkscape:label="Image"
     inkscape:groupmode="layer">
    <image
       sodipodi:absref="C:\Users\chris\Pictures\Saved Pictures\Asset collection III - Epicons\mh_anxiety2.png"
       xlink:href="mh_anxiety2.png"
       width="480"
       height="480"
       preserveAspectRatio="none"
       id="image90" />
    <path
       id="path92"
       d="M 186.24,417.95842 C 124.18424,410.10268 77.760398,368.16025 64.681463,308.13422 62.17,296.60782 62.134983,266.05411 64.61988,254.4 c 12.143845,-56.9544 53.29908,-97.68572 111.01524,-109.87177 14.85468,-3.13638 37.45689,-3.39585 51.88487,-0.59563 14.9606,2.9036 35.81163,11.68928 49.92,21.03407 38.60818,25.57239 61.45036,68.22896 61.43614,114.72873 -0.0205,67.19914 -46.73832,123.44647 -113.3471,136.46782 -7.8417,1.53297 -32.4708,2.65832 -39.28903,1.7952 z m 35.99999,-7.70532 c 35.89855,-5.56897 69.08701,-27.3085 89.50072,-58.62588 9.03246,-13.85703 15.18965,-29.12214 19.08138,-47.30722 2.41522,-11.28574 2.46689,-37.4148 0.0972,-49.16142 -8.24944,-40.89299 -34.3169,-74.98253 -71.33809,-93.29187 -18.40727,-9.10356 -36.22791,-13.05212 -58.94123,-13.05974 -32.00839,-0.0108 -60.87108,10.55435 -85.43999,31.27498 -16.768178,14.14175 -31.384191,35.20765 -38.764918,55.87148 -2.904873,8.13276 -2.63514,8.50932 5.412603,7.55619 9.915738,-1.17438 16.737497,-7.84414 18.978725,-18.55585 1.25286,-5.98793 2.92174,-7.78847 5.15188,-5.55834 2.1007,2.10069 1.96045,9.50979 -0.27308,14.42733 -5.20684,11.46379 -19.958714,19.37451 -29.758757,15.9582 -1.759994,-0.61354 -3.163594,-0.671 -3.489991,-0.14288 -1.67494,2.71011 -3.592598,19.23385 -3.616487,31.16192 -0.07368,36.78914 13.971856,69.5105 40.819215,95.09498 30.55546,29.11816 69.58206,41.02855 112.58081,34.35812 z M 173.8344,369.42111 c -3.98519,-1.53023 -7.02356,-3.85911 -12.96001,-9.93371 -8.4931,-8.69078 -11.3055,-10.48653 -17.99427,-11.48957 -10.04836,-1.50685 -20.396,4.52226 -25.54197,14.88217 -1.85344,3.73137 -3.25554,5.36997 -4.78042,5.58677 -5.77229,0.82065 0.13724,-16.05889 7.82879,-22.36154 7.86532,-6.44505 17.48397,-8.58521 26.63227,-5.92573 7.00269,2.03574 12.0748,5.63479 18.0167,12.78424 6.49291,7.81241 11.66779,10.40065 20.72451,10.3654 10.98643,-0.0428 18.68158,-5.54274 22.86466,-16.3421 4.06012,-10.48201 8.61978,-5.63945 4.98734,5.29681 -2.13684,6.43341 -7.98065,12.75096 -15.07325,16.29517 -4.95759,2.47734 -6.95849,2.9331 -12.69208,2.89095 -4.48555,-0.0329 -8.58182,-0.73163 -12.01227,-2.04886 z M 102.24,298.25653 C 91.93591,293.27028 86.10627,284.23814 86.016059,273.12 85.924749,261.86574 91.211797,253.12768 101.28,247.89287 c 6.99757,-3.63829 17.10758,-3.6405 24.50925,-0.006 6.25488,3.07192 9.46113,6.22957 12.8503,12.65549 2.04113,3.87004 2.47879,5.99535 2.47107,12 -0.0114,8.9198 -2.59435,15.18877 -8.42263,20.44271 -6.09461,5.49402 -9.41594,6.83097 -17.96799,7.23278 -6.61292,0.3107 -8.34692,0.0381 -12.48,-1.96194 z M 122.94319,291.12 c 5.46102,-2.76854 10.17606,-8.77764 10.71458,-13.65522 0.24158,-2.18822 -0.13039,-2.42509 -4.72472,-3.00868 -2.74283,-0.3484 -6.94996,-1.58374 -9.34919,-2.74519 -5.10297,-2.4703 -11.50755,-9.35644 -13.05057,-14.03183 -1.29966,-3.93802 -2.69421,-4.09677 -6.661726,-0.75832 -8.771109,7.3804 -9.735811,20.36568 -2.169697,29.20497 6.741933,7.87645 15.958893,9.70012 25.241323,4.99427 z m 80.85527,6.50429 c -9.59671,-4.8546 -14.66336,-12.44405 -15.3975,-23.06429 -1.34975,-19.52616 16.74432,-33.88903 35.73709,-28.36768 10.66452,3.10026 19.70194,15.20264 19.70194,26.38368 0,9.7859 -5.95065,19.85262 -14.47912,24.49441 -4.03352,2.19531 -6.67113,2.87372 -12.3641,3.18011 -6.61365,0.35594 -7.7501,0.1298 -13.19831,-2.62623 z m 21.91709,-6.54674 c 5.53718,-2.89266 10.10492,-8.89262 10.63761,-13.97305 0.27529,-2.62543 0.0307,-2.80072 -6.07847,-4.35652 -3.50092,-0.89157 -8.14824,-2.80092 -10.32738,-4.24302 -4.25466,-2.81559 -9.41286,-9.23753 -10.31871,-12.84673 -0.80304,-3.19949 -2.69014,-2.75411 -7.63219,1.80131 -5.1527,4.7496 -7.11642,8.93851 -7.11642,15.18046 0,8.51931 4.2738,15.2685 11.92429,18.8309 6.69184,3.11601 12.42172,2.99682 18.91127,-0.39335 z m 16.96508,-39.89298 c -12.18973,-3.4177 -19.96064,-13.47819 -19.96064,-25.84173 0,-6.22795 1.01006,-8.38284 3.92929,-8.38284 2.02877,0 2.78807,1.90863 2.80009,7.03852 0.012,5.10283 3.65028,12.95127 7.50905,16.19821 4.40179,3.70387 9.01135,4.92119 15.8633,4.18928 11.79436,-1.25984 11.65827,-1.27587 11.65827,1.37399 0,4.98049 -12.38827,8.0632 -21.79936,5.42457 z m 27.30306,-28.25561 c -4.62579,-4.32112 -4.59862,-6.59457 0.30687,-25.6823 4.76947,-18.55844 5.95051,-21.02924 8.81349,-18.43828 0.94811,0.85802 2.23165,3.42114 2.85232,5.69583 0.62067,2.27469 2.6664,9.54934 4.54606,16.1659 3.91285,13.77359 3.96998,14.35558 1.84811,18.82709 -1.93771,4.08342 -5.6574,6.1028 -11.24135,6.1028 -3.34087,0 -4.88631,-0.57931 -7.1255,-2.67104 z m 82.50644,24.09544 c -10.53731,-5.19252 -10.44113,-21.53838 0.15632,-26.5672 10.56126,-5.01164 21.75354,2.0414 21.75354,13.70842 0,10.57735 -12.11302,17.68642 -21.90986,12.85878 z m 6.13214,-37.33926 c -3.01613,-3.01614 -3.42264,-4.85008 -2.35683,-10.63296 1.54283,-8.37121 5.71928,-23.68228 6.83356,-25.05218 0.54375,-0.66848 3.09214,-1.2 5.75346,-1.2 10.93858,0 18.27377,-8.15516 16.08082,-17.87843 -1.66949,-7.40233 -6.89308,-11.51286 -16.3244,-12.84597 -8.14005,-1.15059 -12.44889,-4.47022 -12.44889,-9.59092 0,-9.52865 10.27515,-12.74285 25.44,-7.958 14.11376,4.45322 23.09575,17.16136 22.92358,32.43332 -0.16833,14.92828 -9.52794,27.49372 -24.28473,32.60265 -3.04185,1.05312 -3.42579,1.62883 -4.55737,6.83367 -2.38498,10.97004 -3.19041,12.927 -5.7155,13.88703 -3.71222,1.41139 -9.64708,1.09841 -11.3437,-0.59821 z m -68.30743,-45.42045 c -12.8496,-7.83561 -8.67094,-26.28682 6.27851,-27.72327 8.82764,-0.84822 16.36664,6.11531 16.36664,15.11734 0,4.48836 -4.04636,10.96485 -8.03234,12.85632 -4.42323,2.09896 -10.94333,1.98723 -14.61281,-0.25039 z m -2.93249,-34.77594 c -3.60504,-1.01617 -3.45065,-0.67047 -7.98068,-17.86935 -4.1849,-15.888576 -4.05559,-16.683848 3.33018,-20.481184 6.3951,-3.287989 9.10814,-7.415935 9.10814,-13.858216 0,-5.955314 -2.6095,-10.415945 -7.66502,-13.102453 -4.53693,-2.410922 -9.11991,-2.234289 -16.15039,0.622453 -7.98745,3.245592 -10.91984,3.129785 -14.01926,-0.553656 -5.11061,-6.073626 -1.97793,-12.826426 8.40738,-18.122915 5.92432,-3.021394 7.24555,-3.31818 14.8452,-3.334656 10.70476,-0.0232 17.98919,3.017859 25.00955,10.440865 7.78653,8.233108 9.23436,11.849518 9.24416,23.090362 0.008,8.347348 -0.3177,10.295232 -2.49064,14.928074 -1.37446,2.93044 -4.68947,7.48424 -7.36668,10.119546 l -4.86764,4.79147 1.87204,6.68046 c 2.3915,8.53416 2.0967,12.6806 -1.0587,14.89077 -3.17222,2.22196 -6.52572,2.79908 -10.21764,1.75843 z"
       style="fill:#000000;stroke-width:0.96" />
  </g>
</svg>
