<?xml version="1.0" encoding="UTF-8" standalone="no"?>
<svg
   xmlns:dc="http://purl.org/dc/elements/1.1/"
   xmlns:cc="http://creativecommons.org/ns#"
   xmlns:rdf="http://www.w3.org/1999/02/22-rdf-syntax-ns#"
   xmlns:svg="http://www.w3.org/2000/svg"
   xmlns="http://www.w3.org/2000/svg"
   xmlns:xlink="http://www.w3.org/1999/xlink"
   xmlns:sodipodi="http://sodipodi.sourceforge.net/DTD/sodipodi-0.dtd"
   xmlns:inkscape="http://www.inkscape.org/namespaces/inkscape"
   inkscape:version="1.0 (4035a4fb49, 2020-05-01)"
   sodipodi:docname="mh_anxiety.svg"
   viewBox="0 0 480 480"
   height="480"
   width="480"
   id="svg66"
   version="1.1">
  <metadata
     id="metadata72">
    <rdf:RDF>
      <cc:Work
         rdf:about="">
        <dc:format>image/svg+xml</dc:format>
        <dc:type
           rdf:resource="http://purl.org/dc/dcmitype/StillImage" />
        <dc:title></dc:title>
      </cc:Work>
    </rdf:RDF>
  </metadata>
  <defs
     id="defs70" />
  <sodipodi:namedview
     inkscape:current-layer="g74"
     inkscape:window-maximized="0"
     inkscape:window-y="40"
     inkscape:window-x="0"
     inkscape:cy="240"
     inkscape:cx="240"
     inkscape:zoom="2.1"
     showgrid="false"
     id="namedview68"
     inkscape:window-height="480"
     inkscape:window-width="729"
     inkscape:pageshadow="2"
     inkscape:pageopacity="0"
     guidetolerance="10"
     gridtolerance="10"
     objecttolerance="10"
     borderopacity="1"
     bordercolor="#666666"
     pagecolor="#ffffff" />
  <g
     id="g74"
     inkscape:label="Image"
     inkscape:groupmode="layer">
    <image
       sodipodi:absref="C:\Users\chris\Pictures\Saved Pictures\Asset collection III - Epicons\mh_anxiety.png"
       xlink:href="mh_anxiety.png"
       width="480"
       height="480"
       preserveAspectRatio="none"
       id="image76" />
    <path
       id="path78"
       d="M 217.53279,431.86674 C 180.28055,427.08664 143.97216,411.20512 115.18898,387.10092 86.479737,363.05863 64.901825,329.79298 54.185725,293.05505 45.435924,263.05817 44.575743,225.38007 51.9225,193.92 67.127575,128.80925 117.21678,74.464066 181.44,53.397664 c 7.128,-2.338116 19.872,-5.644799 28.32,-7.348184 14.30379,-2.884099 16.64726,-3.092214 34.08,-3.026513 24.49029,0.0923 41.20241,2.502604 55.11105,7.94839 5.32892,2.086487 13.14495,5.128779 17.36895,6.76065 42.80131,16.535553 80.40793,51.580583 101.33014,94.427993 28.76162,58.90206 26.07225,127.74225 -7.1991,184.27506 -30.98776,52.6527 -85.07452,87.93563 -146.42586,95.51938 -9.5593,1.18164 -37.0036,1.12987 -46.49239,-0.0876 z m 44.34504,-8.55993 C 337.3698,415.10183 401.38196,360.98181 421.91625,288 447.56228,196.8502 400.75343,101.17858 313.12249,65.638822 289.91844,56.22815 266.83564,52.176753 241.92,53.141659 c -24.4479,0.946793 -35.12133,2.217968 -48,5.71666 -47.81028,12.98841 -86.63556,42.655411 -112.377417,85.869341 -8.58529,14.41248 -18.218849,37.53142 -16.982124,40.75428 0.715319,1.86409 15.526593,0.62957 19.96297,-1.6639 9.374015,-4.8461 14.282063,-11.73464 16.762571,-23.52656 2.03108,-9.65543 4.02637,-11.68206 7.60657,-7.726 2.4985,2.76081 2.9095,8.61364 1.05737,15.05734 -3.12819,10.88323 -10.747005,19.83715 -21.190498,24.90386 -4.986957,2.41944 -6.825961,2.77856 -14.359442,2.80407 -4.752,0.0161 -9.589438,-0.31671 -10.749863,-0.73953 -2.458006,-0.89563 -2.949995,0.44866 -5.727204,15.64878 -2.324126,12.72033 -2.331913,44.80624 -0.01398,57.6 3.929988,21.69143 8.8517,36.62353 18.241712,55.34393 27.325075,54.47664 82.724345,93.05455 143.689335,100.05967 10.4566,1.20151 31.2766,1.23281 42.03783,0.0632 z M 213.6,366.75677 c -12.54332,-2.70682 -19.96322,-7.49105 -29.67334,-19.13287 -7.31276,-8.76754 -12.74539,-12.03349 -22.78357,-13.69688 -10.25773,-1.69975 -22.23484,2.5003 -29.87713,10.47712 -1.4348,1.49762 -4.44882,6.15935 -6.69781,10.35941 -3.40132,6.35207 -4.52738,7.68699 -6.69513,7.93699 -2.13075,0.24572 -2.72206,-0.16166 -3.24209,-2.23363 -1.65113,-6.57865 6.00709,-22.78806 13.84194,-29.29787 8.84678,-7.3506 21.85655,-11.07484 33.22337,-9.51067 6.47881,0.89154 17.81558,6.14592 22.14376,10.26321 1.584,1.50683 5.83987,6.07986 9.4575,10.16229 7.03719,7.94136 11.94037,11.05385 20.6444,13.10488 14.53315,3.42461 31.1198,-4.80176 37.72206,-18.70875 1.50399,-3.168 2.73487,-6.53563 2.73528,-7.48363 4.1e-4,-0.948 1.14138,-2.86427 2.53549,-4.25837 l 2.53472,-2.53473 1.87942,2.32099 c 1.53453,1.89505 1.76568,3.17834 1.25967,6.99292 -1.92385,14.50266 -12.82216,27.9225 -26.97685,33.21844 -6.07887,2.27441 -16.44945,3.22578 -22.03169,2.02115 z M 107.7946,265.48728 c -18.348668,-5.7344 -30.740453,-25.66973 -27.335914,-43.97676 3.214042,-17.28267 15.568327,-29.50201 32.917584,-32.55802 11.43228,-2.01376 21.99073,1.38446 33.97213,10.9339 8.71405,6.94527 10.45912,11.44784 10.524,27.1536 0.0434,10.49555 -0.17737,11.99979 -2.48216,16.91521 -4.56839,9.74301 -13.26966,17.5228 -23.55677,21.06208 -6.34545,2.18316 -17.83817,2.40786 -24.03887,0.46999 z m 24.32382,-11.37985 c 2.70512,-1.37311 6.68671,-4.50545 8.84798,-6.96078 3.73599,-4.24431 8.38417,-14.11915 7.3975,-15.71563 -0.25413,-0.41118 -3.32626,-1.01506 -6.82697,-1.34196 -7.39568,-0.69063 -15.23593,-3.98782 -21.30195,-8.95846 -4.61934,-3.78521 -10.32316,-11.79656 -11.31403,-15.89122 -1.08966,-4.50289 -2.621,-4.89774 -6.91928,-1.78408 -19.690819,14.26395 -15.282908,43.87152 7.75748,52.10639 6.86153,2.45238 15.80939,1.87041 22.35927,-1.45426 z M 252.96,265.53394 c -17.49043,-5.54601 -28.32,-19.88983 -28.32,-37.50999 0,-16.84372 9.48968,-30.96618 24.96,-37.1453 7.49139,-2.99219 20.37246,-2.96653 28.08201,0.056 11.61117,4.55208 19.81372,13.78292 23.74312,26.71958 1.85425,6.10472 1.95802,7.55405 1.02245,14.28054 -1.78776,12.85354 -7.80461,22.49841 -18.12107,29.04765 -8.66831,5.50294 -22.18195,7.46391 -31.36651,4.55158 z m 21.29424,-10.32158 c 7.40654,-2.77114 14.75966,-10.06894 17.02881,-16.90067 2.5728,-7.74599 1.99353,-9.23493 -3.87134,-9.95079 -7.46622,-0.91132 -13.78972,-3.34786 -19.06877,-7.34749 -5.77876,-4.37823 -11.65672,-11.8761 -13.14951,-16.77341 -1.24306,-4.07802 -2.72707,-4.46267 -7.04897,-1.82702 -14.97908,9.13475 -18.62404,28.62981 -8.11283,43.39145 7.04912,9.89957 21.95588,13.9975 34.22261,9.40793 z m 25.14108,-58.6557 c -7.85141,-2.74502 -15.90433,-8.82769 -20.40585,-15.41332 -7.51551,-10.99501 -8.63271,-30.29181 -1.85229,-31.99359 3.83796,-0.96327 5.24661,1.3737 5.65411,9.38026 0.29004,5.69877 1.01504,8.39685 3.73806,13.91131 3.3722,6.82913 6.3584,9.89529 12.99065,13.33849 4.76836,2.47555 16.23296,2.97725 23.67225,1.03593 3.25174,-0.84855 6.56633,-1.29183 7.36577,-0.98506 4.26215,1.63554 1.7353,7.25065 -4.69997,10.4442 -5.97839,2.9668 -18.40446,3.09912 -26.46273,0.28178 z M 342.72,159.56023 c -1.848,-1.00943 -4.28198,-3.18509 -5.40885,-4.83481 -3.96568,-5.8057 -3.77204,-7.95627 3.01565,-33.49241 7.59131,-28.559451 8.61556,-30.627767 12.89328,-26.036169 1.97872,2.123917 2.81074,4.567127 7.70171,22.616159 1.54213,5.69085 3.68102,13.371 4.75309,17.067 2.53986,8.75628 2.49537,13.48742 -0.17067,18.14974 -3.25831,5.69807 -6.48614,7.62574 -13.43455,8.02319 -4.56373,0.26104 -6.78956,-0.0944 -9.34966,-1.4927 z"
       style="fill:#000000;stroke-width:0.96" />
  </g>
</svg>
