<?xml version="1.0" encoding="UTF-8" standalone="no"?>
<svg
   xmlns:dc="http://purl.org/dc/elements/1.1/"
   xmlns:cc="http://creativecommons.org/ns#"
   xmlns:rdf="http://www.w3.org/1999/02/22-rdf-syntax-ns#"
   xmlns:svg="http://www.w3.org/2000/svg"
   xmlns="http://www.w3.org/2000/svg"
   xmlns:xlink="http://www.w3.org/1999/xlink"
   xmlns:sodipodi="http://sodipodi.sourceforge.net/DTD/sodipodi-0.dtd"
   xmlns:inkscape="http://www.inkscape.org/namespaces/inkscape"
   inkscape:version="1.0 (4035a4fb49, 2020-05-01)"
   sodipodi:docname="mh_depression.svg"
   viewBox="0 0 480 480"
   height="480"
   width="480"
   id="svg94"
   version="1.1">
  <metadata
     id="metadata100">
    <rdf:RDF>
      <cc:Work
         rdf:about="">
        <dc:format>image/svg+xml</dc:format>
        <dc:type
           rdf:resource="http://purl.org/dc/dcmitype/StillImage" />
        <dc:title></dc:title>
      </cc:Work>
    </rdf:RDF>
  </metadata>
  <defs
     id="defs98" />
  <sodipodi:namedview
     inkscape:current-layer="g102"
     inkscape:window-maximized="0"
     inkscape:window-y="40"
     inkscape:window-x="0"
     inkscape:cy="240"
     inkscape:cx="240"
     inkscape:zoom="2.1"
     showgrid="false"
     id="namedview96"
     inkscape:window-height="480"
     inkscape:window-width="725"
     inkscape:pageshadow="2"
     inkscape:pageopacity="0"
     guidetolerance="10"
     gridtolerance="10"
     objecttolerance="10"
     borderopacity="1"
     bordercolor="#666666"
     pagecolor="#ffffff" />
  <g
     id="g102"
     inkscape:label="Image"
     inkscape:groupmode="layer">
    <image
       sodipodi:absref="C:\Users\chris\Pictures\Saved Pictures\Asset collection III - Epicons\mh_depression.png"
       xlink:href="mh_depression.png"
       width="480"
       height="480"
       preserveAspectRatio="none"
       id="image104" />
    <path
       id="path106"
       d="M 217.53279,431.86674 C 180.28055,427.08664 143.97216,411.20512 115.18898,387.10092 86.479737,363.05863 64.901825,329.79298 54.185725,293.05505 45.435924,263.05817 44.575743,225.38007 51.9225,193.92 67.127575,128.80925 117.21678,74.464066 181.44,53.397664 c 7.128,-2.338116 19.872,-5.644799 28.32,-7.348184 14.30379,-2.884099 16.64726,-3.092214 34.08,-3.026513 24.49029,0.0923 41.20241,2.502604 55.11105,7.94839 5.32892,2.086487 13.14495,5.128779 17.36895,6.76065 42.80131,16.535553 80.40793,51.580583 101.33014,94.427993 28.76162,58.90206 26.07225,127.74225 -7.1991,184.27506 -30.98776,52.6527 -85.07452,87.93563 -146.42586,95.51938 -9.5593,1.18164 -37.0036,1.12987 -46.49239,-0.0876 z m 44.34504,-8.55993 C 337.3698,415.10183 401.38196,360.98181 421.91625,288 447.56228,196.8502 400.75343,101.17858 313.12249,65.638822 289.91844,56.22815 266.83564,52.176753 241.92,53.141659 c -24.4479,0.946793 -35.12133,2.217968 -48,5.71666 C 136.26421,74.521415 90.93069,115.20608 68.563251,171.36 c -2.52378,6.336 -4.924908,13.248 -5.33584,15.36 -0.410934,2.112 -1.826688,8.33745 -3.146122,13.83433 -7.643547,31.84372 -4.722931,71.99882 7.546988,103.7624 C 90.88224,364.5151 142.41465,408.24946 204.96,420.86698 c 16.69812,3.36857 39.4137,4.34229 56.91783,2.43983 z m -55.03451,-45.72064 c -2.09152,-2.09152 -1.48385,-8.11052 1.4256,-14.12066 7.09178,-14.64964 24.93336,-23.84416 40.61108,-20.92858 13.30857,2.47497 24.01353,10.67485 29.64404,22.707 3.68222,7.86871 3.60052,13.3221 -0.20622,13.76461 -3.05235,0.35481 -3.90071,-0.72743 -5.99876,-7.65268 -3.20626,-10.5832 -13.99743,-19.22521 -25.68216,-20.56732 -13.50702,-1.55142 -28.07808,7.57432 -32.16796,20.14654 -1.55673,4.7854 -3.77504,8.26492 -5.26916,8.26492 -0.40845,0 -1.46886,-0.72622 -2.35646,-1.61383 z M 304.8,280.95119 c -6.56439,-2.16847 -10.34111,-4.56234 -16.44531,-10.4239 -8.56532,-8.22484 -11.33577,-14.7303 -11.36515,-26.68729 -0.0186,-7.56496 0.36507,-9.97853 2.25013,-14.15511 l 2.27256,-5.03513 -3.44247,-3.81041 c -6.0155,-6.65843 -10.39793,-17.20325 -8.23355,-19.81117 1.98421,-2.39084 3.55973,-1.45855 6.64337,3.93108 4.69241,8.20149 11.8338,15.40227 18.55559,18.70993 19.63453,9.66175 41.15834,2.51785 51.99919,-17.25889 4.57123,-8.33921 5.7982,-9.50917 7.83574,-7.47163 2.15567,2.15567 0.91338,8.04532 -3.10429,14.71732 -1.8072,3.00114 -3.28581,5.85065 -3.28581,6.33223 0,0.48159 1.0464,2.94059 2.32534,5.46445 9.84951,19.43709 1.38327,43.93663 -18.38109,53.19105 -5.54797,2.59776 -7.77454,3.08452 -15.14425,3.31075 -5.29563,0.16255 -10.12639,-0.22579 -12.48,-1.00328 z m -8.03601,-21.21528 c 11.68372,-5.31179 26.6665,-5.27942 37.99982,0.0821 l 5.34635,2.52923 1.75718,-2.29362 c 4.62222,-6.03332 6.07927,-18.74247 3.14819,-27.46007 -2.37653,-7.06828 -2.75644,-7.26777 -7.77683,-4.08394 -11.99226,7.60527 -28.27556,9.33885 -41.0787,4.37338 -3.696,-1.43342 -7.33828,-2.6865 -8.09394,-2.78461 -2.12566,-0.27597 -4.09709,7.53483 -3.61123,14.30771 0.39961,5.57065 4.80996,17.67391 6.44026,17.67391 0.39209,0 3.03309,-1.05484 5.8689,-2.34409 z m -133.85345,20.55352 c -15.38895,-3.87934 -27.27209,-17.05613 -29.48218,-32.69172 -0.96726,-6.8431 0.0649,-14.3909 2.81941,-20.61801 l 1.95471,-4.41896 -2.89208,-3.59882 c -3.21433,-3.99981 -6.6704,-12.2546 -6.6704,-15.93222 0,-1.83875 0.49837,-2.3897 2.16165,-2.3897 1.58362,0 2.77674,1.15947 4.4619,4.33602 4.16944,7.85947 12.9216,16.37522 20.86428,20.30071 6.5048,3.21485 7.89832,3.54584 14.57239,3.4613 15.05094,-0.19067 27.42095,-7.4682 35.26665,-20.74809 5.12552,-8.67564 6.04397,-9.62883 7.84093,-8.13748 2.55195,2.11793 0.75977,8.81019 -4.566,17.0502 l -3.86413,5.97856 2.40075,4.95939 c 6.43396,13.29104 3.00566,30.90674 -8.19474,42.10714 -6.89132,6.89132 -15.19958,10.50165 -25.14251,10.92561 -4.33464,0.18482 -9.52342,-0.0779 -11.53063,-0.58393 z M 160.32,254.9352 c 8.09532,-2.37477 19.54167,-2.08948 27.4823,0.68498 3.62874,1.26787 7.32664,2.62785 8.21757,3.02216 2.58957,1.1461 5.78965,-6.16311 6.3317,-14.46205 0.42668,-6.53242 -1.20621,-17.07607 -2.54989,-16.46481 -0.344,0.15648 -3.05268,1.49806 -6.01929,2.98127 -7.06349,3.53152 -14.43022,5.43776 -21.06883,5.45185 -6.72608,0.0143 -19.02646,-3.07921 -24.57553,-6.18065 l -4.2196,-2.35838 -1.07518,2.59521 c -1.64326,3.96645 -2.10655,16.24209 -0.78233,20.72954 0.64038,2.17013 2.02078,5.34789 3.06754,7.06171 l 1.90322,3.11601 4.00416,-2.31397 c 2.20229,-1.27269 6.38016,-3.01099 9.28416,-3.86287 z"
       style="fill:#000000;stroke-width:0.96" />
  </g>
</svg>
