<?xml version="1.0" encoding="UTF-8" standalone="no"?>
<svg
   xmlns:dc="http://purl.org/dc/elements/1.1/"
   xmlns:cc="http://creativecommons.org/ns#"
   xmlns:rdf="http://www.w3.org/1999/02/22-rdf-syntax-ns#"
   xmlns:svg="http://www.w3.org/2000/svg"
   xmlns="http://www.w3.org/2000/svg"
   xmlns:xlink="http://www.w3.org/1999/xlink"
   xmlns:sodipodi="http://sodipodi.sourceforge.net/DTD/sodipodi-0.dtd"
   xmlns:inkscape="http://www.inkscape.org/namespaces/inkscape"
   inkscape:version="1.0 (4035a4fb49, 2020-05-01)"
   sodipodi:docname="mh_depression2.svg"
   viewBox="0 0 480 480"
   height="480"
   width="480"
   id="svg108"
   version="1.1">
  <metadata
     id="metadata114">
    <rdf:RDF>
      <cc:Work
         rdf:about="">
        <dc:format>image/svg+xml</dc:format>
        <dc:type
           rdf:resource="http://purl.org/dc/dcmitype/StillImage" />
        <dc:title></dc:title>
      </cc:Work>
    </rdf:RDF>
  </metadata>
  <defs
     id="defs112" />
  <sodipodi:namedview
     inkscape:current-layer="g116"
     inkscape:window-maximized="0"
     inkscape:window-y="708"
     inkscape:window-x="1915"
     inkscape:cy="240"
     inkscape:cx="240"
     inkscape:zoom="2.1"
     showgrid="false"
     id="namedview110"
     inkscape:window-height="480"
     inkscape:window-width="725"
     inkscape:pageshadow="2"
     inkscape:pageopacity="0"
     guidetolerance="10"
     gridtolerance="10"
     objecttolerance="10"
     borderopacity="1"
     bordercolor="#666666"
     pagecolor="#ffffff" />
  <g
     id="g116"
     inkscape:label="Image"
     inkscape:groupmode="layer">
    <image
       sodipodi:absref="C:\Users\chris\Pictures\Saved Pictures\Asset collection III - Epicons\mh_depression2.png"
       xlink:href="mh_depression2.png"
       width="480"
       height="480"
       preserveAspectRatio="none"
       id="image118" />
    <path
       id="path156"
       d="m 246.72,434.33421 c -1.32,-0.23114 -5.64,-0.89801 -9.6,-1.48192 -9.44949,-1.39336 -21.56508,-4.92885 -31.68,-9.24467 -42.7412,-18.2367 -72.36113,-54.62158 -82.26012,-101.04762 -2.48621,-11.66028 -2.44973,-42.20274 0.0642,-53.76 10.83569,-49.81464 44.88403,-88.8743 91.53262,-105.00465 16.79817,-5.80854 30.79772,-8.27535 46.96401,-8.27535 15.38875,0 30.73466,1.98608 37.3905,4.83911 4.62567,1.98279 4.57267,2.01292 6.03185,-3.42877 0.5707,-2.12831 1.65545,-4.71458 2.41058,-5.74726 1.28971,-1.7638 1.48083,-1.77993 3.15358,-0.26613 0.97935,0.88631 2.35459,3.68857 3.05607,6.22726 0.7015,2.53869 1.5897,5.69579 1.97381,7.01579 0.52021,1.78768 3.13036,3.70576 10.23063,7.51803 40.19774,21.58286 67.12966,59.87626 73.29704,104.21808 1.32921,9.55663 1.3276,28.10279 -0.003,37.67141 -8.16042,58.67128 -52.65558,106.11799 -111.09047,118.45956 -8.92514,1.885 -35.45366,3.36085 -41.47103,2.30713 z m 27.94379,-6.65017 c 4.01708,-0.29668 11.6133,-1.58291 16.88052,-2.8583 54.59408,-13.21928 95.12116,-58.79465 102.01319,-114.72056 5.88177,-47.72812 -16.70972,-97.78947 -56.20707,-124.5514 -8.30814,-5.62927 -16.70631,-10.1979 -17.425,-9.47923 -0.34493,0.34494 -0.10925,2.56348 0.5237,4.93008 1.4995,5.60643 1.45648,6.70117 -0.41858,10.65257 -4.19427,8.83873 -18.73784,7.92233 -21.51765,-1.35584 -0.93969,-3.1364 -0.79925,-4.82392 0.90771,-10.90715 3.01001,-10.72704 2.94201,-10.98975 -3.31518,-12.80877 -11.23583,-3.26634 -16.48493,-3.83547 -34.50543,-3.74123 -19.84765,0.10381 -27.79607,1.24678 -42.85367,6.16227 -10.16245,3.3175 -23.82805,10.09367 -33.45169,16.58724 -8.99887,6.07199 -23.47903,19.9585 -30.7051,29.44628 -36.25433,47.60162 -36.43571,112.87572 -0.44687,160.8236 10.143,13.51351 26.69629,27.7738 42.65733,36.74834 7.92483,4.45595 23.33945,10.25527 33.585,12.63542 9.57398,2.22413 25.35522,3.81271 32.655,3.28714 2.376,-0.17108 7.6067,-0.55378 11.62379,-0.85046 z m 9.7654,-32.37207 c -0.53843,-0.67758 -1.513,-2.88903 -2.16572,-4.91431 -2.74986,-8.53264 -11.17272,-14.40399 -20.66347,-14.40399 -9.64035,0 -17.12248,5.21381 -20.57338,14.33622 -3.15439,8.33867 -8.15325,6.15049 -5.81202,-2.54413 0.73038,-2.71239 2.81968,-5.77362 6.52972,-9.56724 4.46274,-4.56328 6.49091,-5.87651 11.1437,-7.21552 14.69906,-4.23018 29.23072,3.04041 34.69993,17.36133 1.20946,3.16692 1.43055,4.92832 0.75335,6.00188 -1.30778,2.07327 -2.74085,2.41971 -3.91211,0.94576 z m 23.4759,-68.95087 c -16.5785,-4.11512 -26.37682,-20.60539 -21.10836,-35.52476 l 1.87994,-5.32365 -2.70891,-3.24482 c -3.46515,-4.1507 -5.64776,-8.76226 -5.64776,-11.93295 0,-4.01966 2.51711,-2.9654 6.0765,2.54508 7.18721,11.12687 13.02138,14.58808 24.64349,14.62014 11.4907,0.0317 18.70154,-4.40149 24.96453,-15.34807 1.65902,-2.89964 3.63268,-5.27207 4.38592,-5.27207 2.23864,0 1.62512,5.51061 -1.18921,10.68147 l -2.55878,4.7013 2.31878,4.9529 c 4.74528,10.13597 2.2912,23.37189 -5.84124,31.50433 -6.4432,6.4432 -17.06871,9.66315 -25.2149,7.6411 z M 301.92,309.70524 c 5.73386,-2.1815 18.16876,-1.97101 23.38482,0.39584 5.29666,2.40342 5.53029,2.38823 7.41072,-0.48165 2.56918,-3.92105 3.47453,-9.84347 2.33669,-15.28569 -1.64989,-7.89146 -1.93679,-8.07312 -8.03469,-5.08728 -10.36845,5.07694 -20.19077,5.59532 -29.34808,1.54887 -3.03033,-1.33906 -4.54607,-1.58201 -5.28001,-0.84632 -0.56619,0.56755 -1.02653,4.35721 -1.02295,8.42146 0.007,8.09482 2.42625,14.18282 5.27007,13.26272 0.79388,-0.25684 3.17143,-1.12443 5.28343,-1.92795 z m -97.69491,15.70228 c -16.23241,-4.05803 -25.3659,-20.37772 -20.09591,-35.90733 l 1.93424,-5.69982 -2.19606,-2.94018 c -4.28403,-5.73568 -5.67396,-13.83738 -2.14138,-12.4818 0.72526,0.27831 1.99265,1.89102 2.8164,3.58381 4.71489,9.68887 15.27122,16.57074 25.21762,16.43984 10.45567,-0.13761 18.72567,-5.06293 25.13371,-14.96874 4.28111,-6.61792 6.06629,-7.52971 6.06629,-3.09839 0,2.49053 -3.09864,9.36429 -5.4097,12.0004 -1.16266,1.3262 -1.08493,2.1107 0.57077,5.76 5.89242,12.98737 -1.17081,30.25476 -14.68557,35.90159 -4.45327,1.86069 -12.70477,2.53701 -17.21041,1.41062 z m -6.52818,-16.51773 c 5.86143,-2.87545 17.90831,-3.49111 24.06309,-1.22978 2.376,0.87297 5.02602,1.81191 5.88893,2.08652 2.65173,0.84391 5.03709,-7.02146 4.42855,-14.60249 -0.27775,-3.46037 -0.74125,-6.52781 -1.02996,-6.81652 -0.28872,-0.28872 -3.02294,0.65681 -6.07606,2.10116 -7.19475,3.40366 -15.14997,4.07294 -23.37271,1.96637 -3.41692,-0.87537 -7.17526,-2.22237 -8.35188,-2.99332 C 192.07024,288.63078 190.91862,288 190.68769,288 c -0.99238,0 -2.52599,6.40172 -2.50661,10.46325 0.0202,4.23104 2.95913,12.57675 4.42888,12.57675 0.38712,0 2.67624,-0.96759 5.08695,-2.15021 z m 41.63538,-74.60746 c -2.0244,-1.23436 -3.4326,-3.11046 -4.14063,-5.51642 -0.94915,-3.22529 -0.58074,-5.53902 3.19327,-20.05521 4.21793,-16.22359 5.74659,-20.5507 7.26006,-20.5507 1.42943,0 3.60273,3.32112 4.71161,7.2 4.68838,16.4002 7.8834,28.4822 7.8834,29.81118 0,3.02053 -3.15613,8.2023 -5.84178,9.59111 -3.76273,1.94578 -9.42895,1.73764 -13.06593,-0.47996 z m -116.16,-31.68 c -2.0244,-1.23436 -3.4326,-3.11046 -4.14063,-5.51642 -0.94915,-3.22529 -0.58074,-5.53902 3.19327,-20.05521 4.21793,-16.22359 5.74659,-20.5507 7.26006,-20.5507 1.42943,0 3.60274,3.32112 4.71161,7.2 4.68838,16.4002 7.8834,28.4822 7.8834,29.81118 0,3.02053 -3.15612,8.2023 -5.84178,9.59111 -3.76273,1.94578 -9.42895,1.73764 -13.06593,-0.47996 z M 90.367232,148.6603 c -2.947958,-1.09248 -7.549641,-7.22053 -9.662411,-12.86742 -1.851041,-4.94735 -1.953213,-6.2008 -1.043249,-12.79868 1.371403,-9.94363 4.796513,-16.60216 12.288761,-23.88979 6.831104,-6.644534 15.237677,-11.210062 27.089667,-14.712132 5.92739,-1.751446 9.77792,-2.148943 21.78497,-2.248895 l 14.58498,-0.121412 6.20346,-7.27041 c 7.86853,-9.221879 18.70905,-17.399571 31.43963,-23.716913 24.56847,-12.191696 53.41797,-13.963314 79.21504,-4.86451 15.88425,5.602491 26.6107,12.283012 38.4735,23.961625 l 7.00133,6.892617 8.40855,0.232448 c 12.34245,0.341198 18.67603,1.946293 30.75254,7.793504 13.04596,6.3166 22.92575,14.959028 28.14436,24.619528 2.86027,5.29482 3.24818,6.86707 3.25916,13.21014 0.0166,9.59984 -2.55619,14.93522 -9.86276,20.45289 l -5.33275,4.02711 -91.75602,0.66205 C 117.45518,149.20466 92.065091,149.2895 90.367232,148.6603 Z"
       style="fill:#000000;stroke-width:0.96" />
  </g>
</svg>
