<?xml version="1.0" encoding="UTF-8" standalone="no"?>
<svg
   xmlns:dc="http://purl.org/dc/elements/1.1/"
   xmlns:cc="http://creativecommons.org/ns#"
   xmlns:rdf="http://www.w3.org/1999/02/22-rdf-syntax-ns#"
   xmlns:svg="http://www.w3.org/2000/svg"
   xmlns="http://www.w3.org/2000/svg"
   xmlns:xlink="http://www.w3.org/1999/xlink"
   xmlns:sodipodi="http://sodipodi.sourceforge.net/DTD/sodipodi-0.dtd"
   xmlns:inkscape="http://www.inkscape.org/namespaces/inkscape"
   inkscape:version="1.0 (4035a4fb49, 2020-05-01)"
   sodipodi:docname="mh_ocd2.svg"
   viewBox="0 0 480 480"
   height="480"
   width="480"
   id="svg120"
   version="1.1">
  <metadata
     id="metadata126">
    <rdf:RDF>
      <cc:Work
         rdf:about="">
        <dc:format>image/svg+xml</dc:format>
        <dc:type
           rdf:resource="http://purl.org/dc/dcmitype/StillImage" />
        <dc:title></dc:title>
      </cc:Work>
    </rdf:RDF>
  </metadata>
  <defs
     id="defs124" />
  <sodipodi:namedview
     inkscape:current-layer="g128"
     inkscape:window-maximized="0"
     inkscape:window-y="859"
     inkscape:window-x="1856"
     inkscape:cy="240"
     inkscape:cx="240"
     inkscape:zoom="2.1"
     showgrid="false"
     id="namedview122"
     inkscape:window-height="480"
     inkscape:window-width="725"
     inkscape:pageshadow="2"
     inkscape:pageopacity="0"
     guidetolerance="10"
     gridtolerance="10"
     objecttolerance="10"
     borderopacity="1"
     bordercolor="#666666"
     pagecolor="#ffffff" />
  <g
     id="g128"
     inkscape:label="Image"
     inkscape:groupmode="layer">
    <image
       sodipodi:absref="C:\Users\chris\Pictures\Saved Pictures\Asset collection III - Epicons\mh_ocd2.png"
       xlink:href="mh_ocd2.png"
       width="480"
       height="480"
       preserveAspectRatio="none"
       id="image130" />
    <path
       id="path158"
       d="m 334.66047,408.72 c -0.33191,-1.188 -2.97869,-12.96 -5.88174,-26.16 -2.90306,-13.2 -5.9219,-26.19797 -6.70851,-28.88437 -0.78663,-2.68641 -1.43022,-6.2146 -1.43022,-7.84042 0,-4.59853 3.2772,-11.14313 7.7154,-15.40777 3.60856,-3.46742 3.97812,-4.22841 3.43643,-7.07634 -1.72602,-9.07457 -1.75239,-11.37087 -0.17584,-15.31108 3.0145,-7.53399 7.89454,-12.0856 14.8518,-13.85229 l 4.41221,-1.12042 0.0679,-9.01366 c 0.0749,-9.94687 1.55705,-14.75817 5.9831,-19.42157 4.21885,-4.4451 9.56565,-6.69385 15.78906,-6.64052 3.036,0.026 5.52001,-0.36803 5.52001,-0.87567 0,-0.50763 -2.18165,-10.72238 -4.84811,-22.69943 -11.43801,-51.37674 -11.71784,-52.90494 -10.54219,-57.57385 1.73203,-6.87851 4.50338,-11.38505 9.21269,-14.98086 7.39266,-5.64472 17.19383,-6.58523 25.44309,-2.44147 3.75163,1.88451 9.98843,8.28574 10.82813,11.1136 1.11522,3.75574 5.51757,22.96604 11.18928,48.82612 3.24246,14.784 7.59356,34.55038 9.66912,43.92528 3.30323,14.92001 3.64888,17.6025 2.77222,21.51429 -0.55084,2.45796 -1.36396,5.11666 -1.80694,5.90823 -0.68341,1.22115 -0.95593,1.158 -1.79872,-0.41673 -1.24599,-2.32816 -3.36195,-10.45944 -6.37572,-24.50079 -1.28799,-6.00065 -4.75948,-21.92628 -7.71444,-35.39028 -2.95497,-13.464 -6.43543,-29.664 -7.73439,-36 -1.29893,-6.336 -2.83224,-13.80936 -3.40736,-16.60747 -3.17661,-15.45532 -24.58579,-18.05582 -31.47565,-3.82324 -2.4104,4.9792 -2.55887,8.57666 -0.65918,15.97214 0.76552,2.98021 4.70051,20.53857 8.7444,39.01857 4.04389,18.48 7.96042,36.192 8.70339,39.36 3.09963,13.2166 5.2253,25.14352 4.96179,27.84 -0.20711,2.11918 -0.83491,2.95879 -2.3765,3.17825 -2.92397,0.41627 -3.74432,-1.52641 -7.54357,-17.86381 C 379.83567,265.79727 378.70803,264 372.51768,264 c -5.14936,0 -10.87936,4.39963 -13.01581,9.99385 -1.82076,4.76762 -1.5757,6.88504 3.45428,29.84615 3.11427,14.21614 3.20043,15.30628 1.35561,17.15109 -1.44657,1.44658 -1.91282,1.48654 -3.70334,0.3174 -1.47257,-0.96152 -2.53413,-3.46993 -3.77623,-8.92301 -2.9077,-12.76556 -2.71019,-12.39852 -6.6112,-12.28525 -1.89861,0.0551 -4.80157,1.06119 -6.45101,2.23569 -6.10393,4.34639 -7.28138,10.69329 -3.92998,21.18408 1.056,3.30557 1.91999,6.97845 1.91999,8.16197 0,1.18351 1.08,6.40932 2.40001,11.61292 2.79919,11.03474 2.94811,13.40936 0.89046,14.19896 -1.8595,0.71355 -4.88015,-0.81306 -6.00692,-3.03585 -0.46226,-0.9119 -1.63462,-5.654 -2.60524,-10.538 -1.94366,-9.78011 -3.10233,-10.85503 -6.20882,-5.76 -2.39936,3.93523 -2.40219,8.09176 -0.0124,18.1642 3.87515,16.33267 10.58291,48.26527 10.58291,50.38042 0,2.00447 -2.40465,4.17538 -4.62493,4.17538 -0.50112,0 -1.18271,-0.972 -1.5146,-2.16 z M 97.105937,298.32647 C 89.405272,297.21996 56.586828,289.15268 52.56,287.3764 c -3.738519,-1.6491 -4.655474,-4.02534 -2.305812,-5.97538 1.282243,-1.06417 9.47433,-3.24929 23.984041,-6.39738 4.135026,-0.89714 7.159026,-1.95614 6.72,-2.35332 -0.439027,-0.39717 -6.846229,-2.1272 -14.238229,-3.8445 -14.840269,-3.44769 -19.97582,-5.42599 -20.447815,-7.87686 -0.506908,-2.63216 5.637104,-5.02364 23.087815,-8.98667 8.843999,-2.00844 16.079998,-3.96793 16.079998,-4.35439 0,-0.38648 -5.939998,-2.07183 -13.199998,-3.74524 -20.449562,-4.71356 -25.466794,-6.23226 -26.575391,-8.04427 -1.882982,-3.07774 2.760893,-5.69409 15.358523,-8.65295 6.301278,-1.48002 17.224799,-4.19445 24.274489,-6.03211 8.440496,-2.20018 14.505409,-3.25438 17.759999,-3.087 2.71831,0.13979 7.53438,0.14147 10.70238,0.004 l 5.76,-0.25045 -10.97689,-2.77336 c -6.55738,-1.65675 -11.721649,-3.51811 -12.826669,-4.62313 -1.826366,-1.82636 -1.824605,-1.87494 0.139083,-3.83863 1.093867,-1.09387 4.273866,-2.63051 7.066676,-3.41475 2.79279,-0.78424 7.0218,-1.97085 9.3978,-2.63691 l 4.32,-1.21101 -7.2,-0.63649 C 105.48,198.29553 97.703999,196.61702 92.159999,194.91556 86.616,193.21411 75.675185,190.34776 67.847078,188.5459 50.880407,184.64053 49.70261,184.11682 50.102465,180.65572 50.552894,176.75685 56.244274,174.52992 79.2,169.27039 l 20.16,-4.61898 108.66811,-0.29705 c 121.29677,-0.33157 112.17321,-0.8371 117.01813,6.48405 3.5147,5.31107 3.99574,10.42426 1.47132,15.63903 -1.12066,2.31497 -2.03756,4.50464 -2.03756,4.86594 0,0.3613 5.93999,0.66639 13.19999,0.67799 15.2851,0.0244 19.29587,1.2408 23.87145,7.23969 3.92242,5.14257 3.949,12.80001 0.0638,18.40626 -1.48757,2.14657 -3.64758,4.15574 -4.79999,4.46481 -1.15242,0.30906 -8.21598,0.56784 -15.69679,0.57505 -16.50731,0.0159 -17.10358,0.16911 -15.17477,3.89903 2.336,4.51733 1.80092,10.49161 -1.39037,15.52375 -2.73747,4.31654 -2.76196,4.46598 -0.9945,6.06552 0.99666,0.90196 2.55252,3.57863 3.45744,5.94814 1.41353,3.7013 1.47796,4.93395 0.4573,8.75004 -0.6534,2.443 -1.90819,5.23762 -2.78841,6.21026 -1.49915,1.65654 -1.47011,1.99483 0.45879,5.34637 4.17439,7.25318 3.74379,14.2861 -1.23712,20.20559 -2.17298,2.58244 -2.95116,2.81356 -11.6775,3.46828 -12.42064,0.93188 -208.7612,1.11679 -215.123441,0.2026 z M 297.36,292.27956 c 0.83668,-0.26447 1.2,-2.86084 1.2,-8.57552 v -8.19622 l -99.12,0.24608 -99.12,0.2461 -0.27493,8.79729 -0.27493,8.79727 98.19493,-0.46784 C 251.97228,292.8694 296.7,292.48818 297.36,292.27956 Z m 20.93563,-0.21426 c 4.36429,-3.0307 5.46927,-9.95457 2.2432,-14.05585 -1.90055,-2.41617 -2.43036,-2.55277 -8.87999,-2.28946 L 304.8,276 l -0.28509,7.11016 c -0.1568,3.91058 -0.0624,7.69058 0.20987,8.4 0.53717,1.39984 11.6971,1.85636 13.57085,0.55514 z M 94.080001,284.8 c 0,-3.872 -0.221325,-7.26132 -0.491834,-7.53183 -0.538237,-0.53824 -30.01303,6.3567 -30.879977,7.22364 -0.294112,0.29411 0.488228,0.77427 1.738531,1.06703 1.250304,0.29275 7.457279,1.78096 13.793278,3.30713 16.884543,4.06701 15.840002,4.33514 15.840002,-4.06597 z M 298.7853,267.45894 c 0.85174,-1.27881 0.97196,-14.20362 0.15198,-16.34042 -0.52564,-1.36983 -9.44147,-1.51852 -91.05251,-1.51852 -49.7584,0 -94.42417,0.28068 -99.25729,0.62375 l -8.787481,0.62376 v 9.39141 9.39141 L 198.96,269.0741 c 70.62131,-0.39631 99.32279,-0.86069 99.8253,-1.61516 z M 94.080001,260.64 c 0,-5.12707 -0.379644,-8.16 -1.021411,-8.16 -2.041606,0 -32.118611,6.97631 -32.825217,7.61375 -0.529541,0.47771 26.023546,7.35677 33.126625,8.58205 0.396003,0.0683 0.720003,-3.5478 0.720003,-8.0358 z m 225.673829,5.35384 c 3.19916,-3.19913 3.6612,-7.15571 1.35623,-11.61306 -1.94553,-3.76224 -4.15592,-4.78078 -10.37499,-4.78078 -4.61337,0 -5.2995,0.25508 -5.80999,2.16 -0.78728,2.93768 -0.76029,15.60478 0.0349,16.4 0.352,0.352 3.19323,0.64 6.31385,0.64 4.99109,0 6.01152,-0.33767 8.47999,-2.80616 z m -21.68176,-23.26551 c 0.3472,-0.34741 0.8825,-4.84266 1.18957,-9.98942 l 0.55827,-9.35775 -38.78995,0.62087 C 239.69548,224.34351 194.7,224.62675 161.04,224.63146 l -61.200001,0.009 v 9.65134 9.65133 l 98.800421,-0.29133 c 54.34022,-0.16024 99.08448,-0.5756 99.43165,-0.92301 z m 15.47702,0.16477 c 7.74394,-0.034 11.27843,-10.65017 5.58951,-16.78863 -1.92553,-2.07768 -3.07737,-2.42447 -8.05276,-2.42447 H 305.28 v 9.44 c 0,5.192 0.31302,9.75301 0.69559,10.13559 0.38258,0.38257 1.57058,0.46047 2.63999,0.17311 1.06944,-0.28737 3.28951,-0.52839 4.93351,-0.5356 z M 94.080001,234.1173 v -7.8027 l -4.080004,0.64147 c -5.942356,0.93427 -29.832975,6.31691 -30.355203,6.83913 -0.822628,0.82264 0.305746,1.15953 15.235206,4.54872 20.92446,4.75015 19.200001,5.12976 19.200001,-4.22662 z M 298.56,217.06572 336.48,216.48 l 0.27468,-8.7798 0.27472,-8.77979 -12.75471,-0.64255 c -7.01507,-0.35339 -27.65869,-0.43111 -45.87469,-0.1727 -18.216,0.25841 -55.044,0.50246 -81.84,0.54234 l -48.72,0.0725 v 9.61422 9.61422 l 56.4,-0.14849 c 31.02,-0.0817 73.464,-0.41207 94.32,-0.73423 z M 356.46002,215.76 c 2.1977,-1.62094 3.40087,-6.34689 2.47597,-9.72547 -1.63397,-5.96877 -6.66968,-8.76825 -13.71564,-7.62485 l -3.46036,0.56153 v 8.3544 c 0,4.59492 0.28801,8.64239 0.64001,8.99439 1.13014,1.13014 12.37576,0.68223 14.06002,-0.56 z M 141.12,208.21729 c 0,-6.29064 -0.25865,-7.68346 -1.34916,-7.26499 -0.74203,0.28474 -7.76203,1.88394 -15.6,3.55376 -7.83796,1.66982 -14.42067,3.2009 -14.62824,3.4024 -0.20758,0.20148 0.22442,0.5901 0.96,0.86358 1.37792,0.51231 28.61137,7.03224 29.8974,7.15772 0.396,0.0386 0.72,-3.43197 0.72,-7.71247 z m 159.0692,-26.51203 c 0.10474,-5.43433 -0.22071,-10.06808 -0.72922,-10.38235 -1.02346,-0.63254 -197.57959,-0.63063 -198.60307,0.002 -0.35595,0.21999 -0.61815,4.38478 -0.58268,9.25508 l 0.0645,8.85509 3.35063,1.21187 c 2.62636,0.94991 24.20569,1.17525 99.83063,1.04249 L 300,191.52 Z m 14.04157,8.76389 c 2.47104,-0.84197 5.35599,-2.62823 6.41102,-3.96946 2.60145,-3.30722 2.56635,-9.73678 -0.0714,-13.09022 -1.80737,-2.29772 -2.59897,-2.52947 -8.63999,-2.52947 H 305.28 v 9.92 c 0,5.456 0.288,10.208 0.64,10.56 1.01851,1.01851 3.48216,0.75442 8.31077,-0.89085 z M 94.080001,180.48 c 0,-4.53909 -0.369168,-6.72 -1.137503,-6.72 -2.628082,0 -28.622498,6.22465 -28.622498,6.85397 0,0.37831 4.212,1.63005 9.359999,2.78166 5.148,1.15159 10.656001,2.43973 12.239999,2.86251 1.584001,0.42279 4.068003,0.80766 5.520002,0.85528 2.636819,0.0865 2.640001,0.0784 2.640001,-6.63342 z"
       style="fill:#000000;stroke-width:0.96" />
  </g>
</svg>
