<?xml version="1.0" encoding="UTF-8" standalone="no"?>
<svg
   xmlns:dc="http://purl.org/dc/elements/1.1/"
   xmlns:cc="http://creativecommons.org/ns#"
   xmlns:rdf="http://www.w3.org/1999/02/22-rdf-syntax-ns#"
   xmlns:svg="http://www.w3.org/2000/svg"
   xmlns="http://www.w3.org/2000/svg"
   xmlns:xlink="http://www.w3.org/1999/xlink"
   xmlns:sodipodi="http://sodipodi.sourceforge.net/DTD/sodipodi-0.dtd"
   xmlns:inkscape="http://www.inkscape.org/namespaces/inkscape"
   inkscape:version="1.0 (4035a4fb49, 2020-05-01)"
   sodipodi:docname="mh_schizophrenia2.svg"
   viewBox="0 0 480 480"
   height="480"
   width="480"
   id="svg132"
   version="1.1">
  <metadata
     id="metadata138">
    <rdf:RDF>
      <cc:Work
         rdf:about="">
        <dc:format>image/svg+xml</dc:format>
        <dc:type
           rdf:resource="http://purl.org/dc/dcmitype/StillImage" />
        <dc:title></dc:title>
      </cc:Work>
    </rdf:RDF>
  </metadata>
  <defs
     id="defs136" />
  <sodipodi:namedview
     inkscape:current-layer="g140"
     inkscape:window-maximized="0"
     inkscape:window-y="763"
     inkscape:window-x="1853"
     inkscape:cy="240"
     inkscape:cx="240"
     inkscape:zoom="2.1"
     showgrid="false"
     id="namedview134"
     inkscape:window-height="480"
     inkscape:window-width="725"
     inkscape:pageshadow="2"
     inkscape:pageopacity="0"
     guidetolerance="10"
     gridtolerance="10"
     objecttolerance="10"
     borderopacity="1"
     bordercolor="#666666"
     pagecolor="#ffffff" />
  <g
     id="g140"
     inkscape:label="Image"
     inkscape:groupmode="layer">
    <image
       sodipodi:absref="C:\Users\chris\Pictures\Saved Pictures\Asset collection III - Epicons\mh_schizophrenia2.png"
       xlink:href="mh_schizophrenia2.png"
       width="480"
       height="480"
       preserveAspectRatio="none"
       id="image142" />
    <path
       id="path160"
       d="m 236.16155,433.44407 c -1.23614,-3.25129 -1.25668,-31.26281 -0.0254,-34.50157 1.12217,-2.95155 4.31453,-3.28777 5.74999,-0.60561 1.10068,2.05662 1.21555,30.72899 0.13873,34.62311 -0.96048,3.47338 -4.61225,3.77485 -5.86341,0.48407 z m 5.51846,-58.74583 C 240.19471,374.3101 240,372.88897 240,362.43628 c 0,-10.63087 -0.16788,-11.8095 -1.66509,-11.68961 -1.16822,0.0935 -1.93492,-0.94094 -2.56931,-3.46667 l -0.90422,-3.6 h -6.15989 c -13.09521,0 -35.54923,-6.2526 -49.05425,-13.65975 -8.30718,-4.55627 -21.74167,-14.46232 -22.58139,-16.65058 -0.32221,-0.83968 -0.58585,-2.35537 -0.58585,-3.36819 0,-3.40475 3.9112,-1.98752 14.92111,5.4067 17.69862,11.88635 34.62744,18.35933 53.74175,20.54895 4.73943,0.54291 8.94114,0.99066 9.33714,0.995 0.396,0.005 0.72,-6.20213 0.72,-13.79213 0,-16.10171 0.55623,-19.87416 3.0256,-20.51991 1.64913,-0.43126 1.7744,-1.78186 1.7744,-19.12871 0,-10.26558 -0.34463,-18.4517 -0.76583,-18.19138 -0.42122,0.26032 -1.39322,0.086 -2.16001,-0.38729 -1.13744,-0.70214 -1.4516,-4.88884 -1.70608,-22.73666 -0.30126,-21.1264 0.2874,-27.15605 2.65117,-27.15605 2.19062,0 3.06006,8.49039 2.86269,27.95492 -0.11201,11.04586 0.0992,20.38624 0.4694,20.75642 1.84577,1.84576 2.46053,-4.01242 2.47396,-23.57445 0.0141,-20.55422 -0.63437,-26.03568 -2.91346,-24.62712 C 240.34732,215.89866 240,208.57404 240,196.32 c 0,-11.26488 0.36677,-19.56663 0.85123,-19.26723 0.46817,0.28935 1.42047,-0.1598 2.11619,-0.9981 0.91635,-1.10413 1.36855,-6.54689 1.64082,-19.74831 0.41868,-20.3015 -0.0491,-25.06764 -2.41528,-24.60622 -1.35269,0.2638 -1.52204,2.55122 -1.40812,19.01986 0.14229,20.56903 -0.45887,26.21849 -2.83865,26.6768 -0.84953,0.1636 -1.80444,-0.37967 -2.12203,-1.20729 -0.83095,-2.16544 -0.96207,-43.86512 -0.14422,-45.86951 0.7942,-1.94645 2.97777,-2.23092 3.68427,-0.48 0.26631,0.66 0.51831,-6.44843 0.56,-15.7965 L 240,97.047005 l 3.4405,-0.645447 c 4.17666,-0.783542 23.7458,0.892244 38.7995,3.32257 22.15134,3.576182 47.12489,15.664882 66.39399,32.138672 29.0365,24.82425 47.4771,65.03537 47.1698,102.8572 -0.55438,68.23257 -47.71244,125.14617 -113.68474,137.20261 -13.52596,2.47188 -35.76133,3.99806 -40.43904,2.77563 z M 244.33759,345.36 c 0.39043,-1.87365 2.66591,-5.2292 5.69624,-8.4 2.77537,-2.904 9.28127,-10.38514 14.45759,-16.62475 l 9.41151,-11.34474 1.78212,3.18474 c 0.98018,1.75161 5.36522,9.66368 9.74455,17.58239 8.75009,15.82194 10.05084,16.95674 14.06304,12.26894 27.53031,-32.16597 31.57509,-37.70658 27.52663,-37.70658 -1.58862,0 -7.60695,6.35279 -20.69018,21.84 -5.46403,6.468 -10.20334,11.75139 -10.53183,11.74087 -0.3285,-0.0105 -4.91725,-8.21378 -10.19725,-18.22947 -5.28001,-10.01569 -10.0808,-18.21509 -10.66842,-18.22088 -1.0021,-0.01 -20.50708,21.79332 -26.71727,29.86528 -1.55414,2.02005 -2.96501,3.53351 -3.13528,3.36324 -0.17027,-0.17027 -0.34756,-5.45071 -0.39401,-11.73431 -0.0973,-13.16138 -0.83166,-18.78027 -2.52849,-19.34588 -0.93284,-0.31095 -1.19653,4.59082 -1.19653,22.24115 0,18.92163 0.22397,22.64 1.36372,22.64 0.76519,0 1.64906,-1.36934 2.01386,-3.12 z m 66.36965,-89.17754 c 10.88835,-4.07386 18.57277,-15.33704 18.57277,-27.22246 0,-11.88542 -7.68442,-23.1486 -18.57277,-27.22246 -23.40677,-8.7576 -45.62434,12.21178 -38.46867,36.30751 2.85565,9.61606 8.10401,14.95247 18.44224,18.75169 5.43505,1.99733 13.72598,1.74303 20.02643,-0.61428 z M 205.44,373.7329 C 145.08709,367.26956 96.910042,323.76912 83.881463,263.97422 81.37,252.44782 81.334983,221.89411 83.81988,210.24 95.963726,153.2856 137.11896,112.55428 194.83512,100.36823 201.33954,98.994902 209.58504,97.92 213.61528,97.92 H 220.8 v 3.36 3.36 l -6.96,9.6e-4 c -19.6589,0.004 -46.22617,8.42076 -65.1741,20.64852 -22.92013,14.79114 -42.10245,38.13102 -51.671033,62.87016 -1.123207,2.904 -2.692487,6.68754 -3.487292,8.40785 -0.794804,1.72031 -2.350424,8.41631 -3.456933,14.88 -2.555816,14.92982 -2.722897,34.79002 -0.401732,47.75215 9.747829,54.43504 53.043,97.66918 107.08026,106.92929 4.97703,0.85289 10.80903,1.55547 12.96,1.56128 2.15096,0.006 5.53083,0.27834 7.51083,0.60561 3.18525,0.52649 3.6,0.91237 3.6,3.34943 v 2.75439 l -6,-0.15363 c -3.3,-0.0845 -7.512,-0.31556 -9.36,-0.51347 z M 180.43254,264.6125 c -9.68077,-2.61092 -15.38432,-8.12325 -20.08277,-19.40945 -2.77661,-6.66971 -3.0847,-8.28384 -2.67475,-14.01334 C 158.87628,214.40052 172.68703,201.6 189.6,201.6 c 12.54,0 22.84598,6.4952 28.48686,17.95343 2.6197,5.32139 3.1202,7.42071 3.13494,13.14947 0.0264,10.26765 -2.37132,16.13622 -9.51218,23.28156 -4.98304,4.98615 -6.91568,6.21794 -12.42632,7.92 -7.30347,2.25582 -12.40189,2.44731 -18.85076,0.70804 z M 237.6,83.163279 c -1.7658,-1.29187 -1.94413,-2.704011 -2.22048,-17.582416 C 235.06017,48.386944 235.75927,44.16 238.92232,44.16 c 3.04131,0 3.95768,4.89873 3.95768,21.156901 0,12.962152 -0.23885,15.404734 -1.68,17.180731 -1.51601,1.868244 -1.86742,1.93322 -3.6,0.665647 z"
       style="fill:#000000;stroke-width:0.959999" />
  </g>
</svg>
