<?xml version="1.0" encoding="UTF-8" standalone="no"?>
<svg
   xmlns:dc="http://purl.org/dc/elements/1.1/"
   xmlns:cc="http://creativecommons.org/ns#"
   xmlns:rdf="http://www.w3.org/1999/02/22-rdf-syntax-ns#"
   xmlns:svg="http://www.w3.org/2000/svg"
   xmlns="http://www.w3.org/2000/svg"
   xmlns:xlink="http://www.w3.org/1999/xlink"
   xmlns:sodipodi="http://sodipodi.sourceforge.net/DTD/sodipodi-0.dtd"
   xmlns:inkscape="http://www.inkscape.org/namespaces/inkscape"
   inkscape:version="1.0 (4035a4fb49, 2020-05-01)"
   sodipodi:docname="phone.svg"
   viewBox="0 0 480 480"
   height="480"
   width="480"
   id="svg162"
   version="1.1">
  <metadata
     id="metadata168">
    <rdf:RDF>
      <cc:Work
         rdf:about="">
        <dc:format>image/svg+xml</dc:format>
        <dc:type
           rdf:resource="http://purl.org/dc/dcmitype/StillImage" />
        <dc:title></dc:title>
      </cc:Work>
    </rdf:RDF>
  </metadata>
  <defs
     id="defs166" />
  <sodipodi:namedview
     inkscape:current-layer="g170"
     inkscape:window-maximized="0"
     inkscape:window-y="695"
     inkscape:window-x="1803"
     inkscape:cy="240"
     inkscape:cx="240"
     inkscape:zoom="2.1"
     showgrid="false"
     id="namedview164"
     inkscape:window-height="480"
     inkscape:window-width="725"
     inkscape:pageshadow="2"
     inkscape:pageopacity="0"
     guidetolerance="10"
     gridtolerance="10"
     objecttolerance="10"
     borderopacity="1"
     bordercolor="#666666"
     pagecolor="#ffffff" />
  <g
     id="g170"
     inkscape:label="Image"
     inkscape:groupmode="layer">
    <image
       sodipodi:absref="C:\Users\chris\Pictures\Saved Pictures\Asset collection III - Epicons\phone.png"
       xlink:href="phone.png"
       width="480"
       height="480"
       preserveAspectRatio="none"
       id="image172" />
    <path
       id="path210"
       d="m 219.84,417.97141 c -2.904,-0.81757 -14.136,-5.50764 -24.96,-10.42238 -10.824,-4.91473 -22.488,-10.10626 -25.92,-11.53672 -3.432,-1.43048 -9.048,-4.02877 -12.48,-5.77398 -8.97176,-4.56226 -23.31295,-10.83598 -39.68575,-17.361 -16.963716,-6.76052 -21.077323,-9.87078 -25.957956,-19.62659 -4.613154,-9.22116 -5.852645,-15.762 -4.480287,-23.64266 1.311545,-7.53145 4.404223,-14.523 26.685843,-60.32808 9.50319,-19.536 25.28662,-52.152 35.07432,-72.48 9.7877,-20.328 26.43156,-54.672 36.98636,-76.32 10.5548,-21.648 21.64535,-44.413841 24.64567,-50.590758 3.00033,-6.176917 6.57304,-12.348664 7.93936,-13.714994 1.36633,-1.366328 5.6447,-3.983999 9.50747,-5.817044 18.07707,-8.578309 26.73633,-7.141881 66.56497,11.042036 12.936,5.905979 30.72611,13.931252 39.53357,17.83394 34.03581,15.081653 44.10727,21.27895 50.92577,31.33631 4.54927,6.71021 6.93802,16.62032 6.14749,25.50383 -0.45477,5.11032 -2.03896,9.07061 -10.75253,26.88 -5.62056,11.48768 -14.32357,29.52668 -19.34002,40.08668 -5.01645,10.56 -15.83711,33.024 -24.04591,49.92 -27.51102,56.62542 -42.32942,87.59671 -57.87401,120.96 -4.9201,10.56 -10.01385,20.928 -11.31944,23.04 -4.00332,6.47597 -13.82539,15.36054 -20.75019,18.76961 -7.75314,3.81686 -17.81919,4.67018 -26.44473,2.2418 z m 24.65743,-9.04036 c 9.57657,-4.69319 12.67403,-9.02733 27.83961,-38.95484 7.46278,-14.72691 18.09699,-36.49621 23.63158,-48.37621 5.53459,-11.88 16.33342,-34.344 23.99742,-49.92 19.91197,-40.46828 55.94138,-115.10742 60.47452,-125.28 3.17265,-7.11956 3.85939,-9.74004 3.90246,-14.891 0.0758,-9.06551 -3.8744,-17.08339 -12.46643,-25.30357 -5.9623,-5.70425 -7.93078,-6.857296 -22.88007,-13.402063 C 340.00044,88.864897 324.648,82.112052 314.88,77.797045 257.86827,52.612155 254.35841,51.343578 243.60075,52.034418 c -8.06225,0.517745 -11.87823,2.108729 -18.33305,7.643556 -4.11645,3.529725 -5.8447,6.431843 -15.00432,25.195621 C 199.20944,107.51795 166.95342,174.1371 144.3336,221.04 c -7.57548,15.708 -20.07953,41.628 -27.78678,57.6 -23.82717,49.37787 -22.84984,46.96636 -22.857651,56.4 -0.0081,9.75152 1.814975,14.52122 8.161371,21.35282 3.75289,4.0398 6.77152,5.70137 26.78946,14.74587 12.408,5.60618 24.504,10.96215 26.88,11.90215 2.376,0.94002 10.584,4.61035 18.24,8.15629 25.40499,11.76657 44.82662,19.77317 50.88,20.97535 5.34508,1.06152 13.93999,-0.34147 19.85743,-3.24143 z m -78.76566,-27.29727 c -7.87861,-2.80864 -12.01729,-9.76918 -10.76682,-18.1079 1.29192,-8.61513 7.579,-14.08588 16.18775,-14.08588 5.32963,0 8.65107,1.49244 12.62598,5.67332 2.32029,2.44052 2.89237,3.98374 3.23554,8.72793 0.24477,3.38404 -0.0759,6.95304 -0.77698,8.64539 -1.61003,3.88698 -6.82443,8.30636 -11.251,9.53564 -4.48455,1.24536 -4.69619,1.23648 -9.25447,-0.3885 z M 240.48,368.07813 c -11.69407,-5.27944 -29.49006,-13.21569 -64.32,-28.68397 -17.424,-7.73815 -36,-15.98925 -41.28,-18.33578 -5.28,-2.34654 -10.896,-5.30367 -12.48,-6.5714 -2.51381,-2.0119 -2.87052,-2.89635 -2.8054,-6.95598 0.0656,-4.09092 4.64001,-14.07277 37.98662,-82.891 20.85161,-43.032 45.68077,-93.792 55.1759,-112.8 19.39861,-38.833466 18.86868,-38.136037 26.925,-35.435384 4.33052,1.451689 42.0865,17.941742 76.15788,33.262214 8.184,3.68001 21.792,9.70036 30.24,13.37857 8.448,3.67821 16.548,7.81855 18,9.20073 5.65834,5.38631 7.12356,1.78972 -42.87802,105.25036 C 296.16708,289.29742 272.00703,339.24 267.513,348.48 c -11.65991,23.97341 -13.84032,25.55414 -27.033,19.59813 z"
       style="fill:#000000;stroke-width:0.96" />
  </g>
</svg>
