<?xml version="1.0" encoding="UTF-8" standalone="no"?>
<svg
   xmlns:dc="http://purl.org/dc/elements/1.1/"
   xmlns:cc="http://creativecommons.org/ns#"
   xmlns:rdf="http://www.w3.org/1999/02/22-rdf-syntax-ns#"
   xmlns:svg="http://www.w3.org/2000/svg"
   xmlns="http://www.w3.org/2000/svg"
   xmlns:xlink="http://www.w3.org/1999/xlink"
   xmlns:sodipodi="http://sodipodi.sourceforge.net/DTD/sodipodi-0.dtd"
   xmlns:inkscape="http://www.inkscape.org/namespaces/inkscape"
   inkscape:version="1.0 (4035a4fb49, 2020-05-01)"
   sodipodi:docname="sleep_duration.svg"
   viewBox="0 0 480 480"
   height="480"
   width="480"
   id="svg186"
   version="1.1">
  <metadata
     id="metadata192">
    <rdf:RDF>
      <cc:Work
         rdf:about="">
        <dc:format>image/svg+xml</dc:format>
        <dc:type
           rdf:resource="http://purl.org/dc/dcmitype/StillImage" />
        <dc:title></dc:title>
      </cc:Work>
    </rdf:RDF>
  </metadata>
  <defs
     id="defs190" />
  <sodipodi:namedview
     inkscape:current-layer="g194"
     inkscape:window-maximized="0"
     inkscape:window-y="578"
     inkscape:window-x="1626"
     inkscape:cy="240"
     inkscape:cx="240"
     inkscape:zoom="2.1"
     showgrid="false"
     id="namedview188"
     inkscape:window-height="480"
     inkscape:window-width="725"
     inkscape:pageshadow="2"
     inkscape:pageopacity="0"
     guidetolerance="10"
     gridtolerance="10"
     objecttolerance="10"
     borderopacity="1"
     bordercolor="#666666"
     pagecolor="#ffffff" />
  <g
     id="g194"
     inkscape:label="Image"
     inkscape:groupmode="layer">
    <image
       sodipodi:absref="C:\Users\chris\Pictures\Saved Pictures\Asset collection III - Epicons\sleep_duration.png"
       xlink:href="sleep_duration.png"
       width="480"
       height="480"
       preserveAspectRatio="none"
       id="image196" />
    <path
       id="path214"
       d="m 223.68,434.74009 c -28.79844,-1.6458 -54.27067,-9.14108 -80.44123,-23.6701 -6.3714,-3.53719 -7.90506,-4.81223 -7.68,-6.3849 0.25205,-1.76118 0.87894,-1.94108 6.04123,-1.73372 20.5611,0.8259 47.67692,0.53766 53.28,-0.56637 10.75198,-2.11855 29.01707,-6.8551 35.52,-9.21114 29.0732,-10.53334 55.02866,-28.66191 75.67321,-52.85386 12.37909,-14.50622 21.80683,-30.17352 29.75035,-49.44 5.03152,-12.20359 6.4337,-16.73298 9.21298,-29.76 7.97117,-37.36254 4.36212,-75.21915 -10.46921,-109.81537 C 317.891,112.40466 288.6138,81.029102 250.94018,61.683734 241.63336,56.904693 224.10707,49.173877 218.4,47.330326 c -2.14144,-0.691751 -2.88,-1.521097 -2.88,-3.234041 0,-3.074432 3.32905,-3.62067 23.04,-3.780455 44.78389,-0.363039 89.67474,16.136868 125.76,46.223853 44.83689,37.383877 72.93879,100.978367 70.17014,158.794637 -0.70594,14.74175 -5.29518,38.58221 -10.52694,54.68597 -4.11024,12.65163 -14.55429,34.11407 -22.41357,46.05971 -13.33469,20.26792 -37.59703,44.80819 -56.24789,56.89221 -9.00496,5.83438 -28.18436,15.6572 -38.59909,19.7687 -24.01964,9.48242 -53.21825,13.70247 -83.02265,11.99918 z M 164.45348,358.9568 C 105.02177,353.60523 55.500066,308.40554 44.639926,249.6 42.072281,235.6967 42.217484,211.68783 44.945834,199.01913 50.810313,171.78826 62.56224,150.10637 82.122271,130.42992 100.75255,111.68875 124.13366,99.253805 151.68,93.436514 c 12.36034,-2.610281 38.44428,-2.373315 51.58432,0.468633 47.3849,10.248483 85.32143,44.074493 100.36895,89.493723 4.91815,14.84487 5.96673,22.17685 5.96673,41.72113 0,20.01802 -1.07237,27.30215 -6.35992,43.2 -19.34186,58.1544 -77.52676,96.15298 -138.7866,90.6368 z M 172.4532,341.52 c 0.82359,-11.71446 0.8365,-11.76112 3.32939,-12.05051 2.31109,-0.26828 2.54983,0.0541 3.12,4.21399 0.33958,2.47747 0.61741,7.65871 0.61741,11.51385 0,3.85515 0.40947,7.26243 0.90994,7.57173 2.45981,1.52025 30.85838,-3.77909 39.1213,-7.30027 l 3.07123,-1.30879 -2.0304,-4.64497 c -1.71143,-3.91523 -1.81687,-4.78014 -0.67124,-5.5053 2.74288,-1.73619 4.68966,-0.87109 6.63917,2.95027 1.15887,2.27159 2.64543,3.84 3.63958,3.84 2.5254,0 15.99413,-8.1325 24.68042,-14.90218 7.85007,-6.11797 17.08455,-15.28914 22.09325,-21.94178 l 2.80372,-3.72395 -3.80849,-3.20292 -3.80848,-3.20292 2.1366,-2.14306 2.13659,-2.14305 3.84609,2.16162 3.84607,2.16162 1.97931,-3.17169 c 8.973,-14.37852 16.41972,-37.85762 17.4477,-55.01169 l 0.28764,-4.8 -8.3591,0.33571 c -4.59751,0.18464 -10.56161,0.0327 -13.25356,-0.33745 -4.79235,-0.65911 -4.88833,-0.73621 -4.6009,-3.69571 L 277.92,224.16 l 13.2,-0.26709 c 11.82385,-0.23924 13.2,-0.44204 13.2,-1.94518 0,-8.57997 -3.66153,-27.70619 -7.38726,-38.58773 -2.34879,-6.86004 -9.46225,-22.08 -10.31967,-22.08 -0.22302,0 -2.57594,1.34922 -5.22871,2.99828 -4.92958,3.06439 -7.33329,3.1342 -8.44192,0.24519 -0.41887,-1.09157 0.26906,-2.2426 2.1646,-3.62178 1.52822,-1.11193 3.84987,-2.94212 5.15918,-4.06709 l 2.38059,-2.04541 -2.46086,-3.71459 c -4.5393,-6.85192 -13.13113,-16.22705 -20.80969,-22.70686 C 251.61542,121.8185 235.85195,111.36 233.7415,111.36 c -0.64103,0 -2.05294,2.13538 -3.13757,4.74528 -1.9638,4.72545 -1.98439,4.74061 -4.92798,3.62953 -3.4679,-1.30899 -3.52645,-1.74434 -0.98734,-7.34114 2.32597,-5.12695 2.60368,-4.87646 -9.64861,-8.70284 -15.31525,-4.782952 -25.21575,-6.044564 -43.2,-5.504958 -16.47626,0.494371 -25.95831,2.254658 -40.28642,7.478948 -6.33623,2.3103 -6.57455,2.80887 -4.32853,9.05518 1.24639,3.46632 1.22444,3.95677 -0.22563,5.04 -2.37278,1.77251 -2.65253,1.59865 -5.10703,-3.17369 -1.23721,-2.40552 -2.60585,-4.59394 -3.04141,-4.86313 -1.02162,-0.63139 -10.89574,5.30661 -19.530926,11.74529 -7.6698,5.71885 -21.549614,19.76096 -26.143408,26.44909 l -3.075446,4.47756 4.789399,3.44084 c 5.201221,3.73671 5.413938,4.14297 3.523185,6.72873 -1.213747,1.6599 -1.429836,1.64817 -5.214865,-0.2828 -2.171757,-1.10795 -4.219455,-2.45263 -4.55044,-2.98817 -1.288027,-2.08408 -2.539936,-0.67184 -6.583213,7.42628 -7.587162,15.19602 -11.857112,30.57054 -12.797759,46.08 l -0.596794,9.84 h 10.104644 c 5.557553,0 11.477682,0.27461 13.155841,0.61024 2.602843,0.52057 3.008408,0.97903 2.76,3.12 L 74.4,230.88 l -12.72,0.26787 -12.72,0.26786 v 3.20638 c 0,5.1505 2.741275,19.58751 5.39594,28.41789 2.34286,7.7932 10.220853,25.35348 13.083096,29.16261 1.316273,1.75172 1.462847,1.74025 5.19235,-0.40617 4.045911,-2.32853 6.651687,-2.10785 7.711148,0.65306 0.606026,1.57928 -1.731912,4.17058 -6.035487,6.68954 -1.696252,0.99285 -1.571995,1.35287 1.987998,5.76 6.338359,7.84664 15.925139,17.03177 24.028235,23.02152 8.5696,6.3346 21.12908,13.28177 22.49045,12.44039 0.48741,-0.30123 1.38322,-2.05368 1.99069,-3.89432 1.17252,-3.5528 3.19567,-4.27367 6.02458,-2.14663 1.48006,1.11285 1.46007,1.50049 -0.27545,5.33778 l -1.87143,4.13779 3.57894,1.49696 c 5.32902,2.22896 20.29073,5.86214 28.25451,6.86109 12.37428,1.5522 10.99448,2.78128 11.93763,-10.63362 z m -1.69937,-102.9458 c -1.38939,-0.76793 -2.83962,-2.16528 -3.2227,-3.10522 -1.02384,-2.51202 -0.53449,-120.98993 0.51108,-123.73999 0.82054,-2.1582 4.24916,-4.20899 7.0368,-4.20899 0.65671,0 2.03259,0.61295 3.05751,1.36212 1.79632,1.31303 1.88078,3.31106 2.34348,55.44 L 180.96,218.4 198.24,201.53059 C 220.55185,179.7489 224.22121,176.64 227.61776,176.64 c 3.25921,0 6.62224,3.29634 6.62224,6.49092 0,1.71506 -6.67857,8.9861 -26.64,29.00328 -24.2843,24.35214 -26.97956,26.76402 -30.48,27.27532 -2.50903,0.36649 -4.71559,0.077 -6.36617,-0.83532 z"
       style="fill:#000000;stroke-width:0.96" />
  </g>
</svg>
