<?xml version="1.0" encoding="UTF-8" standalone="no"?>
<svg
   xmlns:dc="http://purl.org/dc/elements/1.1/"
   xmlns:cc="http://creativecommons.org/ns#"
   xmlns:rdf="http://www.w3.org/1999/02/22-rdf-syntax-ns#"
   xmlns:svg="http://www.w3.org/2000/svg"
   xmlns="http://www.w3.org/2000/svg"
   xmlns:xlink="http://www.w3.org/1999/xlink"
   xmlns:sodipodi="http://sodipodi.sourceforge.net/DTD/sodipodi-0.dtd"
   xmlns:inkscape="http://www.inkscape.org/namespaces/inkscape"
   inkscape:version="1.0 (4035a4fb49, 2020-05-01)"
   sodipodi:docname="sleep_duration2.svg"
   viewBox="0 0 480 480"
   height="480"
   width="480"
   id="svg174"
   version="1.1">
  <metadata
     id="metadata180">
    <rdf:RDF>
      <cc:Work
         rdf:about="">
        <dc:format>image/svg+xml</dc:format>
        <dc:type
           rdf:resource="http://purl.org/dc/dcmitype/StillImage" />
        <dc:title></dc:title>
      </cc:Work>
    </rdf:RDF>
  </metadata>
  <defs
     id="defs178" />
  <sodipodi:namedview
     inkscape:current-layer="g182"
     inkscape:window-maximized="0"
     inkscape:window-y="630"
     inkscape:window-x="1646"
     inkscape:cy="240"
     inkscape:cx="240"
     inkscape:zoom="2.1"
     showgrid="false"
     id="namedview176"
     inkscape:window-height="480"
     inkscape:window-width="725"
     inkscape:pageshadow="2"
     inkscape:pageopacity="0"
     guidetolerance="10"
     gridtolerance="10"
     objecttolerance="10"
     borderopacity="1"
     bordercolor="#666666"
     pagecolor="#ffffff" />
  <g
     id="g182"
     inkscape:label="Image"
     inkscape:groupmode="layer">
    <image
       sodipodi:absref="C:\Users\chris\Pictures\Saved Pictures\Asset collection III - Epicons\sleep_duration2.png"
       xlink:href="sleep_duration2.png"
       width="480"
       height="480"
       preserveAspectRatio="none"
       id="image184" />
    <path
       id="path212"
       d="m 70.917547,338.25342 c -1.061839,-1.27866 -1.369867,-9.56588 -1.587129,-42.70026 -0.312045,-47.58957 -0.576712,-46.02072 8.815922,-52.25709 9.521078,-6.32163 7.697944,-6.17591 77.28623,-6.17761 34.63209,-8.5e-4 77.51226,-0.28608 95.28926,-0.63384 l 32.32183,-0.63228 -0.0249,-8.24617 c -0.0373,-12.41366 1.20444,-15.84589 8.22925,-22.74486 9.22871,-9.06336 11.0667,-9.47717 40.91191,-9.21105 13.464,0.12004 25.236,0.45697 26.16,0.7487 1.55468,0.49086 1.68,-0.68065 1.68,-15.70548 0,-14.28946 0.20141,-16.40374 1.68,-17.63582 1.40283,-1.16894 5.68221,-1.33581 25.93834,-1.01142 21.30628,0.34123 24.36002,0.58109 25.09389,1.97113 0.45958,0.87044 1.10259,38.73463 1.42894,84.14263 0.63999,89.05094 0.66519,88.5146 -4.22117,89.86524 -2.98721,0.82568 -47.28253,1.06982 -49.36148,0.27205 -1.29651,-0.49753 -1.51848,-2.81293 -1.51848,-15.84 V 307.2 l -124.08,0.0131 c -68.244,0.008 -125.052,0.2736 -126.24,0.59197 -2.12855,0.57042 -2.16,0.80785 -2.16,16.30689 V 339.84 H 89.397547 c -14.788745,0 -17.344681,-0.21944 -18.48,-1.58658 z M 223.2,271.41224 353.76,271.2 l 0.26608,-13.63545 0.2661,-13.63544 -130.8261,0.47721 c -85.36492,0.3114 -132.123246,0.8216 -134.559008,1.46825 -2.134551,0.56668 -5.618677,2.77274 -8.136996,5.15212 -4.375489,4.1341 -4.406455,4.20835 -4.771742,11.4421 -0.524723,10.39101 -0.725889,10.16793 8.674872,9.62002 C 89.054942,271.83343 151.392,271.52896 223.2,271.41224 Z M 354.2402,219.6 l 2e-4,-16.56 -23.7602,0.29411 c -22.39965,0.27726 -24.00706,0.41769 -28.07134,2.45241 -8.20837,4.10941 -12.48886,12.72626 -12.48886,25.14073 V 236.16 h 32.16 32.16 z M 246.2259,192.97117 c -21.73344,-4.56372 -25.39578,-6.07091 -23.94412,-9.85387 0.77673,-2.02412 8.82563,-6.87167 25.19595,-15.17454 8.60074,-4.36222 15.29674,-8.24225 14.88,-8.62229 -0.41676,-0.38005 -4.21373,-1.42467 -8.43773,-2.32139 -4.224,-0.89672 -10.62261,-2.48657 -14.21914,-3.533 -5.72338,-1.66525 -6.50181,-2.16479 -6.24,-4.00434 0.27016,-1.89811 0.81069,-2.08389 5.57914,-1.91756 6.77611,0.23635 30.28754,5.55164 33.30636,7.52965 2.29813,1.50579 2.37388,4.02141 0.20331,6.75181 -0.44843,0.56409 -9.4321,5.53154 -19.96371,11.03879 -10.5316,5.50724 -19.01322,10.14831 -18.84804,10.31349 0.16518,0.16518 6.71772,1.80688 14.5612,3.64822 14.41966,3.38516 17.39682,4.75136 16.34228,7.49942 -0.76849,2.00268 -3.32323,1.81479 -18.4155,-1.35439 z m -67.61579,-64.09755 c -4.3296,-3.5059 -1.02443,-8.75801 18.38321,-29.212046 14.35849,-15.132666 18.0107,-19.237306 18.03135,-20.265074 0.009,-0.419926 -1.38867,-0.532291 -3.10467,-0.2497 -8.26455,1.361004 -26.99338,3.4132 -31.14966,3.4132 -2.72219,0 -5.57655,-0.639785 -6.85764,-1.537101 -2.03482,-1.425235 -2.0818,-1.661665 -0.64555,-3.248692 2.03944,-2.25356 6.91352,-3.493881 22.58117,-5.74629 22.05331,-3.170422 28.49274,-3.476032 30.72257,-1.458062 4.00782,3.627032 2.23309,7.329168 -9.70166,20.237874 C 197.83524,111.39501 191.04,118.9298 191.04,119.44803 c 0,0.941 4.60787,0.62455 21.00624,-1.44265 16.90241,-2.13073 20.27376,-1.80657 20.27376,1.94938 0,3.21839 -4.84646,4.74449 -22.76532,7.16855 -28.34691,3.83477 -28.36884,3.83601 -30.94457,1.75031 z"
       style="fill:#000000;stroke-width:0.959999" />
  </g>
</svg>
