<?xml version="1.0" encoding="UTF-8" standalone="no"?>
<svg
   xmlns:dc="http://purl.org/dc/elements/1.1/"
   xmlns:cc="http://creativecommons.org/ns#"
   xmlns:rdf="http://www.w3.org/1999/02/22-rdf-syntax-ns#"
   xmlns:svg="http://www.w3.org/2000/svg"
   xmlns="http://www.w3.org/2000/svg"
   xmlns:xlink="http://www.w3.org/1999/xlink"
   xmlns:sodipodi="http://sodipodi.sourceforge.net/DTD/sodipodi-0.dtd"
   xmlns:inkscape="http://www.inkscape.org/namespaces/inkscape"
   inkscape:version="1.0 (4035a4fb49, 2020-05-01)"
   sodipodi:docname="smoking.svg"
   viewBox="0 0 480 480"
   height="480"
   width="480"
   id="svg198"
   version="1.1">
  <metadata
     id="metadata204">
    <rdf:RDF>
      <cc:Work
         rdf:about="">
        <dc:format>image/svg+xml</dc:format>
        <dc:type
           rdf:resource="http://purl.org/dc/dcmitype/StillImage" />
        <dc:title></dc:title>
      </cc:Work>
    </rdf:RDF>
  </metadata>
  <defs
     id="defs202" />
  <sodipodi:namedview
     inkscape:current-layer="g206"
     inkscape:window-maximized="0"
     inkscape:window-y="584"
     inkscape:window-x="1768"
     inkscape:cy="240"
     inkscape:cx="240"
     inkscape:zoom="2.1"
     showgrid="false"
     id="namedview200"
     inkscape:window-height="480"
     inkscape:window-width="728"
     inkscape:pageshadow="2"
     inkscape:pageopacity="0"
     guidetolerance="10"
     gridtolerance="10"
     objecttolerance="10"
     borderopacity="1"
     bordercolor="#666666"
     pagecolor="#ffffff" />
  <g
     id="g206"
     inkscape:label="Image"
     inkscape:groupmode="layer">
    <image
       sodipodi:absref="C:\Users\chris\Pictures\Saved Pictures\Asset collection III - Epicons\smoking.png"
       xlink:href="smoking.png"
       width="480"
       height="480"
       preserveAspectRatio="none"
       id="image208" />
    <path
       id="path216"
       d="m 75.981642,339.51077 c -1.275091,-1.35727 -3.194568,-6.21118 -4.840302,-12.24 -1.499995,-5.49493 -4.53046,-16.14148 -6.734368,-23.65902 -4.609826,-15.72413 -4.495575,-16.57081 2.54389,-18.85211 C 73.496114,282.6385 166.01718,256.32 166.92868,256.32 c 0.41825,0 2.20269,5.292 3.96541,11.76 1.76272,6.468 5.25475,18.888 7.76009,27.6 2.50532,8.712 4.26504,16.11201 3.91048,16.44446 -0.35457,0.33246 -13.38866,4.14352 -28.96466,8.46901 -15.576,4.3255 -33.504,9.54312 -39.84,11.59472 -17.406317,5.63617 -31.204132,9.57181 -33.557502,9.57181 -1.159298,0 -3.058684,-1.01216 -4.220856,-2.24923 z M 189.1349,307.71919 c -0.49367,-1.29845 -3.72371,-12.42245 -7.17786,-24.72 -3.45416,-12.29755 -6.70799,-23.63716 -7.23074,-25.19912 -0.52274,-1.56196 -0.63001,-3.11036 -0.23837,-3.44091 0.39164,-0.33054 18.85607,-5.68451 41.03207,-11.89772 22.176,-6.21321 53.79777,-15.11154 70.27059,-19.77409 16.47283,-4.66255 35.48083,-9.87871 42.24,-11.59146 19.97584,-5.06182 20.32996,-4.7769 28.16854,22.66411 6.43686,22.53389 6.61049,25.3034 1.77095,28.2465 -1.58716,0.96521 -17.00772,5.72154 -34.26791,10.56963 -17.2602,4.8481 -54.16854,15.26977 -82.01855,23.15929 -27.85,7.88952 -50.8647,14.34458 -51.14376,14.34458 -0.27906,0 -0.91129,-1.06236 -1.40496,-2.36081 z M 356.16,219.4807 c 0,-0.72562 0.648,-3.15593 1.44,-5.4007 0.792,-2.24477 1.44,-5.89542 1.44,-8.11255 0,-4.12074 -3.22215,-14.81887 -6.24773,-20.74362 -3.6057,-7.06076 -11.49589,-15.51697 -19.19227,-20.56908 -12.01767,-7.88874 -14.51887,-8.76421 -38.15944,-13.35658 -5.01199,-0.97361 -8.82129,-2.3959 -11.67435,-4.35886 C 270.08101,137.52366 259.2,115.19183 259.2,96.520474 c 0,-6.983389 1.95521,-7.085003 5.39673,-0.280474 6.86261,13.56873 15.91075,22.78646 28.17831,28.70652 3.4998,1.68893 10.83941,3.9476 16.8,5.16999 16.58213,3.40062 19.79202,4.33373 25.9078,7.53133 20.86131,10.90724 34.09846,38.08244 31.24115,64.13648 -0.63294,5.77154 -3.8083,13.90721 -6.95344,17.81568 -1.29194,1.60548 -3.61055,1.52888 -3.61055,-0.1193 z M 369.3,152.02 c -0.363,-0.363 -0.66,-1.7821 -0.66,-3.15355 0,-1.37145 -0.90044,-4.86345 -2.00099,-7.76001 -1.10053,-2.89654 -2.25153,-6.13044 -2.55778,-7.18644 -0.66938,-2.3082 -2.52778,-5.32016 -6.69732,-10.85453 C 347.83006,110.38428 327.83301,99.809626 292.8,88.912785 282.15795,85.602628 276.76943,82.821349 270.94657,77.633153 266.942,74.065063 259.53193,60.891135 257.80994,54.278305 256.35685,48.698152 255.73633,36.48 256.90601,36.48 c 0.32231,0 3.94941,3.164044 8.06023,7.031208 9.63949,9.068143 14.80087,11.613305 60.95376,30.057338 16.088,6.429229 22.76768,10.378645 30.33753,17.937299 7.24441,7.233697 12.51859,16.459405 14.22467,24.882075 1.4946,7.37863 2.70358,25.4505 2.0675,30.90491 -0.51727,4.43556 -1.74923,6.22763 -3.2497,4.72717 z"
       style="fill:#000000;stroke-width:0.96" />
  </g>
</svg>
