<svg xmlns="http://www.w3.org/2000/svg" xmlns:xlink="http://www.w3.org/1999/xlink" viewBox="0 0 237.23 335.62"><defs><style>.cls-1{fill:#f8f3d4;}.cls-2{fill:#b1dacf;}.cls-3{fill:url(#linear-gradient);}.cls-4{fill:#fab314;}.cls-5{fill:#1d1d1b;}.cls-6{fill:#393e46;}.cls-7{fill:#222831;}</style><linearGradient id="linear-gradient" x1="4.95" y1="247.88" x2="197.65" y2="247.88" gradientUnits="userSpaceOnUse"><stop offset="0.24" stop-color="#ffde7e"/><stop offset="0.99" stop-color="#ffd460"/></linearGradient></defs><g id="Layer_2" data-name="Layer 2"><g id="Layer_1-2" data-name="Layer 1"><ellipse class="cls-1" cx="160.04" cy="67.35" rx="17.33" ry="16.4"/><ellipse class="cls-2" cx="133.96" cy="33.14" rx="10.07" ry="9.92"/><ellipse class="cls-1" cx="170.3" cy="8.2" rx="8.67" ry="8.2"/><path class="cls-1" d="M108.75,195.49l25.94-48.09,1.68-39.53c6.58-4,11.8-4.55,15.27-4.39,6.23.28,9.11,3,16.58,4a37.54,37.54,0,0,0,13.53-.87l3.2,41.63,52,99L233,273.89,115.86,254.36"/><path class="cls-2" d="M122.34,86.5c1.76.63,3.52,1.22,5.28,1.88a13.48,13.48,0,0,1,4.75,3.17,13.86,13.86,0,0,1,3.07,4.93,15,15,0,0,1,.67,2.89c.11,1,.13,1.93.17,2.86l.86,22.36.37,11.18.09,2.8,0,.71q0,.41,0,.81a14.91,14.91,0,0,1-.13,1.63,16,16,0,0,1-.78,3.17c-.18.5-.43,1.06-.62,1.47l-.58,1.27-9.42,20.3-9.46,20.27-9.57,20.22-9.58,20.21-4.84,10.08-2.36,4.92a8.64,8.64,0,0,0-.73,3.61l-7.19-3.45,2.32-1.89a4.42,4.42,0,0,1,6.22.62,4.33,4.33,0,0,1,1,2.47l0,.38a5.48,5.48,0,0,0,.26,1.61,1.36,1.36,0,0,0,.46.7,3.85,3.85,0,0,0,1.11.59,13.22,13.22,0,0,0,2.1.44,52.89,52.89,0,0,0,5.63.21l6.18.21,12.35.43a44.45,44.45,0,0,0,5.38,0c.54-.08.64-.17.65-.19a2.68,2.68,0,0,0,.37-.59l0-.07a4.91,4.91,0,0,1,3.11-2.58l6.07-1.65-3.16,2.66a18,18,0,0,1,9.62-9.18,18.34,18.34,0,0,1,6.66-1.32h5l9.93,0,5,0c.34,0,1,0,1.55,0s1.14.09,1.71.18a18.7,18.7,0,0,1,3.31.85,18,18,0,0,1,10,8.91c.29.56.43.89.61,1.27l.51,1.13,1,2.25,2.06,4.52,4.13,9,.26.56.18.37a6.52,6.52,0,0,0,.38.68,8.51,8.51,0,0,0,.95,1.22,8.25,8.25,0,0,0,2.51,1.82,8.4,8.4,0,0,0,3,.76l.39,0H203l2.48,0,9.93.06,2.48,0c.8,0,1.77,0,2.17,0a8.38,8.38,0,0,0,7.36-5.21,9,9,0,0,0,.64-3.17l.05-5,.1-9.84a8.66,8.66,0,0,0-.63-3.21c-.15-.4-.6-1.29-.94-2l-1.08-2.24-4.31-8.94-17-35.89c-5.7-11.95-11.21-24-16.82-36l-4.19-9-1-2.26c-.34-.76-.69-1.45-1.07-2.42a15.22,15.22,0,0,1-1-5.69l.67-19.88.39-9.92.2-5,.1-2.48c0-.83,0-1.63.13-2.53a13.64,13.64,0,0,1,9.13-11.52l4.68-1.64-4.51,2.08a12.78,12.78,0,0,0-6.62,6.64,13.08,13.08,0,0,0-1,4.55c0,.75,0,1.61.05,2.43l.08,2.48.16,5,.32,9.93.52,19.83a11.12,11.12,0,0,0,1,4c.26.56.69,1.33,1.07,2.06l1.17,2.19,4.61,8.79c6.13,11.74,12.35,23.43,18.38,35.21l18.2,35.3,4.49,8.85,1.12,2.21c.38.78.72,1.35,1.21,2.47a17.42,17.42,0,0,1,1.41,6.45l.11,10,0,5a18.27,18.27,0,0,1-1.17,6.53,17.79,17.79,0,0,1-15.41,11.4c-1.25.08-1.94.05-2.79.06H201.09l-.84,0a17.94,17.94,0,0,1-12.09-5.54,18.77,18.77,0,0,1-2.11-2.67c-.29-.49-.6-1-.84-1.48l-.38-.74-.26-.57-4.18-9L176.26,251a8.13,8.13,0,0,0-4.5-4,7.69,7.69,0,0,0-1.48-.39,6.56,6.56,0,0,0-.76-.09c-.28,0-.44,0-.93,0h-5l-9.93,0h-4.95a8.28,8.28,0,0,0-7.47,4.74l0,.07a4.86,4.86,0,0,1-3.12,2.59l-6.08,1.61,3.14-2.65a11.18,11.18,0,0,1-3.36,4.26,10.39,10.39,0,0,1-1.26.81c-.44.23-.88.41-1.32.59s-.87.29-1.28.39-.82.17-1.19.22a22.63,22.63,0,0,1-3.9.16c-1.14,0-2-.08-3.07-.09-4.12-.15-8.23-.41-12.35-.62l-6.18-.34a58,58,0,0,1-6.7-.42,20.71,20.71,0,0,1-3.91-.95,12.59,12.59,0,0,1-4.18-2.52,10.39,10.39,0,0,1-2.82-4.46,14.13,14.13,0,0,1-.66-4.47l7.23,3.47-2.35,1.85-.06.05a4.41,4.41,0,0,1-7.13-3.51A17.7,17.7,0,0,1,82.32,240l2.59-5.12,5.07-10L100.23,205l10.25-19.88,10.37-19.82,10.41-19.81.65-1.23c.23-.43.37-.71.53-1.08a10.5,10.5,0,0,0,.69-2.21,11,11,0,0,0,.17-1.15c0-.19,0-.39,0-.58l0-.69.07-2.8.29-11.18.7-22.37c0-.94.07-1.88,0-2.73a15.16,15.16,0,0,0-.4-2.59,12.59,12.59,0,0,0-6.64-8.06Z"/><path class="cls-3" d="M66.09,174.72a82.6,82.6,0,0,1,17.36-4.2c23.18-3.14,67.28.14,95.31,32.39C206.1,234.37,198.83,279,187.59,312a21.3,21.3,0,0,1-26.5,13.18h0a20.56,20.56,0,0,1-14.63-20.08c.57-26.14-18.37-49.38-43-53.47-23.07-3.83-47.51,9.69-57.35,32.44a21.17,21.17,0,0,1-17.95,12.61l-1.36.1c-4,.56-8.86.48-12.91-2.08-15.5-9.78-8.67-49,4.37-74.5C22.66,211.58,36.42,185.67,66.09,174.72Z"/><ellipse class="cls-4" cx="146.4" cy="233.63" rx="23.22" ry="21.78"/><path class="cls-5" d="M83.8,93.63a55.7,55.7,0,0,0-13.57,15,31.8,31.8,0,0,0-4.68,17.85,30.54,30.54,0,0,0,6.1,16.71,46.77,46.77,0,0,0,14,12.53A84.25,84.25,0,0,0,104,163.49c6.59,2,13.52,3.6,20.63,5.21S139,172,146.43,174.08c3.7,1.06,7.43,2.25,11.16,3.63a109.89,109.89,0,0,1,11.09,4.87A75.92,75.92,0,0,1,189,197.49a70.51,70.51,0,0,1,14,21.33,85.68,85.68,0,0,1,6.1,24.14,119.06,119.06,0,0,1-.11,24c-1.64,15.65-5.62,30.52-10.54,44.82l-.94,2.68-.47,1.33-.32.85c-.12.31-.23.62-.36.92a29.31,29.31,0,0,1-4,6.76,29.75,29.75,0,0,1-12.3,9.17,30.21,30.21,0,0,1-15,1.94,29.83,29.83,0,0,1-14-5.59,28.76,28.76,0,0,1-9.34-11.93,29.53,29.53,0,0,1-2-7.38l-.18-1.9c0-.63,0-1.27,0-1.9v-1.44l0-1.17a46,46,0,0,0-3.94-18.25c-5-11.56-15.06-21.08-27-24.95S83,259,71.87,265.7a49.07,49.07,0,0,0-19.35,21.48l-.71,1.47c-.25.53-.56,1-.85,1.54a24.67,24.67,0,0,1-2,2.88,26.64,26.64,0,0,1-5,4.84A27.08,27.08,0,0,1,31.25,303l-1.72.16-1.37.08a27.89,27.89,0,0,1-3.42,0,26.93,26.93,0,0,1-6.71-1.3A26.41,26.41,0,0,1,6.7,294.55a25,25,0,0,1-6.06-12.1c-.12-.56-.18-1.13-.27-1.69s-.12-1.19-.14-1.64l-.15-2.86C0,274.35,0,272.44,0,270.53c0-3.82.26-7.63.68-11.42a109.7,109.7,0,0,1,4.83-22.32,105,105,0,0,1,9.38-20.74,108.63,108.63,0,0,1,13.73-18,112.79,112.79,0,0,1,36.31-25.68,1,1,0,0,1,1.32.5,1,1,0,0,1-.43,1.29A113.53,113.53,0,0,0,48,186.48a111.29,111.29,0,0,0-15.1,15.29,101.55,101.55,0,0,0-11.63,17.84,100.8,100.8,0,0,0-11.6,40.31c-.26,3.51-.31,7-.23,10.54,0,1.75.15,3.5.27,5.26l.23,2.62c0,.46.1.72.14,1.09s.12.68.21,1a15.32,15.32,0,0,0,3.93,7.17,16.4,16.4,0,0,0,13.19,4.82l1.36-.12,1-.13a15.92,15.92,0,0,0,7.37-3.25,15.41,15.41,0,0,0,2.77-2.88A13.92,13.92,0,0,0,41,284.39a9.1,9.1,0,0,0,.45-.88l.45-1a61.15,61.15,0,0,1,23.26-27.58A60.47,60.47,0,0,1,87.92,246a57.52,57.52,0,0,1,12.45-.67,54.76,54.76,0,0,1,12.37,2.17,57.53,57.53,0,0,1,21.74,12.13,61.83,61.83,0,0,1,20.84,44.12l0,1.58v1.32c0,.28,0,.56,0,.84l.1.83a13.09,13.09,0,0,0,1,3.17,12.59,12.59,0,0,0,4.23,5,13.38,13.38,0,0,0,6.26,2.23,12.86,12.86,0,0,0,6.51-1.13,12.34,12.34,0,0,0,5-4,11.68,11.68,0,0,0,1.45-2.75l.27-.81.39-1.27.78-2.55c4.06-13.57,7-27.38,7.92-40.95a100,100,0,0,0-.48-19.93A65.11,65.11,0,0,0,183.91,227,53,53,0,0,0,174,211.79a57,57,0,0,0-6.83-6.12,68.46,68.46,0,0,0-8-5.11,112.74,112.74,0,0,0-18.51-7.78c-6.61-2.19-13.54-4.06-20.63-6.05s-14.37-4-21.67-6.78c-3.64-1.35-7.29-2.88-10.89-4.64A80.23,80.23,0,0,1,77,169.13a60,60,0,0,1-17.19-18,43.08,43.08,0,0,1-6.54-24.71,42.23,42.23,0,0,1,8.68-23.36A61.68,61.68,0,0,1,79.59,87.54a3.71,3.71,0,0,1,4.24,6.07Z"/><path class="cls-5" d="M114.57,75.4C96.48,77.11,72.75,76.57,56,72L77.68,93.19l3.09,30.18C87.61,107.39,102,88.49,114.57,75.4Z"/><path class="cls-6" d="M142.85,208.3a25.61,25.61,0,0,0-11.37,9.13,21.28,21.28,0,0,0-3.82,13.27,19.73,19.73,0,0,0,1.54,6.54,20.59,20.59,0,0,0,3.62,5.58,24.81,24.81,0,0,0,2.37,2.33l1.32,1c.43.35.93.59,1.38.9a21.53,21.53,0,0,0,6,2.44,15.7,15.7,0,0,0,6.1.12,16.47,16.47,0,0,0,5.58-2.16,20.27,20.27,0,0,0,7.88-8.25,15.61,15.61,0,0,0,.59-11.51,23,23,0,0,0-8.23-11.18l.36-.93a19.81,19.81,0,0,1,14.17,8.91,21.12,21.12,0,0,1,2.45,18.3,21.69,21.69,0,0,1-5.1,8.23,24.88,24.88,0,0,1-7.73,5.31,26.12,26.12,0,0,1-9.11,2.1,26.91,26.91,0,0,1-9.12-1.24,28.58,28.58,0,0,1-7.9-4.07c-.58-.45-1.19-.86-1.73-1.36l-1.62-1.47a30.93,30.93,0,0,1-2.83-3.33,26.89,26.89,0,0,1-3.9-7.75A24.45,24.45,0,0,1,129,215.5a27,27,0,0,1,6.22-5.14,27.32,27.32,0,0,1,7.31-3Z"/><ellipse class="cls-6" cx="53.05" cy="228.07" rx="14.09" ry="14.73" transform="translate(-152.66 116.2) rotate(-48.37)"/><ellipse class="cls-7" cx="77.22" cy="210.18" rx="9.13" ry="9.27" transform="translate(-146.67 213.59) rotate(-70.7)"/><ellipse class="cls-6" cx="68.55" cy="189.69" rx="5.26" ry="5.4" transform="translate(-133.13 191.69) rotate(-70.7)"/></g></g></svg>