<svg xmlns="http://www.w3.org/2000/svg" viewBox="0 0 236.27 298.68"><defs><style>.cls-1{fill:#22b2a6;}.cls-2{fill:#222831;}</style></defs><g id="Layer_2" data-name="Layer 2"><g id="Layer_1-2" data-name="Layer 1"><path class="cls-1" d="M21.54,165c26.32-18,46.35-19.9,59.47-18.54,28.13,2.93,42.71,18.09,70.88,20.14,22.24,1.61,37.56-4.38,49.34-12.58l20.14,52.78L205.88,276.8l-34,3.4L170,242.31l-17.33-23.19-29.77-14.3-30.83,4.06L68.85,224.13,48.66,248.28,34,253.21l-22.61-8.12.51-3.28-4.16-40Z"/><path class="cls-2" d="M41.83,42A127.2,127.2,0,0,0,54,61a62.94,62.94,0,0,0,15.5,14.1,106,106,0,0,0,9.42,5.27c3.33,1.69,6.66,3.17,10.1,4.54a181.77,181.77,0,0,0,21.35,6.93c7.35,2,14.94,3.67,22.76,5.43s15.83,3.67,24,6.1a152.2,152.2,0,0,1,24.66,9.68,104.66,104.66,0,0,1,22.87,15.76,101.06,101.06,0,0,1,9.68,10.07c1.49,1.77,2.91,3.6,4.29,5.44s2.83,4,4.07,6.07a88.72,88.72,0,0,1,6.52,13A97.24,97.24,0,0,1,233.47,177a109.49,109.49,0,0,1,2.24,13.72c.43,4.55.58,9.07.56,13.54a161.14,161.14,0,0,1-2.48,26.12A235.44,235.44,0,0,1,228,255.24c-1.15,4.05-2.41,8-3.72,12q-1,3-2,5.91l-.6,1.69c-.27.73-.56,1.46-.88,2.17a36.26,36.26,0,0,1-15.49,17.06,36.16,36.16,0,0,1-17.79,4.61A35.76,35.76,0,0,1,169.85,294,35.32,35.32,0,0,1,157,281.2a35.68,35.68,0,0,1-4.86-17.26c0-.37,0-.75,0-1.12l0-.93,0-1.2c0-.81,0-1.61,0-2.42-.05-1.61-.21-3.22-.41-4.83a51.29,51.29,0,0,0-6.27-18.39c-6.49-11.36-17.57-20.16-30.06-22.63s-26.4,1-37.19,9.22A52.73,52.73,0,0,0,64.6,236.75a50.27,50.27,0,0,0-2.41,4.53l-.6,1.27c-.3.62-.58,1.24-.9,1.85l-1,1.78-1.12,1.71a32,32,0,0,1-12.35,10.45,31.31,31.31,0,0,1-7.72,2.52c-.67.11-1.33.25-2,.32l-2,.18-1.54.08c-.67,0-1.34.07-2,.05A31,31,0,0,1,4.39,246.21a30,30,0,0,1-3.9-11.16c-.1-.65-.16-1.3-.21-2,0-.36-.05-.6-.06-.87l0-.79A132.53,132.53,0,0,1,7,181.71c.69-2,1.43-4,2.19-5.9s1.58-3.89,2.51-5.77,1.77-3.8,2.78-5.63L16,161.63c.52-.9,1.08-1.79,1.62-2.68a121.6,121.6,0,0,1,15.27-19.7,125.51,125.51,0,0,1,39.9-28.12,1.5,1.5,0,0,1,2,.76,1.52,1.52,0,0,1-.6,1.91h0a124.94,124.94,0,0,0-34.88,30.94,118.78,118.78,0,0,0-12.14,19.53c-1.66,3.44-3.33,6.86-4.73,10.39-.75,1.75-1.33,3.56-2,5.33s-1.18,3.61-1.71,5.42a118.93,118.93,0,0,0-3.92,45l.07.7c0,.24,0,.49.07.64.05.34.09.68.17,1a14.25,14.25,0,0,0,.52,2,15.73,15.73,0,0,0,7.66,8.94,15.19,15.19,0,0,0,7.6,1.66c.33,0,.65-.05,1-.07l1.45-.14c.72-.1,1.31-.19,1.95-.34a15,15,0,0,0,9.08-6.52l.48-.82.42-.85,1-2.34A68.43,68.43,0,0,1,49.09,228a71,71,0,0,1,17.34-21.14,69.58,69.58,0,0,1,24.38-13.09A62.37,62.37,0,0,1,132.89,196a67,67,0,0,1,12.49,6.94,71.72,71.72,0,0,1,19.32,20.53,74.57,74.57,0,0,1,10.08,26.36c.38,2.35.7,4.71.87,7.08.07,1.19.17,2.38.17,3.57l0,1.79v.58c0,.12,0,.25,0,.37a11.31,11.31,0,0,0,1.85,5.49,10.61,10.61,0,0,0,9.46,4.77,10.35,10.35,0,0,0,5.06-1.72,10.12,10.12,0,0,0,3.44-3.87,9.54,9.54,0,0,0,.51-1.18,6.36,6.36,0,0,0,.19-.62l.34-1.16q.81-2.76,1.56-5.52c1-3.69,1.94-7.38,2.76-11.08a205.45,205.45,0,0,0,3.86-22.1A151.18,151.18,0,0,0,206,204.55a95.11,95.11,0,0,0-2.72-20.25A62.46,62.46,0,0,0,196,166.69c-.79-1.34-1.67-2.58-2.57-3.89s-2-2.72-3.08-4a84.23,84.23,0,0,0-6.75-7.35,81.27,81.27,0,0,0-16-12,122.38,122.38,0,0,0-19.47-8.9c-7-2.61-14.37-4.92-22-7.27s-15.45-4.85-23.32-7.74a187.36,187.36,0,0,1-23.33-10.36c-3.78-2-7.54-4.26-11.11-6.61a111.48,111.48,0,0,1-10.62-7.84A77.58,77.58,0,0,1,40.48,70.14,127.56,127.56,0,0,1,30.33,46.87a6.27,6.27,0,0,1,11.45-5Z"/><path class="cls-2" d="M20.46,0c-.25,23.62-4.17,54.23-12.4,75.28L38.45,50.12l39.44.1C58.15,39.21,35.67,18.08,20.46,0Z"/><rect class="cls-2" x="45.8" y="135.05" width="5.94" height="19.67" transform="matrix(0.18, -0.98, 0.98, 0.18, -102.55, 166.66)"/><path class="cls-2" d="M58,149.79a19.31,19.31,0,0,1-4.28.47A38.63,38.63,0,0,1,48.7,150a18.73,18.73,0,0,1-5.3-1.39,32.53,32.53,0,0,0-5-1.81l-.06,0a.73.73,0,0,1-.56-.88h0a19.52,19.52,0,0,0,.45-2.94c.07-1,.06-2,0-3a1.06,1.06,0,0,1,1-1.08l.57,0a37.87,37.87,0,0,1,5,0c1.63.16,3.28.29,4.91.5a42.21,42.21,0,0,1,9.54,2.5l.6.23a1.56,1.56,0,0,1,.92,2c-.21.57-.43,1.14-.66,1.69s-.48,1.05-.72,1.55-.5.92-.73,1.35S58.26,149.46,58,149.79Zm-.28-.41c0-.65-.09-1.25-.15-1.81s-.14-1.09-.19-1.57-.15-.95-.19-1.37-.09-.83-.12-1.23l1.52,2.2a41.77,41.77,0,0,1-9.81-1c-1.59-.38-3.17-.84-4.76-1.28a37.79,37.79,0,0,1-4.68-1.74l1.59-1.1c-.38.94-.75,1.88-1,2.83a19.35,19.35,0,0,0-.63,2.91l-.62-.9a22.22,22.22,0,0,0,4.69,0,11.83,11.83,0,0,1,4.38.39,43.23,43.23,0,0,1,4.61,1.51C54,147.76,55.74,148.46,57.76,149.38Z"/><rect class="cls-2" x="34.36" y="158.26" width="5.94" height="28.96" transform="translate(-139.31 178.23) rotate(-79.59)"/><path class="cls-2" d="M51.18,178.48a41.12,41.12,0,0,1-6.55.12,69.75,69.75,0,0,1-7.36-.74,41.43,41.43,0,0,1-7.59-2.11,36.21,36.21,0,0,0-7.27-2,.73.73,0,0,1-.62-.83h0v0a45,45,0,0,0,.48-6,1.14,1.14,0,0,1,1.16-1.11h0l.43,0a70.61,70.61,0,0,1,7.29.42c2.4.29,4.81.54,7.19.92a68.65,68.65,0,0,1,7.08,1.53c2.34.63,4.66,1.34,7,2.17l.42.15a1.36,1.36,0,0,1,.84,1.67c-.18.56-.4,1.11-.6,1.65s-.42,1-.64,1.53C52,176.87,51.55,177.74,51.18,178.48Zm-.28-.41c0-1.2-.09-2.29-.16-3.26-.05-.49-.08-.94-.11-1.38s-.06-.87-.06-1.28L51.83,174c-2.45,0-4.87-.2-7.28-.45a68.68,68.68,0,0,1-7.16-1.08c-2.37-.49-4.71-1.12-7-1.7a69.24,69.24,0,0,1-7-2.19l1.59-1.1a45.09,45.09,0,0,0-1.67,5.73l-.61-.89a30.7,30.7,0,0,0,7,.66,29,29,0,0,1,6.66.51c2.23.48,4.49,1.11,6.88,1.88S48.08,177,50.9,178.07Z"/><rect class="cls-2" x="25.93" y="185.5" width="5.94" height="31.29" transform="translate(-174.16 193.21) rotate(-79.59)"/><path class="cls-2" d="M43.89,207.1a49.36,49.36,0,0,1-7.11,0c-2.55-.15-5.24-.43-8-.86A46.62,46.62,0,0,1,20.68,204a40.92,40.92,0,0,0-7.85-2,.74.74,0,0,1-.63-.84h0v-.06a50.79,50.79,0,0,0,.49-5.94A1.15,1.15,0,0,1,13.9,194h.39c2.64.09,5.27.17,7.86.52s5.19.61,7.77,1,5.11,1,7.64,1.66,5,1.45,7.53,2.31l.43.15a1.26,1.26,0,0,1,.78,1.6h0c-.39,1.12-.78,2.2-1.21,3.17S44.24,206.33,43.89,207.1Zm-.29-.42c0-1.18-.06-2.26-.12-3.23s-.11-1.84-.14-2.67l1.21,1.75c-2.64-.08-5.26-.24-7.86-.52A77.23,77.23,0,0,1,29,200.85c-2.55-.52-5.08-1.18-7.62-1.8s-5-1.46-7.53-2.31l1.59-1.1a53.48,53.48,0,0,0-1.65,5.74l-.63-.91a34.24,34.24,0,0,0,7.55.83,35.58,35.58,0,0,1,7.23.56c2.41.52,4.86,1.18,7.44,2S40.6,205.54,43.6,206.68Z"/><rect class="cls-2" x="18.64" y="214.11" width="5.94" height="31.29" transform="translate(-208.27 209.48) rotate(-79.59)"/><path class="cls-2" d="M36.6,235.71a48.09,48.09,0,0,1-7.12,0,78.37,78.37,0,0,1-7.94-.85,48.81,48.81,0,0,1-8.16-2.27,39.92,39.92,0,0,0-7.84-2,.74.74,0,0,1-.63-.84h0v-.06a51.14,51.14,0,0,0,.49-6,1.16,1.16,0,0,1,1.19-1.11H7c2.64.1,5.27.18,7.86.53s5.19.6,7.76,1a77.26,77.26,0,0,1,7.65,1.67c2.53.66,5,1.44,7.53,2.31l.43.15a1.27,1.27,0,0,1,.78,1.6h0c-.39,1.11-.78,2.2-1.22,3.17S37,235,36.6,235.71Zm-.29-.41c0-1.18-.07-2.27-.12-3.23s-.11-1.84-.14-2.68l1.2,1.76q-3.95-.12-7.85-.52c-2.6-.28-5.19-.64-7.74-1.16s-5.09-1.19-7.62-1.81a77.68,77.68,0,0,1-7.53-2.3l1.59-1.1A51.11,51.11,0,0,0,6.45,230l-.63-.91a34.19,34.19,0,0,0,7.55.84,34.93,34.93,0,0,1,7.23.56c2.41.51,4.86,1.17,7.44,2S33.3,234.16,36.31,235.3Z"/><path class="cls-2" d="M153.26,151.2a23,23,0,0,0-8.4,9.59,17.66,17.66,0,0,0-1.17,11.82,16.21,16.21,0,0,0,6.5,9.17,18.66,18.66,0,0,0,10.5,3.55,14,14,0,0,0,5.17-.94,14.65,14.65,0,0,0,4.35-2.7,18.18,18.18,0,0,0,5.47-7.86,12.4,12.4,0,0,0-1.05-9.45A20.48,20.48,0,0,0,165.9,156l.18-1A17.34,17.34,0,0,1,180.16,160a18.21,18.21,0,0,1,5.31,15.88,19.41,19.41,0,0,1-3.37,8.1,22,22,0,0,1-6.11,5.77,24.13,24.13,0,0,1-7.71,3.18,25.41,25.41,0,0,1-8.18.4A26,26,0,0,1,146,186.92a22.91,22.91,0,0,1-4.82-6.08,21.77,21.77,0,0,1-2.39-7.33,21.55,21.55,0,0,1,3.35-14.23,23.67,23.67,0,0,1,4.73-5.33,25.12,25.12,0,0,1,5.94-3.63Z"/></g></g></svg>