<?xml version="1.0" encoding="utf-8"?>
<!-- Generator: Adobe Illustrator 25.2.0, SVG Export Plug-In . SVG Version: 6.00 Build 0)  -->
<svg version="1.1" id="Layer_1" xmlns="http://www.w3.org/2000/svg" xmlns:xlink="http://www.w3.org/1999/xlink" x="0px" y="0px"
	 viewBox="0 0 349 537.7" style="enable-background:new 0 0 349 537.7;" xml:space="preserve">
<style type="text/css">
	.st0{fill:#EA5455;}
	.st1{enable-background:new    ;}
	.st2{fill:#00B8A9;stroke:#00B8A9;stroke-miterlimit:10;}
</style>
<g id="Layer_2_1_">
	<g id="Layer_1-2">
		<circle class="st0" cx="174.5" cy="174.5" r="174.5"/>
		<g class="st1">
			<path d="M77.1,415.9h9.7c6.4,0,9.5,3.5,9.5,10v20.5c0,6.5-3.1,10-9.5,10h-9.7V415.9z M86.7,450.7c2,0,3.2-1,3.2-3.9v-21.1
				c0-2.9-1.2-3.9-3.2-3.9h-3.2v29H86.7z"/>
			<path d="M105.4,415.9h8.6l6.6,40.6h-6.4l-1.2-8.1v0.1h-7.2l-1.2,7.9h-5.9L105.4,415.9z M112.4,443.1l-2.8-20.1h-0.1l-2.8,20.1
				H112.4z"/>
		</g>
		<g class="st1">
			<path d="M123.4,446.9v-31h6.4v31.4c0,2.9,1.2,3.9,3.2,3.9c2,0,3.2-1,3.2-3.9v-31.4h6.1v31c0,6.5-3.2,10.2-9.5,10.2
				S123.4,453.4,123.4,446.9z"/>
			<path d="M146.9,415.9h8l6.2,24.3h0.1v-24.3h5.7v40.6h-6.6l-7.7-29.6h-0.1v29.6h-5.7V415.9z"/>
			<path d="M176.7,421.7H170v-5.8h19.7v5.8h-6.7v34.8h-6.4V421.7z"/>
			<path d="M192.8,415.9h6.4v34.8h10.5v5.8h-16.9V415.9z"/>
		</g>
		<g class="st1">
			<path d="M212.8,415.9h17.4v5.8h-11v10.7h8.8v5.8h-8.8v12.5h11v5.8h-17.4V415.9z"/>
		</g>
		<g class="st1">
			<path d="M232.8,446.9v-2.3h6v2.8c0,2.9,1.3,3.9,3.3,3.9c2,0,3.3-1,3.3-4.1c0-3.4-1.3-5.5-5.5-9.2c-5.3-4.7-7.1-8-7.1-12.6
				c0-6.4,3.3-10.1,9.5-10.1s9.3,3.7,9.3,10.2v1.7h-6v-2.1c0-2.9-1.2-4-3.2-4c-2,0-3.2,1.1-3.2,3.9c0,3,1.3,5.1,5.5,8.8
				c5.3,4.7,7,7.9,7,13c0,6.6-3.4,10.3-9.6,10.3C236,457.1,232.8,453.4,232.8,446.9z"/>
			<path d="M254.4,446.9v-2.3h6v2.8c0,2.9,1.3,3.9,3.3,3.9c2,0,3.3-1,3.3-4.1c0-3.4-1.3-5.5-5.5-9.2c-5.3-4.7-7.1-8-7.1-12.6
				c0-6.4,3.3-10.1,9.5-10.1c6.2,0,9.3,3.7,9.3,10.2v1.7h-6v-2.1c0-2.9-1.2-4-3.2-4s-3.2,1.1-3.2,3.9c0,3,1.3,5.1,5.5,8.8
				c5.3,4.7,7,7.9,7,13c0,6.6-3.4,10.3-9.6,10.3S254.4,453.4,254.4,446.9z"/>
		</g>
		<path class="st2" d="M63.2,395.1c69.4-32.4,149.5-32.9,219.4-1.5"/>
		<g class="st1">
			<path d="M157.7,517.6H154c-0.7,0-1.3-0.3-1.6-0.9l-7.8-10.8c-0.2-0.3-0.5-0.6-0.8-0.7c-0.3-0.1-0.7-0.2-1.3-0.2h-3.1v12.6h-4.1
				v-30.1h8.5c1.9,0,3.5,0.2,4.9,0.6c1.4,0.4,2.5,0.9,3.4,1.7c0.9,0.7,1.6,1.6,2,2.6c0.4,1,0.7,2.2,0.7,3.5c0,1.1-0.2,2.1-0.5,3
				c-0.3,0.9-0.8,1.8-1.5,2.5c-0.6,0.7-1.4,1.4-2.3,1.9c-0.9,0.5-2,0.9-3.1,1.2c0.5,0.3,1,0.7,1.3,1.3L157.7,517.6z M143.8,502.1
				c1.2,0,2.2-0.1,3.1-0.4c0.9-0.3,1.7-0.7,2.3-1.2c0.6-0.5,1.1-1.2,1.4-1.9s0.5-1.5,0.5-2.4c0-1.8-0.6-3.1-1.8-4.1
				c-1.2-0.9-2.9-1.4-5.3-1.4h-4.5v11.4H143.8z"/>
			<path d="M187.4,517.6h-3.6c-0.4,0-0.7,0-1-0.1c-0.3-0.1-0.5-0.3-0.8-0.6l-3-3.1c-1.3,1.3-2.8,2.3-4.5,3c-1.7,0.7-3.6,1.1-5.7,1.1
				c-1.1,0-2.2-0.2-3.3-0.6c-1.1-0.4-2-0.9-2.9-1.6c-0.9-0.7-1.5-1.6-2.1-2.6c-0.5-1-0.8-2.2-0.8-3.5c0-1,0.2-1.9,0.5-2.8
				s0.8-1.7,1.4-2.4c0.6-0.7,1.3-1.4,2.1-2c0.8-0.6,1.7-1.1,2.6-1.5c-0.9-1.1-1.5-2.1-1.9-3.2c-0.4-1-0.6-2.1-0.6-3.2
				c0-1,0.2-2,0.6-2.9c0.4-0.9,0.9-1.7,1.6-2.3c0.7-0.7,1.6-1.2,2.6-1.6c1-0.4,2.1-0.6,3.4-0.6c1.1,0,2.1,0.2,3,0.5
				c0.9,0.4,1.7,0.8,2.4,1.4c0.7,0.6,1.2,1.3,1.6,2c0.4,0.8,0.6,1.6,0.7,2.4l-2.3,0.5c-0.5,0.1-0.8-0.1-1-0.7
				c-0.1-0.4-0.3-0.7-0.5-1.1c-0.2-0.4-0.5-0.7-0.8-1.1c-0.3-0.3-0.8-0.6-1.2-0.8c-0.5-0.2-1-0.3-1.7-0.3c-0.7,0-1.3,0.1-1.9,0.3
				s-1,0.5-1.4,0.9c-0.4,0.4-0.7,0.9-0.9,1.4s-0.3,1.1-0.3,1.8c0,0.5,0.1,1,0.2,1.4c0.1,0.4,0.3,0.9,0.5,1.4s0.6,0.9,0.9,1.4
				c0.4,0.5,0.8,1,1.4,1.5l8.7,8.8c0.5-1,1-1.9,1.3-3s0.5-2.1,0.6-3.1c0-0.3,0.1-0.5,0.3-0.6s0.3-0.2,0.6-0.2h2.3
				c0,1.6-0.3,3.2-0.8,4.7s-1.2,3-2.1,4.4L187.4,517.6z M168,502.8c-1.5,0.8-2.6,1.7-3.3,2.9s-1.1,2.3-1.1,3.7
				c0,0.9,0.2,1.7,0.5,2.4c0.3,0.7,0.8,1.3,1.3,1.8c0.5,0.5,1.2,0.8,1.9,1.1c0.7,0.2,1.4,0.4,2.1,0.4c1.6,0,3-0.3,4.2-0.9
				c1.3-0.6,2.3-1.3,3.3-2.3L168,502.8z"/>
			<path d="M217.7,502.6c0,2.3-0.4,4.3-1.1,6.2c-0.7,1.8-1.7,3.4-3,4.7c-1.3,1.3-2.9,2.3-4.7,3.1c-1.8,0.7-3.8,1.1-6.1,1.1h-11.2
				v-30.1h11.2c2.2,0,4.2,0.4,6.1,1.1c1.8,0.7,3.4,1.7,4.7,3.1s2.3,2.9,3,4.8C217.4,498.3,217.7,500.4,217.7,502.6z M213.5,502.6
				c0-1.8-0.3-3.5-0.8-5s-1.2-2.7-2.1-3.7c-0.9-1-2-1.8-3.4-2.3c-1.3-0.5-2.8-0.8-4.4-0.8h-7.2v23.5h7.2c1.6,0,3.1-0.3,4.4-0.8
				c1.3-0.5,2.4-1.3,3.4-2.3c0.9-1,1.6-2.2,2.1-3.7S213.5,504.5,213.5,502.6z"/>
		</g>
	</g>
</g>
</svg>
