<svg xmlns="http://www.w3.org/2000/svg" viewBox="0 0 1286.69 892.34"><defs><style>.cls-1{fill:#393e46;stroke:#393e46;stroke-width:10px;}.cls-1,.cls-2{stroke-miterlimit:10;}.cls-2{fill:#222831;stroke:#222831;stroke-width:20px;}.cls-3{fill:#00adb5;}.cls-4{fill:#ffb400;}.cls-5{fill:#ea5455;}</style></defs><g id="Layer_2" data-name="Layer 2"><g id="Layer_1-2" data-name="Layer 1"><ellipse class="cls-1" cx="637.5" cy="392.07" rx="632.5" ry="117.64"/><ellipse class="cls-2" cx="637" cy="320.51" rx="444.22" ry="71.61"/><circle class="cls-3" cx="287" cy="364.7" r="46"/><circle class="cls-4" cx="637.42" cy="189.63" r="189.63"/><circle class="cls-5" cx="1211.12" cy="442.16" r="75.56"/><path d="M1155,891.84a2.74,2.74,0,0,1-2-.8,2.7,2.7,0,0,1-.79-2V838.41a2.7,2.7,0,0,1,.79-2,2.74,2.74,0,0,1,2-.8h13.46a19.6,19.6,0,0,1,9.36,2.2,16.22,16.22,0,0,1,6.44,6.12,17.32,17.32,0,0,1,2.34,9,16.08,16.08,0,0,1-8.78,14.68,19.82,19.82,0,0,1-9.36,2.16H1157.8V889a2.72,2.72,0,0,1-2.8,2.81Zm2.8-27.44h10.66a14,14,0,0,0,6.52-1.47,11.65,11.65,0,0,0,4.5-4.07,10.77,10.77,0,0,0,1.65-5.9,11.69,11.69,0,0,0-1.65-6.23,11.54,11.54,0,0,0-4.5-4.21,13.67,13.67,0,0,0-6.52-1.52H1157.8Zm27.29,27.44a2.62,2.62,0,0,1-1.47-.36,3.24,3.24,0,0,1-1-1.08l-13.82-22,5.62-1.44,12.88,20.6a2.94,2.94,0,0,1,.4,3A2.7,2.7,0,0,1,1185.09,891.84Z" transform="translate(-19.84)"/><path d="M1207.92,892.34a17.83,17.83,0,0,1-8.07-1.69,12.61,12.61,0,0,1-5.25-4.72,13,13,0,0,1-1.88-7,14.11,14.11,0,0,1,2.88-8.53,45.08,45.08,0,0,1,8.72-8.46l6-4.76a19.43,19.43,0,0,0,4.65-5,10.1,10.1,0,0,0,1.55-5.29,7.8,7.8,0,0,0-13.07-5.29,6.43,6.43,0,0,0-2.13,4.78,9.57,9.57,0,0,0,.9,4.14,13.47,13.47,0,0,0,2.78,3.78l32.32,32.26a3.64,3.64,0,0,1,1,1.73,2.06,2.06,0,0,1-.72,1.73q-1.87,1.86-3.67,0l-32.69-32.69a18.25,18.25,0,0,1-3.63-5.08,13.2,13.2,0,0,1-1.34-5.79,10.78,10.78,0,0,1,1.66-5.91,11.83,11.83,0,0,1,4.46-4.1,14.36,14.36,0,0,1,13,.07,12.06,12.06,0,0,1,4.54,4.28,11.6,11.6,0,0,1,1.66,6.16,13.37,13.37,0,0,1-1.12,5.08,16.77,16.77,0,0,1-3,4.46,39.07,39.07,0,0,1-4.68,4.28l-6,4.61a36.7,36.7,0,0,0-5,4.72,17,17,0,0,0-2.84,4.43,11.31,11.31,0,0,0-.9,4.39,8,8,0,0,0,2.59,6.23q2.59,2.34,7.42,2.34a12.63,12.63,0,0,0,6.73-1.88,30.93,30.93,0,0,0,6.3-5.32l11-11.6a3.56,3.56,0,0,1,1.65-1,2,2,0,0,1,1.73.68,2.63,2.63,0,0,1,.94,1.73,2.45,2.45,0,0,1-.87,1.87l-10.94,11.6a33.85,33.85,0,0,1-7.74,6.44A17.29,17.29,0,0,1,1207.92,892.34Z" transform="translate(-19.84)"/><path d="M1251.33,891.84a2.72,2.72,0,0,1-2.81-2.81V838.41a2.72,2.72,0,0,1,2.81-2.81h13a30.31,30.31,0,0,1,11.34,2.06,25.64,25.64,0,0,1,8.89,5.83,26.48,26.48,0,0,1,5.8,8.89,32.28,32.28,0,0,1,0,22.64,26.36,26.36,0,0,1-5.8,8.93,25.64,25.64,0,0,1-8.89,5.83,30.31,30.31,0,0,1-11.34,2.06Zm2.81-5h10.15a22.63,22.63,0,0,0,11.7-3,21.29,21.29,0,0,0,8-8.21,26.09,26.09,0,0,0,0-23.83,21,21,0,0,0-8-8.17,22.81,22.81,0,0,0-11.7-3h-10.15Z" transform="translate(-19.84)"/><path d="M28.53,761.66a7.71,7.71,0,0,1-5.75-2.28,7.92,7.92,0,0,1-2.26-5.81V607.74a7.94,7.94,0,0,1,2.26-5.81,7.75,7.75,0,0,1,5.75-2.28H65.47a85.77,85.77,0,0,1,32.33,5.91,73.55,73.55,0,0,1,25.35,16.8A76.59,76.59,0,0,1,139.67,648a87.52,87.52,0,0,1,5.85,32.57,88.24,88.24,0,0,1-5.85,32.67A76.37,76.37,0,0,1,123.15,739a73.55,73.55,0,0,1-25.35,16.8,85.77,85.77,0,0,1-32.33,5.91Zm8-14.52H65.47q18.89,0,33.36-8.61a61,61,0,0,0,22.68-23.65q8.2-15,8.2-34.33t-8.2-34.33a60.31,60.31,0,0,0-22.68-23.55q-14.47-8.5-33.36-8.5H36.53Z" transform="translate(-19.84)"/><path d="M165.63,761.66a7,7,0,0,1-6.77-3.94,8.45,8.45,0,0,1-.41-7.67l60.34-144.8q2.27-5.61,7.8-5.6,5.34,0,7.6,5.6l60.54,145a7.57,7.57,0,0,1-.51,7.68,7.46,7.46,0,0,1-6.67,3.73,8,8,0,0,1-4.41-1.24,9,9,0,0,1-3.18-3.73L223.51,618.32h6.37L173,756.69a7.84,7.84,0,0,1-3,3.73A8,8,0,0,1,165.63,761.66Zm13.55-38.58,6.16-13.9h83.33l6.15,13.9Z" transform="translate(-19.84)"/><path d="M376.42,765q-18.68,0-33.15-7.26a55.36,55.36,0,0,1-22.58-20.12q-8.1-12.86-8.1-29.46V607.74a7.93,7.93,0,0,1,2.25-5.81,8.39,8.39,0,0,1,11.5,0,7.94,7.94,0,0,1,2.26,5.81v100.4a38.76,38.76,0,0,0,6,21.58,41,41,0,0,0,16.93,14.62,56,56,0,0,0,24.84,5.29,54.23,54.23,0,0,0,24.42-5.29,41.28,41.28,0,0,0,16.73-14.62,38.84,38.84,0,0,0,6.05-21.58V607.74a7.94,7.94,0,0,1,2.26-5.81,7.75,7.75,0,0,1,5.75-2.28,7.67,7.67,0,0,1,5.85,2.28,8.11,8.11,0,0,1,2.15,5.81v100.4q0,16.61-8.1,29.46a55.73,55.73,0,0,1-22.37,20.12Q394.88,765,376.42,765Z" transform="translate(-19.84)"/><path d="M488.68,761.66a7.69,7.69,0,0,1-5.74-2.28,7.88,7.88,0,0,1-2.26-5.81V607.74a7.9,7.9,0,0,1,2.26-5.81,8.16,8.16,0,0,1,11.9.62L593,732.83V607.74a7.9,7.9,0,0,1,2.26-5.81,7.73,7.73,0,0,1,5.74-2.28,7.86,7.86,0,0,1,5.65,2.28,7.75,7.75,0,0,1,2.36,5.81V753.57a7.73,7.73,0,0,1-2.36,5.81,7.82,7.82,0,0,1-5.65,2.28,9.07,9.07,0,0,1-3.28-.62A5.57,5.57,0,0,1,595,759L496.69,628.69V753.57a7.73,7.73,0,0,1-2.36,5.81A7.82,7.82,0,0,1,488.68,761.66Z" transform="translate(-19.84)"/><path d="M640,614.37a7.2,7.2,0,0,1-5.34-2.07,7.06,7.06,0,0,1-2.05-5.19,7.32,7.32,0,0,1,2.05-5.39,7.2,7.2,0,0,1,5.34-2.07h113.5a7.2,7.2,0,0,1,5.34,2.07,7.36,7.36,0,0,1,2.05,5.39,7.1,7.1,0,0,1-2.05,5.19,7.2,7.2,0,0,1-5.34,2.07ZM696.6,761.66a7.68,7.68,0,0,1-5.65-2.38,7.84,7.84,0,0,1-2.36-5.71V599.65h16V753.57a8,8,0,0,1-2.26,5.71A7.55,7.55,0,0,1,696.6,761.66Z" transform="translate(-19.84)"/><path d="M792.45,761.66a7.82,7.82,0,0,1-5.65-2.28,7.73,7.73,0,0,1-2.36-5.81V607.74A7.86,7.86,0,0,1,786.8,602a7.88,7.88,0,0,1,11.29,0,7.86,7.86,0,0,1,2.36,5.71V746.31H880.7a8.07,8.07,0,0,1,5.65,2.18,7.59,7.59,0,0,1,0,11,8.06,8.06,0,0,1-5.65,2.17Z" transform="translate(-19.84)"/><path d="M922.37,761.66a7.7,7.7,0,0,1-5.75-2.28,7.88,7.88,0,0,1-2.26-5.81V607.74a7.9,7.9,0,0,1,2.26-5.81,7.74,7.74,0,0,1,5.75-2.28h96.26a8,8,0,0,1,5.64,2.17,7.44,7.44,0,0,1,2.36,5.71,7.27,7.27,0,0,1-2.36,5.39,7.8,7.8,0,0,1-5.64,2.28H930.37v57.26h64.24a7.89,7.89,0,1,1,0,15.77H930.37v57.88h88.26a7.84,7.84,0,0,1,5.64,2.28,7.27,7.27,0,0,1,2.36,5.39,7.44,7.44,0,0,1-2.36,5.71,8,8,0,0,1-5.64,2.17Z" transform="translate(-19.84)"/><path d="M1105.65,763.74a74.4,74.4,0,0,1-24.32-3.84,58.59,58.59,0,0,1-19.4-10.89,48.12,48.12,0,0,1-12.52-16.39,6.27,6.27,0,0,1-.1-6.12,8.13,8.13,0,0,1,5.23-3.84,7.38,7.38,0,0,1,5.65.63,9.52,9.52,0,0,1,4.2,4.35,33.4,33.4,0,0,0,9,10.79,43,43,0,0,0,14.17,7.36,59.34,59.34,0,0,0,18.06,2.6,48.3,48.3,0,0,0,19.29-3.63,30.34,30.34,0,0,0,13.24-10.58q4.82-7,4.82-16.91a29.58,29.58,0,0,0-9.23-21.78q-9.24-9.13-28.94-11.62-24-2.89-37.56-15t-13.55-29.77a36.82,36.82,0,0,1,6.67-22,43.1,43.1,0,0,1,18.37-14.42q11.7-5.07,26.89-5.08a55.37,55.37,0,0,1,36.64,13.17,55.06,55.06,0,0,1,11.18,13,8.37,8.37,0,0,1,1.33,6.43,7.15,7.15,0,0,1-3.59,4.77,8.21,8.21,0,0,1-6.26.42,8.32,8.32,0,0,1-4.82-3.94,46.9,46.9,0,0,0-7.7-9,34.34,34.34,0,0,0-11.18-6.74,47.8,47.8,0,0,0-15.81-2.7q-16.21,0-26.06,7t-9.85,20.23a24,24,0,0,0,3.69,13q3.69,5.93,12.21,10.17t22.89,6.33q25.65,3.74,38.07,15.87t12.42,31.63a47.21,47.21,0,0,1-4,19.92,40.06,40.06,0,0,1-11.28,14.62,51.84,51.84,0,0,1-17,9A68.24,68.24,0,0,1,1105.65,763.74Z" transform="translate(-19.84)"/><path d="M1241.52,763.74a74.4,74.4,0,0,1-24.32-3.84A58.59,58.59,0,0,1,1197.8,749a48.12,48.12,0,0,1-12.52-16.39,6.27,6.27,0,0,1-.1-6.12,8.16,8.16,0,0,1,5.23-3.84,7.38,7.38,0,0,1,5.65.63,9.52,9.52,0,0,1,4.2,4.35,33.4,33.4,0,0,0,9,10.79,43,43,0,0,0,14.17,7.36,59.34,59.34,0,0,0,18.06,2.6,48.3,48.3,0,0,0,19.29-3.63,30.34,30.34,0,0,0,13.24-10.58q4.82-7,4.82-16.91a29.58,29.58,0,0,0-9.23-21.78q-9.24-9.13-28.94-11.62-24-2.89-37.56-15t-13.55-29.77a36.82,36.82,0,0,1,6.67-22,43.1,43.1,0,0,1,18.37-14.42q11.7-5.07,26.89-5.08a55.37,55.37,0,0,1,36.64,13.17,55.06,55.06,0,0,1,11.18,13,8.37,8.37,0,0,1,1.33,6.43,7.15,7.15,0,0,1-3.59,4.77,8.21,8.21,0,0,1-6.26.42,8.32,8.32,0,0,1-4.82-3.94,46.9,46.9,0,0,0-7.7-9,34.24,34.24,0,0,0-11.18-6.74,47.8,47.8,0,0,0-15.81-2.7q-16.21,0-26.06,7t-9.85,20.23a24,24,0,0,0,3.69,13q3.69,5.93,12.21,10.17t22.89,6.33q25.65,3.74,38.07,15.87t12.42,31.63a47.21,47.21,0,0,1-4,19.92,40.06,40.06,0,0,1-11.28,14.62,51.84,51.84,0,0,1-17,9A68.24,68.24,0,0,1,1241.52,763.74Z" transform="translate(-19.84)"/></g></g></svg>