<svg xmlns="http://www.w3.org/2000/svg" viewBox="0 0 236.27 298.68"><defs><style>.cls-1{fill:#22b2a6;}.cls-2{fill:#ededed;}</style></defs><g id="Layer_2" data-name="Layer 2"><g id="Layer_1-2" data-name="Layer 1"><path class="cls-1" d="M16,176.31c17.23-17.14,31.68-19.19,41.86-19.71,24-1.23,37.72,9.61,67.3,8.17,26.7-1.3,47.14-10.72,64.2-23l32,64.32-25.26,87.35-29.48-15.33-8.21-40.53-26.16-27.7L94.81,206.2,67,210.5l-9.92,28.38L34,254.21l-9.88-7.39L10,239.12l.29-2.52L7.75,205.68Z"/><path class="cls-2" d="M41.83,42A127.2,127.2,0,0,0,54,61a62.94,62.94,0,0,0,15.5,14.1,106,106,0,0,0,9.42,5.27c3.33,1.69,6.66,3.17,10.1,4.54a181.77,181.77,0,0,0,21.35,6.93c7.35,2,14.94,3.67,22.76,5.43s15.83,3.67,24,6.1a152.2,152.2,0,0,1,24.66,9.68,104.66,104.66,0,0,1,22.87,15.76,101.06,101.06,0,0,1,9.68,10.07c1.49,1.77,2.91,3.6,4.29,5.44s2.83,4,4.07,6.07a88.72,88.72,0,0,1,6.52,13A97.24,97.24,0,0,1,233.47,177a109.49,109.49,0,0,1,2.24,13.72c.43,4.55.58,9.07.56,13.54a161.14,161.14,0,0,1-2.48,26.12A235.44,235.44,0,0,1,228,255.24c-1.15,4.05-2.41,8-3.72,12q-1,3-2,5.91l-.6,1.69c-.27.73-.56,1.46-.88,2.17a36.26,36.26,0,0,1-15.49,17.06,36.16,36.16,0,0,1-17.79,4.61A35.76,35.76,0,0,1,169.85,294,35.32,35.32,0,0,1,157,281.2a35.68,35.68,0,0,1-4.86-17.26c0-.37,0-.75,0-1.12l0-.93,0-1.2c0-.81,0-1.61,0-2.42-.05-1.61-.21-3.22-.41-4.83a51.29,51.29,0,0,0-6.27-18.39c-6.49-11.36-17.57-20.16-30.06-22.63s-26.4,1-37.19,9.22A52.73,52.73,0,0,0,64.6,236.75a50.27,50.27,0,0,0-2.41,4.53l-.6,1.27c-.3.62-.58,1.24-.9,1.85l-1,1.78-1.12,1.71a32,32,0,0,1-12.35,10.45,31.31,31.31,0,0,1-7.72,2.52c-.67.11-1.33.25-2,.32l-2,.18-1.54.08c-.67,0-1.34.07-2,.05A31,31,0,0,1,4.39,246.21a30,30,0,0,1-3.9-11.16c-.1-.65-.16-1.3-.21-2,0-.36-.05-.6-.06-.87l0-.79A132.53,132.53,0,0,1,7,181.71c.69-2,1.43-4,2.19-5.9s1.58-3.89,2.51-5.77,1.77-3.8,2.78-5.63L16,161.63c.52-.9,1.08-1.79,1.62-2.68a121.6,121.6,0,0,1,15.27-19.7,125.51,125.51,0,0,1,39.9-28.12,1.5,1.5,0,0,1,2,.76,1.52,1.52,0,0,1-.6,1.91h0a124.94,124.94,0,0,0-34.88,30.94,118.78,118.78,0,0,0-12.14,19.53c-1.66,3.44-3.33,6.86-4.73,10.39-.75,1.75-1.33,3.56-2,5.33s-1.18,3.61-1.71,5.42a118.93,118.93,0,0,0-3.92,45l.07.7c0,.24,0,.49.07.64.05.34.09.68.17,1a14.25,14.25,0,0,0,.52,2,15.73,15.73,0,0,0,7.66,8.94,15.19,15.19,0,0,0,7.6,1.66c.33,0,.65-.05,1-.07l1.45-.14c.72-.1,1.31-.19,1.95-.34a15,15,0,0,0,9.08-6.52l.48-.82.42-.85,1-2.34A68.43,68.43,0,0,1,49.09,228a71,71,0,0,1,17.34-21.14,69.58,69.58,0,0,1,24.38-13.09A62.37,62.37,0,0,1,132.89,196a67,67,0,0,1,12.49,6.94,71.72,71.72,0,0,1,19.32,20.53,74.57,74.57,0,0,1,10.08,26.36c.38,2.35.7,4.71.87,7.08.07,1.19.17,2.38.17,3.57l0,1.79v.58c0,.12,0,.25,0,.37a11.31,11.31,0,0,0,1.85,5.49,10.61,10.61,0,0,0,9.46,4.77,10.35,10.35,0,0,0,5.06-1.72,10.12,10.12,0,0,0,3.44-3.87,8.24,8.24,0,0,0,.51-1.18,6.36,6.36,0,0,0,.19-.62l.34-1.16q.81-2.76,1.56-5.52c1-3.69,1.94-7.38,2.76-11.08a205.45,205.45,0,0,0,3.86-22.1A151.18,151.18,0,0,0,206,204.55a95.11,95.11,0,0,0-2.72-20.25A62.46,62.46,0,0,0,196,166.69c-.79-1.34-1.67-2.58-2.57-3.89s-2-2.72-3.08-4a84.23,84.23,0,0,0-6.75-7.35,81.27,81.27,0,0,0-16-12,122.38,122.38,0,0,0-19.47-8.9c-7-2.61-14.37-4.92-22-7.27s-15.45-4.85-23.32-7.74a187.36,187.36,0,0,1-23.33-10.36c-3.78-2-7.54-4.26-11.11-6.61a111.48,111.48,0,0,1-10.62-7.84A77.58,77.58,0,0,1,40.48,70.14,127.56,127.56,0,0,1,30.33,46.87a6.27,6.27,0,0,1,11.45-5Z"/><path class="cls-2" d="M20.46,0c-.25,23.62-4.17,54.23-12.4,75.28L38.45,50.12l39.44.1C58.15,39.21,35.67,18.08,20.46,0Z"/><polygon class="cls-2" points="55.72 154.08 32.88 153.93 33.74 149.29 56.67 148.87 55.72 154.08"/><path class="cls-2" d="M55.88,154.27a22.38,22.38,0,0,1-5,1.31,43.07,43.07,0,0,1-5.83.54,25.11,25.11,0,0,1-6.23-.72c-1-.22-2-.42-3-.55a19.33,19.33,0,0,0-2.93-.16.75.75,0,0,1-.76-.73c0-.05,0-.09,0-.14v0a26.66,26.66,0,0,0,.31-4.74,1,1,0,0,1,.77-1l.49-.11a49.78,49.78,0,0,1,5.72-1c1.91-.19,3.82-.4,5.73-.53a44,44,0,0,1,5.74.07,54,54,0,0,1,5.75.71l.59.11A1.41,1.41,0,0,1,58.37,149a1.29,1.29,0,0,1,0,.21A26.82,26.82,0,0,1,55.88,154.27Zm-.32-.38c-.14-2.22-.45-3.88-.53-5.32l1.68,2a54.42,54.42,0,0,1-5.72.92,42.35,42.35,0,0,1-5.74.27c-1.91,0-3.82-.2-5.74-.31a49.78,49.78,0,0,1-5.75-.83L35,149.52a25.64,25.64,0,0,0-1.39,4.55l-.74-.9a17.2,17.2,0,0,0,2.78-.12c.92-.12,1.81-.31,2.69-.51a17.28,17.28,0,0,1,5.19-.65,46.19,46.19,0,0,1,5.58.62C51.1,152.84,53.17,153.26,55.56,153.89Z"/><polygon class="cls-2" points="49 179.66 18.29 175.61 19.09 171.22 49.94 174.5 49 179.66"/><path class="cls-2" d="M49.14,179.87a44.05,44.05,0,0,1-7,.42,75.17,75.17,0,0,1-7.91-.48A51.77,51.77,0,0,1,26,177.86a36.41,36.41,0,0,0-7.85-1.44.77.77,0,0,1-.71-.82v-.14c.18-1.48.28-3,.33-4.47a1.08,1.08,0,0,1,1-1.05l.39,0c2.61-.1,5.23-.27,7.81-.12s5.18.19,7.76.41a73.92,73.92,0,0,1,7.68,1.09c2.55.48,5.09,1.09,7.61,1.79l.42.12a1.21,1.21,0,0,1,.85,1.49l0,.06A40.11,40.11,0,0,1,49.14,179.87Zm-.29-.41c0-2.11-.27-3.77-.3-5.21l1.24,1.66c-2.61.16-5.22.22-7.81.16a77,77,0,0,1-7.75-.55c-2.56-.32-5.11-.8-7.66-1.23s-5.09-1.11-7.62-1.76l1.43-1.07c-.49,1.42-.94,2.85-1.29,4.3l-.7-1a31.86,31.86,0,0,0,7.51.59,38.32,38.32,0,0,1,7.19.07A74.34,74.34,0,0,1,40.53,177C43.12,177.67,45.82,178.44,48.85,179.46Z"/><polygon class="cls-2" points="41.88 204.63 10.57 196.38 11.36 192.09 42.82 199.53 41.88 204.63"/><path class="cls-2" d="M42,204.84a51.94,51.94,0,0,1-7.31-.57,77.42,77.42,0,0,1-8.14-1.56,58.92,58.92,0,0,1-8.25-3.07,39,39,0,0,0-8-2.46.78.78,0,0,1-.63-.85l0-.11c.17-1.44.26-2.9.31-4.37a1.13,1.13,0,0,1,1.17-1.08h0l.38,0c2.71.24,5.43.44,8.08.93s5.33.89,8,1.47a78.24,78.24,0,0,1,7.8,2.14c2.57.84,5.12,1.78,7.64,2.84l.39.17a1.15,1.15,0,0,1,.64,1.42,28,28,0,0,1-1.09,2.79C42.7,203.43,42.33,204.17,42,204.84Zm-.27-.43c0-1-.06-2-.13-2.83s-.14-1.59-.15-2.3l1,1.59q-4.08-.28-8.09-.88c-2.68-.42-5.33-.9-7.94-1.58s-5.18-1.48-7.77-2.26-5.11-1.78-7.65-2.78l1.6-1c-.47,1.39-.91,2.78-1.26,4.2l-.61-1a34.25,34.25,0,0,0,7.69,1.67,42.13,42.13,0,0,1,7.41,1c2.45.68,4.92,1.56,7.52,2.57S38.71,203,41.75,204.41Z"/><polygon class="cls-2" points="34.94 228.99 5.03 216.99 5.81 212.75 35.87 223.96 34.94 228.99"/><path class="cls-2" d="M35.06,229.21A57.06,57.06,0,0,1,28,227.74a80.85,80.85,0,0,1-7.87-2.51,59.17,59.17,0,0,1-7.82-4.06,38.93,38.93,0,0,0-7.58-3.4.76.76,0,0,1-.53-.82l0-.11c.17-1.43.25-2.88.3-4.33A1.16,1.16,0,0,1,5.7,211.4l.2,0,.37.08c2.64.57,5.3,1.1,7.85,1.91s5.13,1.54,7.65,2.43a77.13,77.13,0,0,1,7.41,3.08q3.65,1.71,7.16,3.74l.37.21a1.12,1.12,0,0,1,.5,1.32,28,28,0,0,1-1.1,2.79C35.73,227.84,35.36,228.57,35.06,229.21Zm-.24-.44c0-1-.06-2-.13-2.81s-.15-1.56-.17-2.25l.87,1.53q-4-.77-7.87-1.86c-2.58-.73-5.13-1.54-7.62-2.52s-4.92-2.1-7.37-3.18S7.72,215.29,5.35,214l1.76-1c-.46,1.37-.9,2.76-1.25,4.15l-.52-.93a33.06,33.06,0,0,0,7.37,2.6,42,42,0,0,1,7.14,1.95c2.31,1,4.63,2.16,7.08,3.48S31.94,227,34.82,228.77Z"/><path class="cls-2" d="M153.26,151.2a23,23,0,0,0-8.4,9.59,17.66,17.66,0,0,0-1.17,11.82,16.21,16.21,0,0,0,6.5,9.17,18.66,18.66,0,0,0,10.5,3.55,14,14,0,0,0,5.17-.94,14.65,14.65,0,0,0,4.35-2.7,18.18,18.18,0,0,0,5.47-7.86,12.4,12.4,0,0,0-1.05-9.45A20.48,20.48,0,0,0,165.9,156l.18-1A17.34,17.34,0,0,1,180.16,160a18.21,18.21,0,0,1,5.31,15.88,19.41,19.41,0,0,1-3.37,8.1,22,22,0,0,1-6.11,5.77,24.13,24.13,0,0,1-7.71,3.18,25.41,25.41,0,0,1-8.18.4A26,26,0,0,1,146,186.92a22.91,22.91,0,0,1-4.82-6.08,21.77,21.77,0,0,1-2.39-7.33,21.55,21.55,0,0,1,3.35-14.23,23.67,23.67,0,0,1,4.73-5.33,25.12,25.12,0,0,1,5.94-3.63Z"/></g></g></svg>